<?xml version="1.0" standalone="no"?>
<!DOCTYPE svg PUBLIC "-//W3C//DTD SVG 20010904//EN"
 "http://www.w3.org/TR/2001/REC-SVG-20010904/DTD/svg10.dtd">
<svg version="1.0" xmlns="http://www.w3.org/2000/svg"
 width="260.000000pt" height="260.000000pt" viewBox="0 0 260.000000 260.000000"
 preserveAspectRatio="xMidYMid meet">
<metadata>
Created by potrace 1.11, written by Peter Selinger 2001-2013
</metadata>
<g transform="translate(0.000000,260.000000) scale(0.100000,-0.100000)"
fill="#000000" stroke="none">
<path d="M2282 1965 c-29 -8 -72 -24 -96 -34 -130 -60 -234 -103 -256 -107
-14 -3 -79 -21 -145 -40 -133 -38 -228 -80 -324 -143 -68 -44 -84 -43 -94 5
-3 19 -1 24 11 19 12 -4 13 -3 2 10 -10 12 -10 15 5 15 11 0 15 5 12 15 -4 8
-1 17 5 21 7 4 8 3 4 -4 -4 -7 -3 -12 2 -12 5 0 12 9 15 20 4 14 0 20 -11 20
-12 0 -13 3 -4 12 9 9 4 18 -21 40 -18 16 -40 36 -49 45 -27 25 -82 11 -122
-31 -18 -20 -33 -44 -32 -53 3 -25 28 -73 35 -68 4 2 7 -4 8 -13 1 -10 2 -22
3 -27 3 -13 -11 -55 -17 -55 -7 0 -76 42 -83 50 -6 6 -106 55 -160 78 -47 20
-233 73 -238 68 -2 -3 -18 2 -37 9 -18 8 -35 12 -38 9 -2 -3 -24 4 -48 15
-266 121 -407 154 -503 117 -98 -38 -78 -127 60 -257 97 -92 104 -98 104 -92
0 3 8 -1 18 -9 9 -9 27 -19 40 -23 12 -3 34 -18 47 -31 14 -14 25 -22 25 -18
0 4 8 0 18 -8 26 -23 46 -33 38 -20 -5 8 -1 10 11 5 37 -14 68 -33 54 -33 -8
0 -11 -3 -8 -6 4 -4 13 -2 21 5 10 9 15 8 19 -2 3 -8 18 -13 36 -12 18 1 34
-2 37 -7 3 -4 25 -8 50 -8 33 0 43 -3 39 -12 -4 -7 0 -5 8 5 10 12 17 14 22 8
4 -8 12 -8 27 0 15 8 19 8 13 0 -4 -8 1 -10 17 -6 35 9 168 14 172 6 4 -6 -37
-10 -111 -13 -18 0 -33 -4 -33 -7 0 -4 -46 -5 -103 -3 -185 7 -371 6 -416 -1
-64 -10 -142 -57 -165 -99 -17 -30 -18 -39 -7 -65 7 -17 23 -36 36 -43 14 -7
22 -18 18 -23 -3 -6 -1 -7 5 -3 6 3 16 0 24 -7 7 -7 28 -19 46 -26 17 -7 32
-17 32 -22 0 -5 7 -9 15 -9 8 0 15 -4 15 -10 0 -5 7 -10 16 -10 8 0 13 -4 10
-9 -4 -5 4 -7 16 -3 16 4 19 2 13 -8 -6 -10 -4 -12 8 -7 10 3 17 2 17 -3 0 -6
9 -10 20 -10 11 0 34 -9 52 -20 23 -14 35 -16 45 -8 9 7 14 6 19 -7 5 -13 9
-14 15 -4 6 11 9 10 15 -4 3 -9 15 -17 25 -17 11 0 22 -7 25 -15 4 -9 14 -14
23 -13 9 2 15 -3 13 -9 -2 -11 17 -18 41 -14 4 0 7 -7 8 -16 0 -12 2 -13 6 -5
4 10 8 9 19 -5 10 -13 13 -14 14 -4 0 11 4 10 19 -3 15 -14 20 -14 25 -4 5 10
7 10 12 1 3 -7 17 -13 30 -13 14 0 23 -4 20 -8 -2 -4 7 -9 22 -10 14 -1 30 -6
36 -12 6 -6 16 -5 28 1 10 5 18 6 18 1 0 -10 36 -9 46 1 12 12 26 8 18 -5 -5
-9 -2 -9 9 1 14 11 17 11 17 0 0 -10 3 -10 12 -1 16 16 31 15 22 0 -6 -10 -5
-10 7 -1 8 6 28 17 44 22 28 10 29 10 11 -4 -11 -8 -15 -15 -9 -15 6 0 21 12
33 28 12 15 19 21 15 15 -4 -8 0 -13 10 -13 12 0 15 5 11 17 -4 10 -4 14 0 11
10 -10 46 11 39 23 -4 5 2 9 12 9 15 0 16 2 3 11 -12 9 -12 10 -1 7 18 -5 25
-126 9 -145 -6 -7 -6 -13 -1 -13 5 0 9 -29 9 -64 0 -69 17 -105 39 -86 9 8 15
8 20 0 5 -7 11 -5 20 7 9 13 10 22 3 30 -8 9 -7 13 3 13 11 0 11 2 -1 10 -13
9 -13 10 0 10 9 0 11 3 4 8 -6 4 -13 15 -17 24 -4 13 -2 15 11 11 15 -6 16 -5
2 12 -9 11 -10 16 -2 11 16 -10 15 0 -4 29 -12 19 -13 25 -3 25 10 0 10 3 2
11 -8 8 -8 20 -2 36 5 14 5 22 0 19 -5 -3 -11 1 -14 9 -4 9 -1 12 7 9 8 -3 17
0 22 7 4 7 3 10 -3 6 -6 -4 -14 0 -17 9 -5 12 -2 15 11 10 16 -6 15 -5 -1 13
-11 12 -14 21 -7 26 6 3 11 2 11 -4 0 -15 82 -91 98 -91 7 0 10 -4 7 -10 -3
-5 0 -7 8 -4 8 3 17 -2 21 -12 5 -13 9 -14 21 -4 10 9 15 9 15 1 0 -13 22 -10
32 4 5 6 8 3 8 -7 0 -14 5 -15 29 -8 15 4 34 4 41 0 8 -5 24 -1 39 8 14 10 22
12 19 6 -8 -13 48 -12 59 1 5 4 2 5 -6 0 -10 -5 -12 -4 -7 3 5 8 13 9 25 2 24
-12 34 -1 18 18 -9 13 -9 14 1 8 6 -4 18 -4 25 1 18 11 38 13 31 2 -3 -5 -9
-7 -14 -4 -5 3 -11 1 -14 -4 -7 -10 9 -9 36 4 10 4 16 10 13 14 -2 4 14 7 35
6 34 -1 38 1 27 14 -8 10 -8 13 0 8 6 -4 18 -1 26 7 8 8 17 13 20 10 3 -4 15
0 26 8 12 8 18 18 14 21 -3 4 1 7 10 7 9 0 21 8 26 18 13 24 68 55 76 42 4 -7
12 -7 24 0 10 5 22 6 26 2 5 -4 5 -1 0 7 -6 11 -3 13 14 8 19 -5 21 -3 9 11
-7 9 -8 14 -4 10 5 -4 16 -2 24 5 13 9 14 9 8 0 -4 -7 -3 -13 2 -13 6 0 13 7
16 16 3 9 12 14 18 12 7 -3 19 1 26 9 8 7 18 11 23 8 5 -4 6 1 3 9 -4 11 0 16
11 16 10 0 13 4 9 13 -5 8 -2 8 9 -2 9 -7 18 -11 18 -7 1 3 3 11 4 16 1 6 3
14 4 20 0 5 8 6 18 3 12 -5 14 -3 8 7 -6 10 -4 12 8 7 11 -4 17 -1 17 8 0 8 8
15 19 15 10 0 24 7 31 15 7 8 9 15 4 15 -5 0 2 7 14 16 13 9 19 20 15 27 -8
12 -9 17 -12 38 0 5 -6 7 -13 3 -8 -5 -9 -2 -5 9 4 10 2 17 -5 17 -6 0 -18 9
-27 19 -32 37 -135 63 -236 59 -66 -2 -92 0 -92 9 0 7 3 12 6 11 3 0 8 1 11 2
22 8 39 7 33 -3 -5 -8 -2 -8 9 0 8 7 18 9 22 5 4 -4 7 -2 6 3 -1 6 -2 17 -1
25 1 13 2 13 11 0 8 -13 10 -12 10 3 0 9 5 17 11 17 5 0 7 -6 4 -12 -4 -7 3
-2 14 12 11 14 21 29 21 34 0 5 7 3 15 -4 13 -11 14 -10 9 6 -4 10 -4 16 1 12
4 -4 15 -2 23 5 13 10 14 9 7 -3 -4 -8 2 -5 14 8 13 12 27 19 34 15 8 -4 8 -1
-1 9 -10 13 -10 18 -1 24 8 4 9 3 5 -4 -13 -22 13 -12 28 10 9 12 16 18 16 13
0 -5 13 12 30 38 16 26 32 47 35 47 4 0 -3 -15 -15 -32 l-22 -33 26 30 c14 17
26 34 26 38 0 5 6 5 13 1 9 -6 9 -5 1 7 -9 11 -9 17 1 26 7 6 16 9 19 6 3 -4
6 1 6 10 0 10 6 17 13 17 8 0 7 4 -3 10 -12 8 -12 10 5 10 15 0 17 2 6 9 -11
7 -11 9 0 13 19 6 -17 73 -51 95 -34 23 -160 27 -228 8z m-27 -405 c-3 -5 -12
-10 -18 -10 -7 0 -6 4 3 10 19 12 23 12 15 0z m240 -239 c3 -5 1 -12 -5 -16
-5 -3 -10 1 -10 9 0 18 6 21 15 7z m-31 -40 c3 -5 -1 -11 -9 -14 -9 -4 -12 -1
-8 9 6 16 10 17 17 5z m-1114 -255 c0 -3 -4 -8 -10 -11 -5 -3 -10 -1 -10 4 0
6 5 11 10 11 6 0 10 -2 10 -4z m10 -340 c0 -3 -4 -8 -10 -11 -5 -3 -10 -1 -10
4 0 6 5 11 10 11 6 0 10 -2 10 -4z"/>
<path d="M2100 1060 c-9 -6 -10 -10 -3 -10 6 0 15 5 18 10 8 12 4 12 -15 0z"/>
<path d="M1355 880 c-3 -5 -1 -10 4 -10 6 0 11 5 11 10 0 6 -2 10 -4 10 -3 0
-8 -4 -11 -10z"/>
</g>
</svg>
