<?xml version="1.0" standalone="no"?>
<!DOCTYPE svg PUBLIC "-//W3C//DTD SVG 1.1//EN" "http://www.w3.org/Graphics/SVG/1.1/DTD/svg11.dtd" >
<svg xmlns="http://www.w3.org/2000/svg">
<metadata>
Created by FontPrep 20130207 at Fri Oct 16 15:59:23 2015
 By Matthew Higley
Copyright (c) 2011, 2012, Pablo Impallari (www.impallari.com|impallari@gmail.com), Copyright (c) 2011, 2012, Edgar Tolentino, Copyright (c) 2011, 2012,  Igino Marini (mail@ikern.com), with Reserved Font Name "Dosis"
</metadata>
<defs>
<font id="fddfc0ef7578636bfa44cd869b0509bc" horiz-adv-x='1024' >
  <font-face 
    font-family="Dosis-ExtraBold"
    font-weight="800"
    font-stretch="normal"
    units-per-em="2048"
    panose-1="2 1 9 3 2 2 2 6 0 3"
    ascent="1638"
    descent="-410"
    x-height="975"
    cap-height="1498"
    bbox="-266 -485 2318 2064"
    underline-thickness="53"
    underline-position="-51"
    unicode-range="U+000D-FB02"
  />
<missing-glyph horiz-adv-x="835" 
d="M192 948q53 0 87 -47l139 -235l139 235q33 47 86 47t92 -32t39 -74t-20 -70l-197 -289l197 -288q20 -29 20 -71t-39 -74t-92 -32t-86 48l-139 235l-139 -235q-33 -48 -87 -48t-92 32t-38 74t20 71l197 288l-197 289q-20 29 -20 71q0 41 38 73q39 32 92 32z" />
    <glyph glyph-name="fi" unicode="fi" horiz-adv-x="1208" 
d="M633 1266q-221 0 -221 -193v-98h188q37 0 57 -34q21 -34 21 -80t-20 -79t-58 -32h-188v-654q0 -40 -48 -68t-115 -28t-111 27t-44 69v963q0 203 148 338t391 135q141 0 253 -44t111 -110q1 -46 -29 -116t-81 -70q-16 0 -88 37t-166 37zM801 879q-1 43 43 69t113 27
q69 0 115 -27t46 -69v-781q0 -38 -48 -68t-114 -30t-110 30t-45 68v781z" />
    <glyph glyph-name="fl" unicode="fl" horiz-adv-x="1232" 
d="M805 98v1141q-51 29 -149 29t-171 -50q-74 -50 -73 -145v-98h188q37 0 57 -34q21 -34 21 -80t-20 -79t-58 -32h-188v-654q0 -40 -48 -68t-115 -28t-111 27t-44 69v963q0 221 168 347t412 126q127 0 257 -33t191 -92v-1309q0 -38 -48 -68t-114 -30t-110 30q-45 30 -45 68z
" />
    <glyph glyph-name=".notdef" horiz-adv-x="835" 
d="M192 948q53 0 87 -47l139 -235l139 235q33 47 86 47t92 -32t39 -74t-20 -70l-197 -289l197 -288q20 -29 20 -71t-39 -74t-92 -32t-86 48l-139 235l-139 -235q-33 -48 -87 -48t-92 32t-38 74t20 71l197 288l-197 289q-20 29 -20 71q0 41 38 73q39 32 92 32z" />
    <glyph glyph-name=".null" horiz-adv-x="0" 
 />
    <glyph glyph-name="nonmarkingreturn" horiz-adv-x="681" 
 />
    <glyph glyph-name="CR" unicode="&#xd;" horiz-adv-x="0" 
 />
    <glyph glyph-name="space" unicode=" " horiz-adv-x="409" 
 />
    <glyph glyph-name="exclam" unicode="!" horiz-adv-x="468" 
d="M236 303q66 0 111 -47q46 -46 46 -110t-46 -111q-47 -47 -111 -47t-110 47t-46 111t45 111q45 46 111 46zM383 1372q0 -123 -14 -420t-15 -417q0 -43 -38 -67t-80 -24q-121 0 -121 91q-1 121 -15 417t-14 420q0 57 42 91t106 34t107 -34q42 -34 42 -91z" />
    <glyph glyph-name="quotedbl" unicode="&#x22;" horiz-adv-x="645" 
d="M485 1573q45 0 79 -22t34 -54l-20 -274q0 -33 -24 -56t-69 -23t-67 24q-22 22 -23 55l-20 274q1 33 33 55t77 21zM158 1573q45 0 79 -22t33 -54l-20 -274q0 -33 -24 -56t-68 -23t-68 24q-23 22 -22 55l-21 274q0 33 33 55t78 21z" />
    <glyph glyph-name="numbersign" unicode="#" horiz-adv-x="1468" 
d="M651 881l-43 -222h209l43 222h-209zM602 1460q55 0 96 -28t41 -89l-43 -227h211l54 279q6 29 45 47t93 18t96 -28t44 -89l-45 -227h143q35 0 62 -34t27 -84t-28 -84t-63 -33h-184l-45 -222h143q35 -1 63 -35t28 -83t-30 -83q-28 -34 -63 -34h-186l-57 -297
q-6 -29 -44 -49q-92 -48 -187 11q-50 32 -50 85l47 250h-207l-57 -297q-6 -29 -45 -49q-93 -48 -185 11q-49 32 -49 85l45 250h-143q-39 0 -63 32t-23 83q0 51 25 86t63 34h188l43 222h-145q-39 1 -63 31t-23 82q0 52 25 87t63 35h191l53 279q6 29 45 47t94 18z" />
    <glyph glyph-name="dollar" unicode="$" horiz-adv-x="1107" 
d="M385 1075q0 -74 131 -129v244q-131 -27 -131 -115zM756 422q0 86 -125 145v-274q125 29 125 129zM496 -51v51q-182 6 -315 86q-132 80 -132 180q0 56 42 114t89 58q48 0 142 -66t174 -81v332q-74 29 -117 47t-107 56q-186 112 -186 306t116 298t294 130v58q0 22 22 38
t54 16q30 0 55 -16q25 -18 24 -38v-52q246 -9 329 -92q38 -37 38 -88t-34 -108t-93 -58q-29 0 -97 35t-143 41v-299q68 -27 115 -47t106 -59q60 -39 96 -82q88 -103 87 -272q0 -168 -110 -283t-294 -146v-59q0 -20 -24 -38q-25 -17 -56 -17t-53 16t-22 39z" />
    <glyph glyph-name="percent" unicode="%" horiz-adv-x="1652" 
d="M1170 1581q53 0 91 -31q37 -32 37 -66t-8 -50l-721 -1477q-25 -51 -83 -51t-91 34t-33 63t11 50l719 1477q25 51 78 51zM1399 270v291q1 98 -101 98t-102 -98v-291q0 -98 102 -98t101 98zM1295 -6q-140 0 -223 66t-83 210v291q0 143 83 210t223 67q141 0 225 -67t84 -210
v-291q0 -143 -84 -210q-85 -66 -225 -66zM459 930v291q1 98 -101 98t-102 -98v-291q0 -98 102 -98t101 98zM664 930q0 -143 -84 -210t-225 -67q-140 0 -223 67t-83 210v291q0 143 83 210t223 67t225 -67q84 -67 84 -210v-291z" />
    <glyph glyph-name="ampersand" unicode="&#x26;" horiz-adv-x="1341" 
d="M607 256q120 0 196 66l-342 350q-103 -88 -103 -194t64 -164t185 -58zM987 677q0 93 25 129t114 36q88 0 116 -36t28 -110q0 -188 -119 -377l156 -159q18 -20 18 -59t-46 -81t-94 -40q-48 0 -85 36l-111 113q-180 -149 -418 -149t-386 134t-148 322q0 129 71 243t175 177
q-133 147 -133 309q0 163 129 265t317 102t312 -83t124 -173q0 -55 -48 -101q-112 -107 -222 28q-62 75 -145 75t-128 -37t-45 -104t56 -138q57 -71 164 -178l294 -305q29 68 29 161z" />
    <glyph glyph-name="quotesingle" unicode="'" horiz-adv-x="317" 
d="M158 1573q45 0 79 -22t33 -54l-20 -274q0 -33 -24 -56t-68 -23t-68 24q-23 22 -22 55l-21 274q0 33 33 55t78 21z" />
    <glyph glyph-name="parenleft" unicode="(" horiz-adv-x="733" 
d="M549 -41q-172 0 -309 90q-68 45 -110 124t-42 181v795q0 186 144 305t308 119t165 -137q0 -64 -27 -102t-70 -38q-92 0 -146 -45t-54 -102v-795q0 -119 200 -118q96 0 97 -142q0 -68 -33 -102t-123 -33z" />
    <glyph glyph-name="parenright" unicode=")" horiz-adv-x="733" 
d="M326 354v795q0 57 -54 102t-147 45q-43 0 -70 38t-26 102q-1 137 163 137t308 -119t145 -305v-795q0 -102 -42 -181t-109 -124q-136 -90 -309 -90q-90 0 -124 34q-33 34 -32 101q0 141 96 142q201 0 201 118z" />
    <glyph glyph-name="asterisk" unicode="*" horiz-adv-x="1005" 
d="M168 724q0 42 25 71l135 192l-213 62q-70 14 -70 104q0 43 33 78t80 35q16 0 30 -6l215 -70l-10 209q2 47 33 73t77 25t77 -25t32 -73l-8 -213l217 74q14 6 31 6q45 0 76 -40t30 -87q0 -76 -69 -90l-209 -50l143 -206q17 -19 17 -63t-39 -76t-89 -32t-75 40l-133 204
l-135 -207q-23 -37 -69 -37t-89 30t-43 72z" />
    <glyph glyph-name="plus" unicode="+" horiz-adv-x="931" 
d="M596 164q0 -44 -36 -70t-92 -26t-94 26t-38 70v198h-199q-43 0 -69 36t-27 92q0 56 27 95q27 38 69 38h199v196q0 39 39 69t93 30t91 -30t37 -69v-196h197q39 0 69 -39t29 -93q0 -53 -30 -91t-68 -38h-197v-198z" />
    <glyph glyph-name="comma" unicode="," horiz-adv-x="407" 
d="M203 303q63 0 110 -46t47 -110q0 -33 -127 -327q-16 -37 -57 -37q-41 1 -74 23q-50 34 -24 90l51 110q-82 47 -82 139q0 66 46 112q47 46 110 46z" />
    <glyph glyph-name="hyphen" unicode="-" horiz-adv-x="851" 
d="M160 362q-43 0 -70 36t-27 93q0 56 27 94t70 38h532q39 0 69 -39t30 -93q0 -53 -30 -91t-69 -38h-532z" />
    <glyph glyph-name="period" unicode="." horiz-adv-x="407" 
d="M202 303q66 0 112 -47q46 -46 46 -110t-46 -111t-110 -47t-111 47q-46 47 -46 111t45 111q44 46 110 46z" />
    <glyph glyph-name="slash" unicode="/" horiz-adv-x="1005" 
d="M842 1581q53 0 91 -31q38 -32 38 -66t-8 -50l-721 -1477q-25 -51 -83 -51t-91 34t-33 63t10 50l719 1477q25 51 78 51z" />
    <glyph glyph-name="zero" unicode="0" horiz-adv-x="1165" 
d="M583 844q47 0 75 -28t28 -75t-28 -75t-76 -29q-48 0 -75 29q-28 30 -28 76t28 74t76 28zM766 471v543q0 205 -183 205t-184 -205v-543q-1 -205 183 -205t184 205zM1085 471q0 -251 -137 -367t-365 -116t-366 116q-137 117 -137 367v543q0 250 137 366t365 117
q228 0 366 -117q137 -117 137 -366v-543z" />
    <glyph glyph-name="one" unicode="1" horiz-adv-x="630" 
d="M207 98v1043l-60 -37q-25 -16 -59 -16t-64 38q-28 38 -28 100t59 97l271 164q24 14 68 14q44 -1 88 -29t44 -71v-1303q0 -46 -47 -72t-113 -26t-112 26q-47 26 -47 72z" />
    <glyph glyph-name="two" unicode="2" horiz-adv-x="1058" 
d="M215 938q-143 0 -143 172t138 280t326 108t332 -116q143 -115 144 -309q0 -123 -66 -231t-158 -183q-92 -74 -185 -135q-93 -62 -159 -120t-65 -107v-18h536q39 0 68 -41q29 -40 29 -96t-29 -99t-68 -43h-729q-47 0 -93 29t-46 69v199q0 88 67 176q66 88 160 159
q94 72 190 140q230 165 228 291q0 57 -39 101t-111 44q-158 0 -159 -153q0 -47 -46 -82t-122 -35z" />
    <glyph glyph-name="three" unicode="3" horiz-adv-x="1093" 
d="M530 266q104 0 147 42q42 42 42 143v38q0 97 -50 131t-147 33q-92 0 -92 123t92 123q67 1 101 21q59 36 59 155q0 147 -152 148q-78 0 -114 -24t-37 -81q0 -57 -33 -87t-128 -30t-125 26t-30 103q0 143 114 255t353 112q457 0 457 -371q0 -116 -42 -208t-116 -127
q209 -78 209 -302v-38q0 -238 -142 -351q-142 -112 -380 -112t-360 118t-123 269q0 69 33 93q34 24 124 24t124 -24t34 -83q0 -119 182 -119z" />
    <glyph glyph-name="four" unicode="4" horiz-adv-x="1075" 
d="M575 98v217h-479q-47 0 -77 30q-29 30 -29 71t16 71l473 928q43 82 133 82q48 0 104 -35t56 -86q0 -14 -10 -39l-363 -727h176v144q-1 48 47 72t114 24t112 -25q47 -25 47 -71v-144h88q47 0 73 -44t26 -101t-31 -104q-31 -46 -68 -46h-88v-217q0 -46 -47 -72t-113 -26
t-113 26t-47 72z" />
    <glyph glyph-name="five" unicode="5" horiz-adv-x="1067" 
d="M528 944q230 0 366 -106t136 -340v-39q0 -242 -137 -357q-137 -114 -367 -114t-364 112t-135 269q0 81 40 111q39 30 127 30t120 -31t32 -89t50 -91t128 -33q186 0 187 193v39q0 100 -48 150t-135 50h-311q-67 0 -95 32t-28 93q0 14 4 60l56 516q10 98 57 98h653
q43 0 68 -41q24 -41 24 -98t-24 -98t-68 -41h-448l-21 -275h133z" />
    <glyph glyph-name="six" unicode="6" horiz-adv-x="1150" 
d="M399 485v-36q-1 -203 183 -203t184 203v18q0 207 -184 207q-183 -1 -183 -189zM666 920q184 0 302 -100t117 -331v-18q0 -250 -137 -367q-137 -116 -365 -116t-366 116q-137 117 -137 367v543q0 250 142 366t380 117q238 0 361 -119t122 -266q-1 -72 -35 -100t-114 -29
q-166 0 -166 117q0 55 -51 87t-127 32q-193 0 -193 -205v-185q83 91 267 91z" />
    <glyph glyph-name="seven" unicode="7" horiz-adv-x="1048" 
d="M1030 1399v-256q0 -72 -65 -195l-480 -917q-23 -43 -95 -43t-135 47q-62 47 -62 115q0 27 14 53l504 872v144h-367v-138q0 -41 -49 -69t-114 -29q-65 0 -111 29t-45 69v318q0 37 43 67t96 31h727q47 -1 93 -31t46 -67z" />
    <glyph glyph-name="eight" unicode="8" horiz-adv-x="1116" 
d="M559 1241q-145 0 -145 -148t145 -149q145 0 145 148t-145 149zM741 449v45q0 195 -182 194q-184 0 -184 -194v-45q0 -205 183 -205t183 205zM559 1497q209 0 331 -90t122 -274q0 -244 -203 -314q252 -86 252 -385v-24q0 -218 -137 -320q-136 -102 -364 -102t-366 102
t-139 320v24q0 299 254 385q-203 70 -203 314q0 184 122 274t331 90z" />
    <glyph glyph-name="nine" unicode="9" horiz-adv-x="1153" 
d="M754 999v37q0 203 -184 203t-183 -203v-18q-1 -207 183 -207t184 188zM488 565q-184 1 -303 101q-118 100 -117 329v19q0 250 137 366t365 117q228 0 366 -117t137 -366v-543q0 -250 -142 -367q-142 -116 -380 -116t-361 118t-122 267q0 73 34 101t115 28q166 0 166 -117
q0 -55 51 -87t127 -32q193 0 193 205v184q-82 -90 -266 -90z" />
    <glyph glyph-name="colon" unicode=":" horiz-adv-x="460" 
d="M387 707q0 -63 -46 -111t-111 -47q-64 0 -110 47t-46 112q0 64 44 110t110 46t112 -47t47 -110zM230 -12q-64 0 -110 47t-46 111t44 111q44 46 110 46t112 -47q46 -46 47 -110q0 -64 -46 -111t-111 -47z" />
    <glyph glyph-name="semicolon" unicode=";" horiz-adv-x="460" 
d="M80 708q0 64 45 110t111 46t111 -47q46 -47 46 -110t-46 -111q-47 -48 -111 -47q-64 0 -110 47t-46 112zM223 303q63 0 111 -46t47 -110q0 -33 -127 -327q-16 -37 -57 -37q-41 1 -74 23t-33 48t8 42l52 110q-82 47 -82 139q0 66 46 112t109 46z" />
    <glyph glyph-name="less" unicode="&#x3c;" horiz-adv-x="874" 
d="M39 567q0 74 63 115l521 338q12 10 50 10t83 -45t45 -103t-37 -81l-361 -234l361 -233q37 -23 37 -81t-45 -103q-45 -46 -83 -46t-50 11l-521 338q-63 40 -63 114z" />
    <glyph glyph-name="equal" unicode="=" horiz-adv-x="917" 
d="M96 691q0 56 27 94t70 38h532q39 0 69 -39t30 -93t-30 -91t-69 -37h-532q-43 0 -70 36t-27 92zM96 275q0 57 27 95t70 38h532q39 0 69 -39t30 -93t-30 -92q-30 -37 -69 -37h-532q-43 0 -70 36t-27 92z" />
    <glyph glyph-name="greater" unicode="&#x3e;" horiz-adv-x="874" 
d="M836 567q0 -74 -64 -114l-520 -338q-12 -11 -50 -11t-83 46t-45 103q0 58 37 81l360 233l-360 234q-37 23 -37 81t45 103t83 45t50 -10l520 -338q64 -41 64 -115z" />
    <glyph glyph-name="question" unicode="?" horiz-adv-x="927" 
d="M420 303q64 0 110 -47q46 -46 45 -110q0 -64 -46 -111q-45 -47 -111 -47t-111 47t-45 111t46 111q48 46 112 46zM881 1159q0 -197 -230 -375q-99 -80 -109 -158q-5 -32 -5 -98q0 -84 -121 -84q-63 0 -88 29t-25 109q0 193 137 311q6 6 54 43t65 55q18 19 41 57t23 76
q1 68 -51 104t-128 36t-120 -25t-60 -54q-38 -81 -100 -79q-47 0 -85 31t-38 86q0 98 106 186t299 88q193 -1 314 -97t121 -241z" />
    <glyph glyph-name="at" unicode="@" horiz-adv-x="1542" 
d="M918 344v45h-37q-197 0 -197 -129q0 -84 70 -84q56 0 110 52t54 116zM479 733q0 61 95 107t223 45q129 0 231 -74t102 -205v-350q8 -56 22 -76t36 -20q111 0 110 280q0 565 -501 566q-526 0 -527 -582q0 -545 465 -545q94 0 174 25t90 24q35 0 56 -30q20 -31 20 -60
q0 -66 -127 -98t-252 -33q-260 1 -442 187t-182 525t185 549t525 210t527 -186q186 -186 186 -500q0 -212 -84 -348t-242 -136q-90 0 -149 43t-72 113q-111 -150 -258 -150q-100 0 -178 62t-78 180q0 260 416 260h55v27q0 131 -151 131q-72 0 -133 -29t-70 -29q-29 0 -51 41
t-21 76z" />
    <glyph glyph-name="A" unicode="A" horiz-adv-x="1206" 
d="M453 561h299l-150 549zM221 0q-81 0 -147 39t-66 92q0 6 4 23l381 1249q17 51 75 79t134 28t134 -28t75 -79l383 -1249q4 -16 4 -23q0 -53 -66 -92t-147 -39q-80 0 -96 59l-70 256h-432l-70 -256q-16 -59 -96 -59z" />
    <glyph glyph-name="B" unicode="B" horiz-adv-x="1171" 
d="M428 1219v-285h215q55 0 86 42t31 99t-31 101t-86 43h-215zM428 279h205q164 0 164 188v33q0 188 -164 188h-205v-409zM111 96v1303q0 47 41 73t98 25h420q410 0 409 -364q0 -246 -174 -322q103 -39 157 -112t54 -216v-43q0 -229 -111 -335q-112 -105 -300 -105h-455
q-63 0 -101 28t-38 68z" />
    <glyph glyph-name="C" unicode="C" horiz-adv-x="1150" 
d="M414 1014v-543q0 -205 186 -205q116 0 150 75q23 55 30 130q8 96 158 96q88 1 125 -31t37 -120q0 -199 -144 -314q-144 -114 -367 -114q-222 0 -359 116q-136 117 -136 367v543q0 250 136 366t358 117q222 -1 367 -109q144 -108 145 -298q0 -88 -37 -120t-123 -32
q-154 0 -160 96q-6 184 -186 184t-180 -204z" />
    <glyph glyph-name="D" unicode="D" horiz-adv-x="1208" 
d="M612 1219h-182v-940h182q184 0 185 204v531q-1 205 -185 205zM250 1497h362q228 0 366 -117t138 -366v-531q0 -251 -137 -367t-367 -116h-362q-61 0 -100 29t-39 67v1305q0 39 39 67t100 29z" />
    <glyph glyph-name="E" unicode="E" horiz-adv-x="1103" 
d="M430 1219v-347h307q45 0 71 -36t26 -86q0 -49 -25 -86t-72 -37h-307v-348h549q45 0 71 -41q26 -40 26 -98t-26 -99q-24 -41 -71 -41h-729q-57 0 -98 26t-41 72v1301q0 47 41 73t98 25h729q47 0 72 -41t25 -98t-26 -98t-71 -41h-549z" />
    <glyph glyph-name="F" unicode="F" horiz-adv-x="1054" 
d="M111 98v1301q0 47 41 73t98 25h711q47 0 71 -41t25 -98q0 -57 -26 -98t-70 -41h-531v-347h309q45 0 71 -36t26 -86q0 -49 -25 -86t-72 -37h-309v-529q0 -46 -47 -72t-113 -26t-112 26t-47 72z" />
    <glyph glyph-name="G" unicode="G" horiz-adv-x="1173" 
d="M414 1014v-543q0 -205 183 -205t183 205v70h-121q-45 0 -71 36t-25 85q0 49 27 87t69 37h345q44 0 70 -30t26 -70v-215q0 -250 -137 -367q-137 -116 -365 -116t-367 116q-137 117 -137 367v543q0 250 136 366t358 117q222 -1 367 -109q144 -108 145 -298q0 -88 -37 -120
t-123 -32q-158 0 -160 96q0 104 -45 143q-45 40 -137 42q-184 0 -184 -205z" />
    <glyph glyph-name="H" unicode="H" horiz-adv-x="1267" 
d="M838 98v555h-408v-555q0 -46 -47 -72t-113 -26t-112 26t-47 72v1303q0 47 47 72q46 25 112 25t113 -26q47 -24 47 -71v-502h408v502q0 47 47 72t113 25t112 -26q47 -24 47 -71v-1303q0 -46 -47 -72t-113 -26q-67 0 -113 26t-46 72z" />
    <glyph glyph-name="I" unicode="I" horiz-adv-x="540" 
d="M111 98v1303q0 47 47 72q46 25 112 25t113 -26q47 -24 47 -71v-1303q0 -46 -47 -72t-113 -26t-112 26t-47 72z" />
    <glyph glyph-name="J" unicode="J" horiz-adv-x="1122" 
d="M698 1219h-178q-44 0 -70 41t-26 98t25 98t71 41h359q57 0 98 -26t41 -72v-928q0 -250 -136 -367q-136 -116 -358 -116t-367 114q-144 114 -145 314q0 88 37 120t125 31q150 0 158 -96q14 -153 85 -186q38 -18 95 -19q186 0 186 205v748z" />
    <glyph glyph-name="K" unicode="K" horiz-adv-x="1159" 
d="M111 98v1303q0 47 47 72q46 25 112 25t113 -26q47 -24 47 -71v-492l383 543q31 45 89 45t120 -52t63 -112q0 -33 -20 -61l-336 -422l424 -649q16 -27 16 -54q0 -59 -61 -109t-133 -50t-109 59l-350 533l-86 -111v-371q0 -46 -47 -72t-113 -26t-112 26t-47 72z" />
    <glyph glyph-name="L" unicode="L" horiz-adv-x="1007" 
d="M897 0h-647q-57 0 -98 26t-41 72v1303q0 47 47 72q46 25 112 25t113 -26q47 -24 47 -71v-1122h467q43 0 68 -41q25 -40 25 -98t-26 -99q-24 -41 -67 -41z" />
    <glyph glyph-name="M" unicode="M" horiz-adv-x="1458" 
d="M111 1337q-1 160 171 160q80 0 128 -28t108 -132l211 -368l211 368q60 104 108 132t128 28q172 0 172 -160v-1239q0 -46 -48 -72t-112 -26q-66 0 -113 26t-47 72v768l-197 -336q-35 -59 -105 -59t-101 59l-195 357v-789q0 -46 -47 -72t-113 -26t-112 26t-47 72v1239z" />
    <glyph glyph-name="N" unicode="N" horiz-adv-x="1267" 
d="M997 0q-131 0 -178 86l-389 709v-697q0 -46 -47 -72t-113 -26t-112 26t-47 72v1301q0 47 47 73q48 26 126 25q78 0 122 -27t100 -133l332 -632v696q0 47 47 72t113 25t112 -26q47 -24 47 -71v-1303q0 -46 -47 -72t-113 -26z" />
    <glyph glyph-name="O" unicode="O" horiz-adv-x="1193" 
d="M780 471v543q0 205 -183 205t-183 -205v-543q0 -205 183 -205t183 205zM597 -12q-228 0 -366 116q-137 117 -137 367v543q0 250 137 366t365 117q228 0 366 -117t138 -366v-543q0 -250 -137 -367q-138 -116 -366 -116z" />
    <glyph glyph-name="P" unicode="P" horiz-adv-x="1165" 
d="M633 1219h-203v-433h203q184 0 184 205v23q0 205 -184 205zM111 98v1303q1 39 33 67t85 29h424q219 0 351 -114t133 -357v-10q-1 -244 -139 -360t-365 -115h-203v-443q0 -46 -47 -72t-113 -26t-112 26t-47 72z" />
    <glyph glyph-name="Q" unicode="Q" horiz-adv-x="1193" 
d="M780 471v543q0 205 -183 205t-183 -205v-543q0 -137 84 -184v90q0 47 28 72q29 25 70 25t70 -26q29 -24 28 -71v-90q86 49 86 184zM596 -223q-39 -1 -69 25t-29 73v119q-186 22 -295 138t-109 339v543q0 252 136 368t366 115q230 0 366 -116q138 -116 138 -367v-543
q0 -221 -110 -338t-296 -139v-119q0 -47 -29 -73q-30 -25 -69 -25z" />
    <glyph glyph-name="R" unicode="R" horiz-adv-x="1196" 
d="M633 1219h-203v-381h203q90 0 137 44t47 146t-47 146t-137 45zM111 98v1303q-1 39 27 67t71 29h424q504 0 504 -438q0 -319 -248 -416l250 -453q10 -14 10 -36q0 -58 -65 -112q-64 -54 -136 -54t-102 59l-281 545h-135v-494q0 -46 -47 -72t-113 -26t-112 26t-47 72z" />
    <glyph glyph-name="S" unicode="S" horiz-adv-x="1091" 
d="M534 266q72 0 132 34q59 34 59 102t-67 118q-68 51 -162 93q-94 43 -190 95t-164 148q-67 96 -66 229q0 213 153 319q154 105 371 105q118 0 217 -23q191 -44 191 -157q0 -53 -34 -110t-93 -58q-25 0 -105 39t-179 39t-151 -36t-51 -85q0 -91 172 -157t310 -165
q71 -52 119 -146t48 -216q0 -215 -141 -335q-141 -119 -355 -119t-362 82q-147 82 -147 184q0 57 42 114q42 58 96 58q53 0 139 -76q32 -28 90 -52q56 -24 128 -24z" />
    <glyph glyph-name="T" unicode="T" horiz-adv-x="1110" 
d="M113 1497h884q47 0 72 -42t25 -101q0 -60 -26 -102t-71 -42h-282v-1112q0 -46 -47 -72t-113 -26t-113 26t-47 72v1112h-282q-45 0 -71 42t-26 102t25 101q25 42 72 42z" />
    <glyph glyph-name="U" unicode="U" horiz-adv-x="1241" 
d="M817 471v930q0 47 46 72t113 25t114 -26q47 -24 47 -71v-930q1 -250 -141 -367q-142 -116 -376 -116t-375 116q-140 116 -141 367v930q0 47 46 72t114 25q66 0 113 -26q47 -24 47 -71v-930q0 -205 196 -205t197 205z" />
    <glyph glyph-name="V" unicode="V" horiz-adv-x="1206" 
d="M8 1366q0 53 67 92t147 39t95 -59l287 -1051l285 1051q16 59 96 59t147 -39t66 -92q0 -6 -4 -23l-381 -1249q-17 -51 -75 -79q-58 -27 -134 -27t-134 28t-75 78l-383 1249q-4 16 -4 23z" />
    <glyph glyph-name="W" unicode="W" horiz-adv-x="1884" 
d="M6 1370q0 49 67 88t147 39t95 -59l312 -1051l161 692q8 39 54 62t100 23q55 0 100 -24q45 -22 54 -61l161 -692l312 1051q16 59 96 59q81 0 147 -39t66 -88q0 -15 -4 -27l-408 -1249q-18 -51 -76 -79q-58 -27 -134 -27t-136 28q-59 28 -71 78l-107 486l-106 -486
q-12 -51 -72 -79q-60 -27 -135 -27q-76 0 -135 28t-76 78l-408 1249q-4 12 -4 27z" />
    <glyph glyph-name="X" unicode="X" horiz-adv-x="1208" 
d="M16 145q0 27 19 58l354 547l-340 544q-20 33 -20 64q0 61 67 106q68 45 138 45t98 -53l272 -475l273 475q29 53 99 53t136 -45q68 -45 68 -106q0 -31 -21 -64l-340 -544l355 -547q18 -31 18 -58q0 -61 -71 -109t-135 -48t-83 32l-299 508l-299 -508q-20 -32 -84 -32
q-65 0 -135 48t-70 109z" />
    <glyph glyph-name="Y" unicode="Y" horiz-adv-x="1208" 
d="M444 98v514q0 16 -8 29l-424 702q-4 8 -4 23q0 53 73 92t127 39t72 -13t37 -46l287 -527l285 527q31 59 97 59t140 -39q72 -39 72 -92q0 -14 -4 -23l-422 -702q-8 -12 -8 -29v-514q0 -46 -47 -72t-113 -26t-113 26t-47 72z" />
    <glyph glyph-name="Z" unicode="Z" horiz-adv-x="1097" 
d="M983 279q43 0 70 -43q27 -42 27 -96t-28 -97q-26 -43 -69 -43h-872q-92 0 -93 84q0 53 35 113l578 1022h-475q-45 0 -71 41t-26 98t25 98t72 41h790q92 0 92 -84q1 -50 -34 -113l-578 -1021h557z" />
    <glyph glyph-name="bracketleft" unicode="[" horiz-adv-x="727" 
d="M422 1294v-1058h180q45 0 71 -41q25 -41 25 -99t-24 -98q-24 -41 -72 -41h-360q-57 0 -99 26q-41 26 -41 72v1420q0 47 41 73t99 25h360q47 0 72 -41q24 -41 24 -98t-25 -99q-26 -41 -71 -41h-180z" />
    <glyph glyph-name="backslash" unicode="\" horiz-adv-x="782" 
d="M37 1454q0 28 35 60q34 32 94 32t82 -61l491 -1348q4 -11 4 -41q-1 -30 -35 -64t-79 -34q-69 -1 -94 65l-492 1348q-6 14 -6 43z" />
    <glyph glyph-name="bracketright" unicode="]" horiz-adv-x="727" 
d="M305 236v1058h-180q-45 0 -71 41t-26 99t25 98q25 41 72 41h360q57 0 99 -26t41 -72v-1420q0 -47 -41 -73t-99 -25h-360q-47 0 -72 41t-25 98t26 99q26 41 71 41h180z" />
    <glyph glyph-name="asciicircum" unicode="^" horiz-adv-x="598" 
d="M55 1165q-19 0 -37 29t-18 78t51 78l213 114q36 18 70 0l213 -114q51 -29 51 -78t-18 -78t-36 -29t-32 6l-213 115l-213 -115q-12 -6 -31 -6z" />
    <glyph glyph-name="underscore" unicode="_" horiz-adv-x="626" 
d="M-111 -132q0 56 27 94t70 38h655q39 0 69 -39t30 -93t-30 -91t-69 -37h-655q-43 0 -70 36t-27 92z" />
    <glyph glyph-name="grave" unicode="`" horiz-adv-x="452" 
d="M0 1352q0 46 29 85q29 38 67 38q14 0 29 -7l287 -133q41 -20 41 -67t-28 -85t-67 -38q-10 0 -30 8l-287 133q-41 20 -41 66z" />
    <glyph glyph-name="a" unicode="a" horiz-adv-x="991" 
d="M590 399v9h-8q-68 0 -112 -6t-79 -32t-35 -73q0 -86 80 -86q51 0 103 57q51 57 51 131zM440 987q236 0 352 -115t115 -286v-488q0 -42 -44 -70t-107 -28t-105 29q-41 29 -41 69v45q-141 -164 -311 -163q-113 0 -187 70t-75 202q0 170 124 240t355 69h74v21q0 61 -37 106
t-126 45t-153 -34t-77 -33q-49 0 -78 48t-29 109q0 68 114 116t236 48z" />
    <glyph glyph-name="b" unicode="b" horiz-adv-x="1091" 
d="M717 414v143q0 59 -44 107q-45 48 -105 47q-60 0 -108 -43t-48 -111v-170q0 -33 49 -82t108 -49t104 48q44 49 44 110zM94 1436q0 44 44 70t113 26t115 -27t46 -69v-605q35 66 103 111q69 45 157 45q150 0 256 -127t106 -303v-143q0 -172 -108 -303t-248 -131
q-94 0 -174 48t-113 115v-45q0 -38 -42 -68q-41 -30 -103 -30t-107 30t-45 68v1338z" />
    <glyph glyph-name="c" unicode="c" horiz-adv-x="905" 
d="M522 -20q-233 0 -349 118t-116 316v139q0 195 116 315t345 119q146 0 246 -50t100 -120q0 -51 -36 -103t-87 -52q-16 0 -74 24t-122 25q-170 0 -170 -158v-139q0 -158 172 -158q61 0 117 28t77 27q59 0 97 -49t39 -102q0 -72 -105 -126t-250 -54z" />
    <glyph glyph-name="d" unicode="d" horiz-adv-x="1091" 
d="M375 557v-143q0 -62 44 -110t103 -48t109 49q49 49 49 82v170q0 68 -48 111t-108 43q-60 1 -105 -47q-44 -48 -44 -107zM680 1436q0 44 46 70t115 26t113 -27t43 -69v-1338q0 -38 -45 -68t-106 -30t-104 31q-42 31 -42 67v45q-32 -67 -112 -115t-174 -48q-141 0 -249 131
t-108 303v143q1 176 107 303t256 127q88 0 157 -45t103 -111v605z" />
    <glyph glyph-name="e" unicode="e" 
d="M373 586h254q43 0 43 53t-44 86t-104 33t-105 -33q-44 -33 -44 -90v-49zM55 563q0 174 138 299q139 125 327 125t318 -109q129 -110 129 -280q0 -130 -60 -160t-139 -30h-395v-13q0 -76 57 -122q56 -46 140 -46t162 38t106 38q51 0 84 -48t32 -91q0 -63 -109 -124
q-110 -60 -272 -60q-229 0 -373 120t-145 314v149z" />
    <glyph glyph-name="f" unicode="f" horiz-adv-x="724" 
d="M412 1155v-180h231q37 0 57 -34t20 -80t-20 -79t-57 -32h-231v-654q0 -40 -48 -68t-115 -28t-111 27t-44 69v1024q0 176 106 294t255 118h147q57 0 88 -40t31 -94t-31 -93t-88 -39h-78q-112 0 -112 -111z" />
    <glyph glyph-name="g" unicode="g" horiz-adv-x="978" 
d="M647 -129q0 45 -22 73q-35 45 -219 64q-82 -42 -82 -112t48 -105t114 -35t113 35q48 35 48 80zM598 618v31q0 66 -31 110t-85 44t-85 -44t-30 -110v-28q1 -70 31 -115t84 -45q54 -1 85 43t31 114zM479 276q-68 0 -123 13q-8 -14 -8 -27q0 -29 62 -43t152 -26
q89 -12 178 -36t152 -91q62 -68 62 -177q0 -169 -135 -251t-327 -82t-330 80q-137 80 -137 216t137 214q-74 43 -74 130t105 162q-133 98 -134 260v31q0 150 116 244t304 94q129 0 232 -49q35 84 61 114q28 30 68 30t74 -32t34 -64t-22 -50t-52 -43q-31 -25 -47 -41
q78 -84 78 -203v-31q0 -146 -120 -244t-306 -98z" />
    <glyph glyph-name="h" unicode="h" horiz-adv-x="1095" 
d="M412 557v-459q0 -38 -48 -68t-114 -30t-111 30t-45 68v1338q0 44 44 70t112 26t115 -27t47 -69v-605q31 66 97 111q67 45 157 45q141 0 244 -127t104 -303v-459q0 -46 -47 -72t-111 -26t-112 27t-48 71v459q0 59 -44 107t-100 47q-56 0 -98 -42t-42 -112z" />
    <glyph glyph-name="i" unicode="i" horiz-adv-x="499" 
d="M249 1456q69 0 118 -43t49 -102t-49 -103t-118 -45q-69 0 -118 44q-49 43 -49 103t49 103t118 43zM92 879q0 43 44 69t113 27q69 0 115 -27t46 -69v-781q0 -38 -48 -68t-114 -30t-111 30t-45 68v781z" />
    <glyph glyph-name="j" unicode="j" horiz-adv-x="501" 
d="M92 879q0 43 44 69t113 27q69 0 115 -27t46 -69v-936q0 -175 -86 -281t-246 -106t-160 129q0 61 34 99t77 38t53 30t10 91v936zM249 1456q69 0 118 -43t49 -102t-49 -103t-118 -45q-69 0 -118 44q-49 43 -49 103t49 103t118 43z" />
    <glyph glyph-name="k" unicode="k" horiz-adv-x="1042" 
d="M1022 137q0 -53 -61 -105t-115 -52t-82 38l-248 367l-104 -96v-191q0 -38 -48 -68t-114 -30t-111 30t-45 68v1338q0 44 44 70t113 26t115 -27t46 -69v-803l340 330q24 25 68 25t95 -51q51 -50 51 -91t-24 -66l-217 -200l281 -394q16 -27 16 -49z" />
    <glyph glyph-name="l" unicode="l" horiz-adv-x="538" 
d="M111 1436q-1 44 43 70t113 26t115 -27t46 -69v-1338q0 -38 -47 -68t-114 -30t-111 30t-45 68v1338z" />
    <glyph glyph-name="m" unicode="m" horiz-adv-x="1665" 
d="M678 96v459q0 72 -42 114t-96 42t-92 -40t-38 -114v-459q0 -38 -48 -68t-114 -30t-111 30t-45 68v781q0 43 44 69t108 27q64 0 104 -27q41 -27 41 -69v-48q88 156 270 156q82 0 147 -56t95 -149q51 100 133 152t174 53q154 0 264 -117t109 -313v-459q0 -38 -47 -68
q-46 -30 -110 -30t-112 31t-48 67v459q0 74 -41 115t-95 41t-94 -41q-39 -41 -39 -115v-461q0 -48 -47 -72t-110 -24q-64 0 -112 24t-48 72z" />
    <glyph glyph-name="n" unicode="n" horiz-adv-x="1093" 
d="M410 557v-459q0 -38 -48 -68t-114 -30t-111 30t-45 68v781q0 43 44 69t108 27q64 0 104 -27q41 -27 41 -69v-48q33 66 106 111t169 45q141 0 244 -127t104 -303v-459q0 -46 -47 -72t-111 -26t-112 27t-48 71v459q0 59 -44 107t-100 47q-56 0 -98 -42t-42 -112z" />
    <glyph glyph-name="o" unicode="o" horiz-adv-x="1042" 
d="M670 414v143q0 59 -45 107t-105 47q-60 0 -103 -47q-44 -47 -44 -107v-143q0 -62 43 -110t104 -48t106 48q44 49 44 110zM55 557q-1 174 137 302t327 128t329 -127t139 -303v-143q0 -172 -140 -303q-141 -131 -327 -131t-325 131t-140 303v143z" />
    <glyph glyph-name="p" unicode="p" horiz-adv-x="1091" 
d="M717 414v143q0 59 -46 107q-45 48 -107 47q-62 0 -107 -42t-45 -112v-170q0 -33 46 -82t106 -49t107 48q46 49 46 110zM246 975q63 0 104 -27t41 -69v-48q39 66 113 111t164 45q154 0 260 -126t106 -304v-143q0 -172 -108 -303t-248 -131q-86 0 -161 48t-105 115v-489
q0 -37 -48 -68q-48 -30 -114 -30t-111 30t-45 68v1225q0 43 44 69t108 27z" />
    <glyph glyph-name="q" unicode="q" horiz-adv-x="1091" 
d="M375 557v-143q0 -62 46 -110t106 -48t107 49q46 49 46 82v170q0 70 -45 112t-107 42q-62 1 -107 -47q-46 -48 -46 -107zM846 975q63 0 107 -27t44 -69v-1225q0 -39 -45 -69q-44 -29 -110 -29t-114 30t-48 68v489q-31 -67 -106 -115t-160 -48q-141 0 -249 131t-108 303
v143q1 178 107 304t260 126q90 0 164 -45t112 -111v48q0 43 42 69t104 27z" />
    <glyph glyph-name="r" unicode="r" horiz-adv-x="806" 
d="M692 711h-59q-88 0 -156 -85t-67 -220v-308q0 -38 -48 -68t-114 -30t-111 30t-45 68v781q0 43 44 69t108 27q64 0 104 -27q41 -27 41 -69v-76q33 74 101 129q69 55 143 55h59q45 0 79 -41t34 -97t-34 -97t-79 -41z" />
    <glyph glyph-name="s" unicode="s" horiz-adv-x="878" 
d="M551 283q0 62 -169 100q-72 16 -142 43t-119 88t-49 175t92 206t293 92q137 0 242 -42t106 -105q0 -42 -33 -96t-82 -54q-20 0 -94 31t-133 31t-89 -20t-30 -48q0 -29 50 -47q50 -17 121 -35t141 -46t121 -94q50 -66 50 -167q0 -147 -103 -231q-104 -84 -278 -84t-288 56
t-115 132q0 43 31 91q30 48 64 48q34 -1 70 -23q111 -70 227 -69q116 0 116 68z" />
    <glyph glyph-name="t" unicode="t" horiz-adv-x="745" 
d="M406 750v-404q0 -45 18 -62t65 -18h89q66 0 100 -40t35 -94q0 -54 -35 -93t-100 -39h-89q-401 0 -401 346v957q0 41 49 69t111 27q62 0 109 -28q48 -28 49 -68v-328h231q37 0 57 -34t20 -80t-20 -79t-57 -32h-231z" />
    <glyph glyph-name="u" unicode="u" horiz-adv-x="1095" 
d="M1014 410q0 -172 -138 -301t-328 -129q-189 0 -328 129q-138 129 -138 301v467q0 37 47 67t111 31q64 0 111 -31q48 -31 48 -67v-467q0 -58 45 -106q44 -48 104 -48t104 47t44 107v469q0 39 48 67t114 29q66 0 111 -29t45 -67v-469z" />
    <glyph glyph-name="v" unicode="v" horiz-adv-x="1030" 
d="M2 856q0 51 74 92t142 41t87 -51l211 -535l211 535q19 51 81 51t141 -42t79 -93q0 -18 -8 -37l-361 -788q-25 -55 -143 -55t-143 55l-361 788q-10 16 -10 39z" />
    <glyph glyph-name="w" unicode="w" horiz-adv-x="1437" 
d="M4 860q0 51 71 89t141 38t85 -49l182 -520l131 440q18 62 104 62t105 -62l131 -440l183 520q16 49 85 49q70 0 140 -39t70 -92q-1 -23 -9 -39l-315 -788q-22 -55 -128 -55t-126 55l-135 356l-135 -356q-20 -55 -126 -55t-128 55l-316 788q-10 27 -10 43z" />
    <glyph glyph-name="x" unicode="x" horiz-adv-x="1009" 
d="M37 137q0 27 18 53l232 308l-209 278q-20 25 -21 51q0 51 76 105t131 55q55 0 76 -33l164 -268l166 266q20 35 75 35t131 -54t76 -106q0 -23 -20 -51l-211 -280l233 -306q18 -22 18 -62t-72 -94q-73 -54 -129 -54t-79 32l-188 283l-187 -283q-25 -32 -77 -32t-127 53
q-76 53 -76 104z" />
    <glyph glyph-name="y" unicode="y" 
d="M2 838q0 57 74 104t142 47t87 -51l232 -555l170 555q20 51 82 51q63 0 141 -48t78 -110q0 -20 -9 -34l-290 -725q-10 -29 -36 -96q-26 -66 -37 -96t-39 -84q-27 -54 -51 -81q-79 -90 -151 -116q-121 -43 -220 -43q-101 0 -137 26t-36 109q0 131 78 131q291 0 291 262
l-359 713q-10 20 -10 41z" />
    <glyph glyph-name="z" unicode="z" horiz-adv-x="917" 
d="M799 256q37 0 63 -38t27 -91q0 -53 -25 -90t-65 -37h-658q-53 0 -79 33q-66 84 30 209l363 477h-314q-37 0 -63 38t-27 91q0 53 25 90t65 37h613q42 0 70 -27q28 -28 28 -88t-51 -127l-365 -477h363z" />
    <glyph glyph-name="braceleft" unicode="{" horiz-adv-x="778" 
d="M646 227q62 0 85 -42t23 -91q0 -135 -176 -135t-314 97q-137 97 -137 239q0 39 15 171q16 132 16 156q1 42 -62 60q-23 6 -42 34t-19 77t19 75t42 31q60 16 62 62q0 18 -16 117q-15 99 -15 136q0 137 141 248t307 111q95 0 137 -40t42 -94t-26 -94t-84 -40t-128 -31
t-70 -103l31 -251q-1 -43 -27 -85t-47 -49q25 -6 50 -46t24 -85l-31 -319q0 -57 69 -83t131 -26z" />
    <glyph glyph-name="bar" unicode="|" horiz-adv-x="522" 
d="M102 1477q0 43 44 69t113 27q69 0 115 -27t46 -69v-1422q0 -37 -47 -67t-114 -31q-67 0 -112 30t-45 68v1422z" />
    <glyph glyph-name="braceright" unicode="}" horiz-adv-x="778" 
d="M133 1305q-57 0 -83 40t-26 94t42 94q41 40 137 40q166 0 307 -111t141 -248q0 -37 -15 -136q-15 -100 -15 -122q0 -39 61 -57q23 -5 42 -31t19 -75t-19 -77t-42 -34q-61 -16 -61 -66q0 -18 15 -150t15 -171q0 -141 -137 -239t-313 -97q-176 0 -176 135q0 49 22 91
q23 42 85 42t132 26q68 26 68 83l-31 319q0 45 25 85t49 46q-20 6 -47 48t-27 86l31 251q0 72 -71 103t-128 31z" />
    <glyph glyph-name="asciitilde" unicode="~" horiz-adv-x="841" 
d="M309 449q-45 0 -100 -22t-74 -21q-41 0 -59 36t-19 64q0 150 174 149q63 1 153 -27t142 -28q50 0 106 22t75 21q41 0 59 -36t18 -64q0 -150 -174 -150q-78 0 -167 28t-134 28z" />
    <glyph glyph-name="uni00A0" unicode="&#xa0;" horiz-adv-x="409" 
 />
    <glyph glyph-name="exclamdown" unicode="&#xa1;" horiz-adv-x="468" 
d="M389 1338q0 -64 -45 -110q-44 -46 -110 -46t-112 47t-46 110t46 111t110 47q64 0 111 -47q46 -47 46 -112zM86 113q0 121 14 417t15 420q0 43 38 67t80 23q121 0 121 -90q0 -123 14 -420t15 -417q0 -57 -42 -91q-43 -34 -107 -34t-106 34t-42 91z" />
    <glyph glyph-name="cent" unicode="&#xa2;" horiz-adv-x="917" 
d="M324 778v-37q0 -137 120 -168v373q-120 -31 -120 -168zM532 1423q37 1 64 -23t27 -59v-139q103 -16 167 -61t64 -97t-36 -99q-36 -48 -87 -48q-24 -1 -57 19t-51 26v-362q16 8 52 30t56 21q59 0 97 -46q38 -45 38 -99t-68 -102t-175 -69v-149q0 -33 -28 -60
q-28 -26 -64 -26q-35 0 -61 26t-26 60v143q-201 18 -299 134t-98 298v37q0 180 99 297t298 135v131q0 37 26 59t62 23z" />
    <glyph glyph-name="sterling" unicode="&#xa3;" horiz-adv-x="1157" 
d="M1001 279q43 0 68 -41q25 -40 25 -98t-25 -99t-68 -41h-868q-43 0 -67 41t-25 98q0 57 25 99t67 41h103l65 471h-96q-37 0 -58 32q-20 33 -20 79t20 80t58 34h129l20 141q29 199 189 328t362 129h86q47 0 75 -41t28 -96q0 -56 -28 -98t-75 -42h-96q-199 0 -223 -180
l-21 -141h219q38 0 58 -34t20 -80t-20 -79t-58 -32h-252l-67 -471h450z" />
    <glyph glyph-name="currency" unicode="&#xa4;" horiz-adv-x="901" 
d="M651 965q0 80 -59 142t-141 62q-83 0 -141 -61t-58 -142q0 -82 58 -144t140 -62t142 62q59 62 59 143zM450 1335q122 0 224 -80l49 45q12 10 33 10t40 -20t19 -38t-12 -31l-53 -50q66 -91 66 -203t-66 -206l53 -49q12 -12 12 -31t-19 -39q-20 -20 -40 -20t-33 10l-49 45
q-100 -84 -222 -84t-225 82l-49 -43q-12 -10 -32 -10t-41 20q-19 21 -19 39t12 31l54 49q-63 92 -64 205q0 113 64 204l-54 50q-12 13 -12 31t19 38t40 20t33 -10l49 -45q101 80 223 80z" />
    <glyph glyph-name="yen" unicode="&#xa5;" horiz-adv-x="1202" 
d="M276 635q-44 -1 -70 29t-26 78t27 80t69 32h95l-320 489q-10 12 -10 37q0 47 64 89q65 42 112 42t65 -17t37 -56l283 -514l281 514q19 39 37 56t64 17t112 -43t65 -86q0 -23 -10 -39l-320 -489h101q38 0 68 -33t30 -79t-30 -76t-68 -31h-170v-123h170q38 0 68 -33t30 -78
t-30 -77t-68 -31h-170v-195q0 -46 -47 -72t-113 -26t-113 26t-47 72v195h-166q-44 0 -70 30q-26 29 -26 77t27 80t69 32h166v123h-166z" />
    <glyph glyph-name="brokenbar" unicode="&#xa6;" horiz-adv-x="522" 
d="M102 549q0 43 44 69t113 27q69 0 115 -27t46 -69v-494q0 -37 -47 -67t-114 -31q-67 0 -112 30t-45 68v494zM102 1477q0 43 44 69t113 27q69 0 115 -27t46 -69v-494q0 -37 -47 -68t-114 -31t-112 30t-45 69v494z" />
    <glyph glyph-name="section" unicode="&#xa7;" horiz-adv-x="993" 
d="M668 545q0 67 -39 113t-87 66q-170 72 -204 99v-37q0 -66 39 -112t87 -68q173 -74 204 -98v37zM78 854v205q0 337 276 419q68 19 142 19q184 0 285 -105t102 -241q0 -69 -29 -95t-88 -26q-133 0 -133 96q0 117 -127 117q-70 0 -104 -34t-34 -85t58 -91q57 -40 139 -75
q82 -36 163 -82t138 -142t58 -232v-205q0 -336 -290 -419q-71 -19 -149 -19q-193 0 -301 105t-106 239q0 71 33 97t100 26q135 0 135 -84q0 -123 123 -123q71 0 103 31q32 32 32 82t-54 90t-132 76q-78 34 -155 81t-131 143t-54 232z" />
    <glyph glyph-name="dieresis" unicode="&#xa8;" horiz-adv-x="559" 
d="M444 1409q47 0 81 -36t34 -84t-34 -84t-81 -36t-82 37t-34 84q0 47 34 83q35 36 82 36zM117 1409q47 0 81 -36t34 -84t-34 -84t-81 -36t-82 37t-35 84t35 83t82 36z" />
    <glyph glyph-name="copyright" unicode="&#xa9;" horiz-adv-x="1392" 
d="M608 618q0 -119 97 -118q39 0 61 22t26 41q3 18 7 53q2 51 82 52q45 0 64 -18t20 -64q0 -109 -75 -172q-75 -64 -191 -64q-117 0 -187 65t-70 203v267q0 139 71 204t187 65t190 -61q75 -60 75 -165q1 -46 -19 -64t-63 -18q-82 0 -84 53q-6 104 -94 105q-96 0 -97 -119
v-267zM1182 738q0 232 -131 376t-349 146q-218 0 -355 -146q-136 -146 -136 -378t130 -376t349 -145q219 0 356 145q136 146 136 378zM68 735q0 162 58 294q103 235 356 332q110 42 220 42q233 0 419 -163q91 -79 147 -209t57 -292q0 -162 -58 -294q-104 -237 -357 -331
q-110 -42 -220 -42q-230 0 -419 162q-91 79 -147 209t-56 292z" />
    <glyph glyph-name="ordfeminine" unicode="&#xaa;" horiz-adv-x="692" 
d="M420 1167v13h-37q-133 0 -133 -78q0 -63 59 -64q39 0 75 39t36 90zM43 1086q0 196 326 196h51v14q0 45 -27 78t-87 33t-104 -23t-52 -22q-31 0 -51 32q-19 32 -19 70q0 45 76 77t157 32q158 0 235 -79t77 -196v-333q0 -27 -29 -45t-70 -18q-40 0 -66 18t-26 45v34
q-97 -110 -215 -110q-76 2 -126 49q-50 46 -50 148z" />
    <glyph glyph-name="guillemotleft" unicode="&#xab;" horiz-adv-x="1099" 
d="M1036 311q0 -51 -62 -105t-133 -54t-91 38l-138 256q-10 20 -34 58t-23 62q-1 24 23 64t34 58l138 256q20 39 91 39t133 -54t62 -106q0 -16 -6 -28l-121 -228l121 -227q6 -12 6 -29zM524 311q0 -51 -62 -105t-133 -54t-91 38l-138 256q-10 20 -34 58t-23 62q-1 24 23 64
t34 58l138 256q20 39 91 39t133 -54t62 -106q0 -16 -6 -28l-121 -228l121 -227q6 -12 6 -29z" />
    <glyph glyph-name="logicalnot" unicode="&#xac;" horiz-adv-x="1032" 
d="M150 362q-43 0 -70 36t-27 93q0 56 27 94t70 38h698q38 0 68 -39t30 -92v-265q0 -37 -47 -67t-114 -31q-67 0 -111 30t-45 68v135h-479z" />
    <glyph glyph-name="uni00AD" unicode="&#xad;" horiz-adv-x="974" 
d="M160 362q-43 0 -70 36t-27 93q0 56 27 94t70 38h655q39 0 69 -39t30 -93t-30 -92q-30 -37 -69 -37h-655z" />
    <glyph glyph-name="registered" unicode="&#xae;" horiz-adv-x="1392" 
d="M1182 738q0 232 -131 376t-349 146q-218 0 -355 -146q-136 -146 -136 -378t130 -376t349 -145q219 0 356 145q136 146 136 378zM725 983h-102v-188h102q96 0 96 88q0 100 -96 100zM467 426v643q0 19 14 35t37 16h207q111 0 181 -52t69 -169q0 -158 -129 -209l121 -221
q2 -5 2 -25t-27 -47q-26 -27 -56 -27t-48 36l-129 258h-86v-238q0 -25 -22 -39q-21 -14 -53 -14t-56 14t-25 39zM68 735q0 162 58 294q103 235 356 332q110 42 220 42q233 0 419 -163q91 -79 147 -209t57 -292q0 -162 -58 -294q-104 -237 -357 -331q-110 -42 -220 -42
q-230 0 -419 162q-91 79 -147 209t-56 292z" />
    <glyph glyph-name="macron" unicode="&#xaf;" horiz-adv-x="604" 
d="M96 1229q-44 -1 -70 27t-26 72t27 74t69 30h410q38 0 68 -30t30 -73t-30 -72t-68 -28h-410z" />
    <glyph glyph-name="degree" unicode="&#xb0;" horiz-adv-x="796" 
d="M598 1202q0 80 -59 142t-141 63q-82 0 -141 -61q-58 -60 -58 -142t58 -144t140 -62q81 0 141 62t60 142zM397 1573q147 0 256 -109q109 -108 109 -258t-110 -262t-255 -113q-145 0 -254 113t-108 260q0 147 107 258q108 111 255 111z" />
    <glyph glyph-name="plusminus" unicode="&#xb1;" horiz-adv-x="968" 
d="M59 173q0 56 27 94t70 38h655q39 0 69 -39t30 -93t-30 -91t-69 -37h-655q-43 0 -70 36t-27 92zM486 365q-56 1 -94 27t-38 69v178h-198q-43 0 -70 36t-27 92t27 94t70 38h198v176q0 39 39 69t93 30t92 -30t36 -69v-176h197q39 0 69 -39t30 -93t-30 -91t-69 -37h-197v-178
q0 -43 -35 -70q-37 -26 -93 -26z" />
    <glyph glyph-name="twosuperior" unicode="&#xb2;" horiz-adv-x="667" 
d="M53 1270q0 104 84 166t200 61q116 0 204 -63t88 -179q-1 -83 -59 -153t-129 -110q-187 -105 -187 -146v-8h311q25 0 43 -27t18 -61t-18 -63q-18 -28 -43 -28h-436q-31 -1 -61 17t-29 45v113q0 59 59 120q59 60 132 104q190 113 192 191q0 25 -20 44t-64 20q-84 0 -84 -74
q0 -29 -30 -51t-79 -23q-92 1 -92 105z" />
    <glyph glyph-name="threesuperior" unicode="&#xb3;" horiz-adv-x="688" 
d="M336 831q59 1 82 19t22 65v23q0 47 -27 61q-28 14 -83 15q-59 0 -60 78q0 78 60 79q67 6 78 30q10 25 10 54q0 68 -84 68q-54 0 -68 -11t-14 -32q0 -72 -96 -72q-70 0 -88 16t-19 62q0 86 69 148t216 63q281 0 280 -209q0 -61 -24 -114t-70 -72q125 -41 125 -164v-23
q0 -135 -87 -198t-232 -63t-221 68q-75 69 -74 155q0 43 21 57q22 14 80 14t80 -14t21 -51q0 -52 103 -52z" />
    <glyph glyph-name="acute" unicode="&#xb4;" horiz-adv-x="452" 
d="M94 1145q-38 0 -66 38t-28 85t41 67l287 133q16 6 28 7q39 0 68 -38q29 -39 29 -85t-41 -66l-287 -133q-20 -8 -31 -8z" />
    <glyph glyph-name="mu" unicode="&#xb5;" horiz-adv-x="1083" 
d="M571 -20q-98 0 -190 59v-385q0 -37 -36 -68q-35 -30 -93 -30t-102 30t-46 68v1223q0 37 48 67t110 31q64 0 112 -31t48 -67v-467q0 -58 45 -106t104 -48t104 47q44 47 44 107v469q0 39 48 67t114 29q67 0 111 -29t44 -67v-469q0 -172 -138 -301t-327 -129z" />
    <glyph glyph-name="paragraph" unicode="&#xb6;" horiz-adv-x="1171" 
d="M446 1497h506q39 0 69 -26t30 -72v-1303q0 -48 -29 -72t-70 -24q-42 0 -70 25t-28 71v1266h-174v-1264q0 -46 -29 -72t-69 -26t-70 26q-29 26 -29 72v529h-37q-182 0 -292 102t-109 322v24q-1 219 109 321t292 101z" />
    <glyph glyph-name="periodcentered" unicode="&#xb7;" horiz-adv-x="436" 
d="M51 614q0 58 49 102t118 44t118 -43t49 -103t-49 -103q-49 -44 -118 -44t-118 44t-49 103z" />
    <glyph glyph-name="cedilla" unicode="&#xb8;" horiz-adv-x="407" 
d="M0 -385q0 20 14 53t39 33q6 0 44 -14t75 -15q94 0 94 62t-88 71l-127 13l60 200h131l-39 -114q100 -4 152 -49q53 -45 53 -114t-54 -129t-174 -61q-66 -1 -123 17t-57 47z" />
    <glyph glyph-name="onesuperior" unicode="&#xb9;" horiz-adv-x="411" 
d="M131 721v559l-33 -8q-18 -6 -38 -6t-40 24q-18 25 -18 64t37 59l172 82q16 6 43 6q28 0 56 -17t28 -46v-717q0 -29 -31 -45t-73 -16t-72 16q-31 16 -31 45z" />
    <glyph glyph-name="ordmasculine" unicode="&#xba;" horiz-adv-x="714" 
d="M465 1180v102q0 43 -33 77t-76 34q-42 0 -74 -34t-32 -77v-102q0 -45 32 -79t76 -34t75 34q32 34 32 79zM355 1573q127 0 221 -86t94 -205v-102q0 -117 -94 -205t-220 -88q-125 0 -218 88t-93 205v102q0 117 91 204t219 87z" />
    <glyph glyph-name="guillemotright" unicode="&#xbb;" horiz-adv-x="1099" 
d="M260 983q72 0 90 -39l137 -256q28 -50 43 -75t15 -50q1 -24 -23 -60t-35 -57l-137 -256q-18 -38 -90 -38t-134 54t-63 105q1 17 7 29l120 227l-120 228q-6 12 -7 28q1 51 63 105t134 55zM772 983q72 0 90 -39l137 -256q27 -49 43 -75q15 -25 15 -50q1 -24 -23 -60
t-35 -57l-137 -256q-18 -38 -90 -38t-134 54t-63 105q1 17 7 29l120 227l-120 228q-6 12 -7 28q1 51 63 105t134 55z" />
    <glyph glyph-name="onequarter" unicode="&#xbc;" horiz-adv-x="1415" 
d="M1059 61v111h-285q-29 0 -48 18t-19 44t10 45l280 507q29 51 86 52q31 0 67 -22t36 -54q0 -12 -6 -25l-209 -377h88v43q0 31 30 47t72 15q104 0 105 -62v-43h51q29 0 45 -28t16 -64t-19 -66t-42 -30h-51v-111q0 -29 -31 -45t-73 -16t-72 16t-31 45zM973 1581q53 0 91 -31
q38 -32 38 -66t-8 -50l-721 -1477q-25 -51 -83 -51t-91 34t-33 63t10 50l719 1477q25 51 78 51zM176 721v559l-33 -8q-19 -6 -39 -6t-38 24t-18 64q0 39 36 59l172 82q14 6 42 6t56 -17t29 -46v-717q0 -29 -31 -45q-30 -16 -72 -16t-73 16t-31 45z" />
    <glyph glyph-name="onehalf" unicode="&#xbd;" horiz-adv-x="1380" 
d="M936 1581q53 0 91 -31q38 -32 38 -66t-8 -50l-721 -1477q-25 -51 -83 -51t-91 34t-33 63t10 50l719 1477q25 51 78 51zM752 610q0 104 84 166t200 62t203 -64q88 -64 88 -178q0 -82 -58 -153t-129 -111q-186 -104 -188 -146v-8h312q25 0 43 -26t18 -62q0 -34 -18 -62
t-43 -28h-437q-31 0 -61 17t-29 44v113q-1 58 59 120t133 105t132 95t59 87q0 72 -84 72t-84 -73q0 -29 -30 -52t-78 -22q-92 0 -92 104zM172 721v559l-33 -8q-18 -6 -39 -6t-39 24t-18 64q0 39 37 59l172 82q16 6 43 6t55 -17t29 -46v-717q0 -29 -31 -45t-73 -16
q-43 0 -73 16t-30 45z" />
    <glyph glyph-name="threequarters" unicode="&#xbe;" horiz-adv-x="1691" 
d="M1237 1581q53 0 91 -31q38 -32 38 -66t-8 -50l-721 -1477q-25 -51 -83 -51t-91 34t-33 63t10 50l719 1477q25 51 78 51zM1335 403q-1 62 103 62t104 -62v-43h51q29 0 45 -28t16 -64t-18 -66q-20 -30 -43 -30h-51v-111q0 -29 -31 -45t-73 -16t-72 16q-31 16 -31 45v111
h-284q-29 0 -49 18q-19 18 -19 44t10 45l281 507q29 51 86 52q30 0 66 -22t36 -54q0 -12 -6 -25l-209 -377h88v43zM374 831q45 1 68 19t23 65v23q0 47 -28 61t-83 15q-59 0 -59 78t59 79q69 6 81 37q7 18 7 47q0 68 -84 68q-54 0 -68 -11q-13 -11 -14 -32q0 -72 -96 -72
q-70 0 -88 16t-18 62q0 86 68 149q69 62 216 62q281 0 281 -209q0 -61 -25 -114t-69 -72q125 -41 125 -164v-23q0 -135 -87 -198t-233 -63t-220 68q-75 69 -75 155q0 43 22 57t80 14t80 -14t21 -51q0 -41 54 -49q18 -2 62 -3z" />
    <glyph glyph-name="questiondown" unicode="&#xbf;" horiz-adv-x="925" 
d="M508 1497q66 0 110 -47t46 -112q0 -64 -46 -110t-112 -46q-64 0 -110 46t-46 110t46 112t112 47zM45 326q0 197 229 374q98 79 110 159q5 32 5 97q0 84 121 84q63 0 88 -28t25 -109q0 -193 -138 -311q-6 -6 -53 -43t-65 -55t-41 -56t-23 -78q0 -68 51 -104t127 -35
q76 0 121 25t60 54q37 79 92 79t93 -31t38 -86q-1 -98 -107 -186t-299 -88t-313 96t-121 242z" />
    <glyph glyph-name="Agrave" unicode="&#xc0;" horiz-adv-x="1206" 
d="M340 1842q0 46 29 84t67 38q14 0 29 -6l287 -133q41 -19 41 -67t-28 -86t-67 -38q-10 0 -30 8l-287 134q-41 20 -41 66zM453 561h299l-150 549zM221 0q-81 0 -147 39t-66 92q0 6 4 23l381 1249q17 51 75 79t134 28t134 -28t75 -79l383 -1249q4 -16 4 -23q0 -53 -66 -92
t-147 -39q-80 0 -96 59l-70 256h-432l-70 -256q-16 -59 -96 -59z" />
    <glyph glyph-name="Aacute" unicode="&#xc1;" horiz-adv-x="1206" 
d="M547 1634q-39 0 -67 38t-28 85t42 68l286 133q14 6 29 6q39 0 68 -38t29 -84t-42 -66l-286 -134q-20 -8 -31 -8zM453 561h299l-150 549zM221 0q-81 0 -147 39t-66 92q0 6 4 23l381 1249q17 51 75 79t134 28t134 -28t75 -79l383 -1249q4 -16 4 -23q0 -53 -66 -92t-147 -39
q-80 0 -96 59l-70 256h-432l-70 -256q-16 -59 -96 -59z" />
    <glyph glyph-name="Acircumflex" unicode="&#xc2;" horiz-adv-x="1206" 
d="M358 1655q-18 1 -36 29t-18 77t50 78l213 115q21 10 35 10t35 -10l213 -115q51 -29 51 -78t-22 -84t-64 -16l-213 115l-213 -115q-13 -6 -31 -6zM453 561h299l-150 549zM221 0q-81 0 -147 39t-66 92q0 6 4 23l381 1249q17 51 75 79t134 28t134 -28t75 -79l383 -1249
q4 -16 4 -23q0 -53 -66 -92t-147 -39q-80 0 -96 59l-70 256h-432l-70 -256q-16 -59 -96 -59z" />
    <glyph glyph-name="Atilde" unicode="&#xc3;" horiz-adv-x="1206" 
d="M492 1731q-44 0 -100 -22t-75 -21q-41 0 -59 36t-18 64q0 150 174 149q63 1 153 -27q89 -28 141 -28t107 22t74 21q41 0 59 -36t19 -64q0 -150 -174 -150q-78 0 -167 28t-134 28zM453 561h299l-150 549zM221 0q-81 0 -147 39t-66 92q0 6 4 23l381 1249q17 51 75 79
t134 28t134 -28t75 -79l383 -1249q4 -16 4 -23q0 -53 -66 -92t-147 -39q-80 0 -96 59l-70 256h-432l-70 -256q-16 -59 -96 -59z" />
    <glyph glyph-name="Adieresis" unicode="&#xc4;" horiz-adv-x="1206" 
d="M770 1898q47 0 81 -36t34 -83q0 -48 -34 -84t-81 -36t-82 37t-35 84q0 46 35 82t82 36zM442 1898q47 0 81 -36t34 -83q0 -48 -34 -84t-81 -36t-82 37t-34 84q0 47 34 83q35 35 82 35zM453 561h299l-150 549zM221 0q-81 0 -147 39t-66 92q0 6 4 23l381 1249q17 51 75 79
t134 28t134 -28t75 -79l383 -1249q4 -16 4 -23q0 -53 -66 -92t-147 -39q-80 0 -96 59l-70 256h-432l-70 -256q-16 -59 -96 -59z" />
    <glyph glyph-name="Aring" unicode="&#xc5;" horiz-adv-x="1206" 
d="M518 1854q0 -32 25 -58t59 -27q34 1 56 27q24 26 24 58t-24 57t-58 25t-58 -26q-24 -24 -24 -56zM599 2064q83 0 145 -62t62 -145t-62 -147t-144 -63q-82 0 -142 63q-60 62 -60 146t58 146q60 62 143 62zM453 561h299l-150 549zM221 0q-81 0 -147 39t-66 92q0 6 4 23
l381 1249q17 51 75 79t134 28t134 -28t75 -79l383 -1249q4 -16 4 -23q0 -53 -66 -92t-147 -39q-80 0 -96 59l-70 256h-432l-70 -256q-16 -59 -96 -59z" />
    <glyph glyph-name="AE" unicode="&#xc6;" horiz-adv-x="1673" 
d="M403 1014v-142h363v347h-178q-185 0 -185 -205zM1085 1219v-347h222q45 0 71 -36t25 -86q0 -49 -25 -86t-71 -37h-222v-348h463q45 0 71 -41q26 -40 26 -98t-25 -99t-72 -41h-643q-57 0 -98 26t-41 72v529h-363v-518q1 -53 -31 -81t-128 -28q-139 0 -140 109v905
q0 250 132 366t352 117h960q47 0 72 -41t25 -98t-26 -98t-71 -41h-463z" />
    <glyph glyph-name="Ccedilla" unicode="&#xc7;" horiz-adv-x="1150" 
d="M414 1014v-543q0 -205 186 -205q116 0 150 75q23 55 30 130q8 96 158 96q88 1 125 -31t37 -120q0 -182 -121 -294t-320 -130l-28 -88q100 -4 152 -49q53 -45 53 -114t-54 -129t-174 -61q-66 -1 -123 17t-57 47q0 20 14 53t39 33q6 0 43 -14t76 -15q94 0 94 62t-88 71
l-127 13l51 172q-196 12 -316 130t-120 351v543q0 250 136 366t358 117q222 -1 367 -109q144 -108 145 -298q0 -88 -37 -120t-123 -32q-154 0 -160 96q-6 184 -186 184t-180 -204z" />
    <glyph glyph-name="Egrave" unicode="&#xc8;" horiz-adv-x="1103" 
d="M354 1842q0 46 29 84t68 38q12 0 28 -6l287 -133q41 -19 41 -67t-28 -86t-66 -38q-11 0 -31 8l-287 134q-41 20 -41 66zM430 1219v-347h307q45 0 71 -36t26 -86q0 -49 -25 -86t-72 -37h-307v-348h549q45 0 71 -41q26 -40 26 -98t-26 -99q-24 -41 -71 -41h-729
q-57 0 -98 26t-41 72v1301q0 47 41 73t98 25h729q47 0 72 -41t25 -98t-26 -98t-71 -41h-549z" />
    <glyph glyph-name="Eacute" unicode="&#xc9;" horiz-adv-x="1103" 
d="M510 1634q-39 0 -67 38q-27 38 -27 85t41 68l286 133q16 6 29 6q39 0 68 -38q28 -38 28 -84t-41 -66l-286 -134q-20 -8 -31 -8zM430 1219v-347h307q45 0 71 -36t26 -86q0 -49 -25 -86t-72 -37h-307v-348h549q45 0 71 -41q26 -40 26 -98t-26 -99q-24 -41 -71 -41h-729
q-57 0 -98 26t-41 72v1301q0 47 41 73t98 25h729q47 0 72 -41t25 -98t-26 -98t-71 -41h-549z" />
    <glyph glyph-name="Ecircumflex" unicode="&#xca;" horiz-adv-x="1103" 
d="M368 1655q-18 1 -36 29t-18 77t51 78l213 115q20 10 34 10t35 -10l213 -115q51 -29 51 -78t-22 -84t-64 -16l-213 115l-213 -115q-13 -6 -31 -6zM430 1219v-347h307q45 0 71 -36t26 -86q0 -49 -25 -86t-72 -37h-307v-348h549q45 0 71 -41q26 -40 26 -98t-26 -99
q-24 -41 -71 -41h-729q-57 0 -98 26t-41 72v1301q0 47 41 73t98 25h729q47 0 72 -41t25 -98t-26 -98t-71 -41h-549z" />
    <glyph glyph-name="Edieresis" unicode="&#xcb;" horiz-adv-x="1103" 
d="M764 1898q47 0 81 -36t34 -83q0 -48 -34 -84t-81 -36t-82 37t-35 84q0 46 35 82t82 36zM436 1898q47 0 81 -36t34 -83q0 -48 -34 -84t-81 -36t-82 37t-35 84q0 46 35 82t82 36zM430 1219v-347h307q45 0 71 -36t26 -86q0 -49 -25 -86t-72 -37h-307v-348h549q45 0 71 -41
q26 -40 26 -98t-26 -99q-24 -41 -71 -41h-729q-57 0 -98 26t-41 72v1301q0 47 41 73t98 25h729q47 0 72 -41t25 -98t-26 -98t-71 -41h-549z" />
    <glyph glyph-name="Igrave" unicode="&#xcc;" horiz-adv-x="540" 
d="M27 1842q0 46 28 84q29 38 68 38q12 0 29 -6l286 -133q41 -19 41 -67q1 -48 -27 -86t-67 -38q-11 0 -31 8l-286 134q-41 20 -41 66zM111 98v1303q0 47 47 72q46 25 112 25t113 -26q47 -24 47 -71v-1303q0 -46 -47 -72t-113 -26t-112 26t-47 72z" />
    <glyph glyph-name="Iacute" unicode="&#xcd;" horiz-adv-x="540" 
d="M158 1634q-39 0 -67 38t-28 85t41 68l287 133q14 6 29 6q40 0 68 -38t28 -84t-41 -66l-287 -134q-20 -8 -30 -8zM111 98v1303q0 47 47 72q46 25 112 25t113 -26q47 -24 47 -71v-1303q0 -46 -47 -72t-113 -26t-112 26t-47 72z" />
    <glyph glyph-name="Icircumflex" unicode="&#xce;" horiz-adv-x="540" 
d="M30 1655q-18 1 -36 29t-18 77t51 78l213 115q20 10 34 10t35 -10l213 -115q51 -29 51 -78t-22 -84t-64 -16l-213 115l-213 -115q-13 -6 -31 -6zM111 98v1303q0 47 47 72q46 25 112 25t113 -26q47 -24 47 -71v-1303q0 -46 -47 -72t-113 -26t-112 26t-47 72z" />
    <glyph glyph-name="Idieresis" unicode="&#xcf;" horiz-adv-x="540" 
d="M438 1898q47 0 81 -36t34 -83q0 -48 -34 -84t-81 -36t-82 37t-34 84q0 47 34 83q35 35 82 35zM111 1898q47 0 81 -36t33 -83q0 -48 -34 -84q-35 -36 -81 -36t-81 37t-35 84q0 46 35 82t82 36zM111 98v1303q0 47 47 72q46 25 112 25t113 -26q47 -24 47 -71v-1303
q0 -46 -47 -72t-113 -26t-112 26t-47 72z" />
    <glyph glyph-name="Eth" unicode="&#xd0;" horiz-adv-x="1220" 
d="M625 1219h-183v-324h127q37 0 57 -34t21 -80q0 -46 -20 -79t-58 -32h-127v-391h183q184 0 184 204v531q0 205 -184 205zM262 1497h363q229 0 366 -117t137 -366v-531q0 -251 -137 -367t-366 -116h-363q-61 0 -100 29t-39 67v574h-66q-37 0 -57 32t-20 79q0 46 20 80
t57 34h66v506q0 39 39 67t100 29z" />
    <glyph glyph-name="Ntilde" unicode="&#xd1;" horiz-adv-x="1267" 
d="M504 1731q-44 0 -100 -22t-74 -21q-41 0 -60 35q-18 36 -18 65q0 150 174 149q64 1 154 -27t141 -28t106 22t74 21q41 0 59 -36t19 -64q0 -150 -174 -150q-78 0 -167 28t-134 28zM997 0q-131 0 -178 86l-389 709v-697q0 -46 -47 -72t-113 -26t-112 26t-47 72v1301
q0 47 47 73q48 26 126 25q78 0 122 -27t100 -133l332 -632v696q0 47 47 72t113 25t112 -26q47 -24 47 -71v-1303q0 -46 -47 -72t-113 -26z" />
    <glyph glyph-name="Ograve" unicode="&#xd2;" horiz-adv-x="1193" 
d="M338 1842q0 46 29 84t67 38q12 0 29 -6l287 -133q41 -19 41 -67t-28 -86t-67 -38q-10 0 -30 8l-287 134q-41 20 -41 66zM780 471v543q0 205 -183 205t-183 -205v-543q0 -205 183 -205t183 205zM597 -12q-228 0 -366 116q-137 117 -137 367v543q0 250 137 366t365 117
q228 0 366 -117t138 -366v-543q0 -250 -137 -367q-138 -116 -366 -116z" />
    <glyph glyph-name="Oacute" unicode="&#xd3;" horiz-adv-x="1193" 
d="M555 1634q-39 0 -67 38t-28 85t42 68l286 133q14 6 29 6q39 0 68 -38t29 -84t-42 -66l-286 -134q-20 -8 -31 -8zM780 471v543q0 205 -183 205t-183 -205v-543q0 -205 183 -205t183 205zM597 -12q-228 0 -366 116q-137 117 -137 367v543q0 250 137 366t365 117
q228 0 366 -117t138 -366v-543q0 -250 -137 -367q-138 -116 -366 -116z" />
    <glyph glyph-name="Ocircumflex" unicode="&#xd4;" horiz-adv-x="1193" 
d="M352 1655q-19 1 -37 29t-18 77t51 78l213 115q21 10 35 10t35 -10l213 -115q51 -29 51 -78t-22 -85t-64 -15l-213 115l-213 -115q-12 -6 -31 -6zM780 471v543q0 205 -183 205t-183 -205v-543q0 -205 183 -205t183 205zM597 -12q-228 0 -366 116q-137 117 -137 367v543
q0 250 137 366t365 117q228 0 366 -117t138 -366v-543q0 -250 -137 -367q-138 -116 -366 -116z" />
    <glyph glyph-name="Otilde" unicode="&#xd5;" horiz-adv-x="1193" 
d="M786 1675q-78 0 -167 28t-134 28t-100 -22t-74 -21q-41 0 -59 36t-19 64q0 150 175 149q63 1 153 -27q89 -28 141 -28t107 22t74 21q41 0 59 -36t19 -64q0 -150 -175 -150zM780 471v543q0 205 -183 205t-183 -205v-543q0 -205 183 -205t183 205zM597 -12q-228 0 -366 116
q-137 117 -137 367v543q0 250 137 366t365 117q228 0 366 -117t138 -366v-543q0 -250 -137 -367q-138 -116 -366 -116z" />
    <glyph glyph-name="Odieresis" unicode="&#xd6;" horiz-adv-x="1193" 
d="M764 1898q47 0 81 -36t34 -83q0 -48 -34 -84t-81 -36t-82 37t-35 84q0 46 35 82t82 36zM436 1898q47 0 81 -36t34 -83q0 -48 -34 -84t-81 -36t-82 37t-35 84q0 46 35 82t82 36zM780 471v543q0 205 -183 205t-183 -205v-543q0 -205 183 -205t183 205zM597 -12
q-228 0 -366 116q-137 117 -137 367v543q0 250 137 366t365 117q228 0 366 -117t138 -366v-543q0 -250 -137 -367q-138 -116 -366 -116z" />
    <glyph glyph-name="multiply" unicode="&#xd7;" horiz-adv-x="839" 
d="M768 352q0 -45 -48 -92t-92 -47t-69 25l-141 141l-139 -141q-25 -25 -68 -25t-92 49t-49 92t24 68l162 141l-160 137q-22 23 -22 69t46 92t90 46t71 -22l137 -140l139 140q23 23 69 23t92 -47q46 -46 46 -92t-23 -69l-159 -137l161 -141q25 -25 25 -70z" />
    <glyph glyph-name="Oslash" unicode="&#xd8;" horiz-adv-x="1193" 
d="M780 471v383l-278 -569q39 -18 94 -19q184 0 184 205zM414 1014v-410l286 590q-43 25 -104 25q-182 0 -182 -205zM942 1581q53 0 91 -31q38 -32 38 -66t-8 -50l-53 -107q90 -119 90 -313v-543q0 -250 -137 -367t-367 -116q-125 0 -223 32l-31 -63q-25 -51 -83 -51t-91 34
t-33 63t10 50l45 92q-96 119 -96 326v543q0 250 137 366t365 117q131 0 233 -39l35 72q25 51 78 51z" />
    <glyph glyph-name="Ugrave" unicode="&#xd9;" horiz-adv-x="1241" 
d="M348 1842q0 46 29 84t67 38q14 0 29 -6l287 -133q41 -19 41 -67t-28 -86t-66 -38q-11 0 -31 8l-287 134q-41 20 -41 66zM817 471v930q0 47 46 72t113 25t114 -26q47 -24 47 -71v-930q1 -250 -141 -367q-142 -116 -376 -116t-375 116q-140 116 -141 367v930q0 47 46 72
t114 25q66 0 113 -26q47 -24 47 -71v-930q0 -205 196 -205t197 205z" />
    <glyph glyph-name="Uacute" unicode="&#xda;" horiz-adv-x="1241" 
d="M545 1634q-39 0 -67 38t-28 85t42 68l286 133q16 6 29 6q39 0 67 -38t29 -84q0 -46 -41 -66l-287 -134q-20 -8 -30 -8zM817 471v930q0 47 46 72t113 25t114 -26q47 -24 47 -71v-930q1 -250 -141 -367q-142 -116 -376 -116t-375 116q-140 116 -141 367v930q0 47 46 72
t114 25q66 0 113 -26q47 -24 47 -71v-930q0 -205 196 -205t197 205z" />
    <glyph glyph-name="Ucircumflex" unicode="&#xdb;" horiz-adv-x="1241" 
d="M362 1655q-18 1 -36 29t-18 77t50 78l213 115q21 10 35 10t35 -10l213 -115q51 -29 51 -78t-22 -84t-64 -16l-213 115l-213 -115q-13 -6 -31 -6zM817 471v930q0 47 46 72t113 25t114 -26q47 -24 47 -71v-930q1 -250 -141 -367q-142 -116 -376 -116t-375 116
q-140 116 -141 367v930q0 47 46 72t114 25q66 0 113 -26q47 -24 47 -71v-930q0 -205 196 -205t197 205z" />
    <glyph glyph-name="Udieresis" unicode="&#xdc;" horiz-adv-x="1241" 
d="M784 1898q47 0 81 -36t34 -83q0 -48 -34 -84t-81 -36t-82 37t-34 84q0 47 34 83q35 35 82 35zM457 1898q47 0 81 -36t34 -83q0 -48 -34 -84t-81 -36t-82 37t-35 84q0 46 35 82t82 36zM817 471v930q0 47 46 72t113 25t114 -26q47 -24 47 -71v-930q1 -250 -141 -367
q-142 -116 -376 -116t-375 116q-140 116 -141 367v930q0 47 46 72t114 25q66 0 113 -26q47 -24 47 -71v-930q0 -205 196 -205t197 205z" />
    <glyph glyph-name="Yacute" unicode="&#xdd;" horiz-adv-x="1208" 
d="M514 1634q-39 0 -67 38q-27 38 -27 85t41 68l287 133q14 6 28 6q39 0 68 -38q28 -38 28 -84t-41 -66l-286 -134q-20 -8 -31 -8zM444 98v514q0 16 -8 29l-424 702q-4 8 -4 23q0 53 73 92t127 39t72 -13t37 -46l287 -527l285 527q31 59 97 59t140 -39q72 -39 72 -92
q0 -14 -4 -23l-422 -702q-8 -12 -8 -29v-514q0 -46 -47 -72t-113 -26t-113 26t-47 72z" />
    <glyph glyph-name="Thorn" unicode="&#xde;" horiz-adv-x="1083" 
d="M733 702v144q0 59 -46 106t-107 47q-60 0 -106 -42t-46 -111v-170q0 -33 46 -82t106 -49t107 48q46 48 46 109zM111 1436q0 44 44 70q43 26 111 26t115 -27t47 -69v-316q35 66 103 111q69 45 153 45q154 0 260 -126t107 -304v-144q0 -172 -108 -303t-249 -131
q-86 0 -160 48t-106 116v-334q0 -38 -48 -68t-114 -30t-110 30t-45 68v1338z" />
    <glyph glyph-name="germandbls" unicode="&#xdf;" horiz-adv-x="1263" 
d="M735 -41q-125 0 -161 32q-37 32 -37 94q0 61 18 111t55 50q10 0 52 -9t75 -10q80 0 124 48t44 135v22q0 148 -71 207q-37 31 -67 45t-79 30t-70 42q-20 25 -20 88q0 62 18 82t70 35q80 23 80 159q0 176 -141 176q-131 0 -131 -149v-1051q0 -40 -48 -68t-116 -28
q-66 0 -110 27t-44 69v654h-100q-37 0 -58 32q-20 33 -20 79t20 80t58 34h100v172q0 186 102 306t306 120q202 0 321 -96t119 -285q0 -100 -37 -188t-98 -121q123 -23 225 -140t103 -282v-23q1 -221 -139 -350t-343 -129z" />
    <glyph glyph-name="agrave" unicode="&#xe0;" horiz-adv-x="991" 
d="M590 399v9h-8q-68 0 -112 -6t-79 -32t-35 -73q0 -86 80 -86q51 0 103 57q51 57 51 131zM440 987q236 0 352 -115t115 -286v-488q0 -42 -44 -70t-107 -28t-105 29q-41 29 -41 69v45q-141 -164 -311 -163q-113 0 -187 70t-75 202q0 170 124 240t355 69h74v21q0 61 -37 106
t-126 45t-153 -34t-77 -33q-49 0 -78 48t-29 109q0 68 114 116t236 48zM256 1352q0 46 29 85q29 38 67 38q12 0 29 -7l287 -133q41 -20 41 -67t-28 -85t-67 -38q-10 0 -30 8l-287 133q-41 20 -41 66z" />
    <glyph glyph-name="aacute" unicode="&#xe1;" horiz-adv-x="991" 
d="M391 1145q-39 0 -67 38t-27 85q0 47 41 67l287 133q55 23 90 -23q35 -47 35 -93t-41 -66l-287 -133q-20 -8 -31 -8zM590 399v9h-8q-68 0 -112 -6t-79 -32t-35 -73q0 -86 80 -86q51 0 103 57q51 57 51 131zM440 987q236 0 352 -115t115 -286v-488q0 -42 -44 -70t-107 -28
t-105 29q-41 29 -41 69v45q-141 -164 -311 -163q-113 0 -187 70t-75 202q0 170 124 240t355 69h74v21q0 61 -37 106t-126 45t-153 -34t-77 -33q-49 0 -78 48t-29 109q0 68 114 116t236 48z" />
    <glyph glyph-name="acircumflex" unicode="&#xe2;" horiz-adv-x="991" 
d="M590 399v9h-8q-68 0 -112 -6t-79 -32t-35 -73q0 -86 80 -86q51 0 103 57q51 57 51 131zM440 987q236 0 352 -115t115 -286v-488q0 -42 -44 -70t-107 -28t-105 29q-41 29 -41 69v45q-141 -164 -311 -163q-113 0 -187 70t-75 202q0 170 124 240t355 69h74v21q0 61 -37 106
t-126 45t-153 -34t-77 -33q-49 0 -78 48t-29 109q0 68 114 116t236 48zM219 1165q-19 0 -37 29t-18 78t51 78l213 114q36 18 70 0l213 -114q51 -29 51 -78t-18 -78t-38 -29q-18 0 -30 6l-213 115l-213 -115q-12 -6 -31 -6z" />
    <glyph glyph-name="atilde" unicode="&#xe3;" horiz-adv-x="991" 
d="M590 399v9h-8q-68 0 -112 -6t-79 -32t-35 -73q0 -86 80 -86q51 0 103 57q51 57 51 131zM440 987q236 0 352 -115t115 -286v-488q0 -42 -44 -70t-107 -28t-105 29q-41 29 -41 69v45q-141 -164 -311 -163q-113 0 -187 70t-75 202q0 170 124 240t355 69h74v21q0 61 -37 106
t-126 45t-153 -34t-77 -33q-49 0 -78 48t-29 109q0 68 114 116t236 48zM371 1241q-45 1 -101 -21t-73 -22q-41 0 -60 36q-18 36 -18 64q0 150 174 150q63 0 153 -28t142 -28t106 22q55 22 85 22t48 -36t19 -65q0 -150 -174 -149q-78 0 -167 28t-134 27z" />
    <glyph glyph-name="adieresis" unicode="&#xe4;" horiz-adv-x="991" 
d="M590 399v9h-8q-68 0 -112 -6t-79 -32t-35 -73q0 -86 80 -86q51 0 103 57q51 57 51 131zM440 987q236 0 352 -115t115 -286v-488q0 -42 -44 -70t-107 -28t-105 29q-41 29 -41 69v45q-141 -164 -311 -163q-113 0 -187 70t-75 202q0 170 124 240t355 69h74v21q0 61 -37 106
t-126 45t-153 -34t-77 -33q-49 0 -78 48t-29 109q0 68 114 116t236 48zM643 1409q47 0 81 -36t34 -84t-34 -84t-81 -36t-82 37t-35 84t35 83t82 36zM315 1409q47 0 81 -36t34 -84t-34 -84t-81 -36t-82 37t-34 84q0 47 34 83q35 36 82 36z" />
    <glyph glyph-name="aring" unicode="&#xe5;" horiz-adv-x="991" 
d="M590 399v9h-8q-68 0 -112 -6t-79 -32t-35 -73q0 -86 80 -86q51 0 103 57q51 57 51 131zM440 987q236 0 352 -115t115 -286v-488q0 -42 -44 -70t-107 -28t-105 29q-41 29 -41 69v45q-141 -164 -311 -163q-113 0 -187 70t-75 202q0 170 124 240t355 69h74v21q0 61 -37 106
t-126 45t-153 -34t-77 -33q-49 0 -78 48t-29 109q0 68 114 116t236 48zM565 1365q1 33 -23 57t-58 24t-58 -25t-25 -57q0 -32 25 -58q24 -26 58 -26t58 26t23 59zM281 1367q0 83 59 145t142 63q84 -1 146 -63t62 -145t-62 -146t-144 -63t-143 62q-60 64 -60 147z" />
    <glyph glyph-name="ae" unicode="&#xe6;" horiz-adv-x="1548" 
d="M588 399v9h-8q-68 0 -112 -6t-79 -32t-35 -73q0 -86 80 -86q51 0 103 57q51 57 51 131zM905 586h254q43 0 43 53t-44 86t-104 33t-104 -33t-45 -90v-49zM1067 987q174 1 303 -109t129 -280q0 -131 -59 -160q-59 -30 -140 -30h-395v-13q-1 -76 57 -122t141 -46t162 38
t105 38q51 0 84 -48t33 -91q0 -64 -110 -124t-271 -60q-244 0 -387 192q-168 -193 -361 -192q-139 0 -231 70t-92 202q0 170 124 240t355 69h74v21q0 61 -37 106t-126 45t-153 -34t-77 -33q-49 0 -78 48t-29 109q0 68 114 116t236 48q207 0 324 -147q131 147 305 147z" />
    <glyph glyph-name="ccedilla" unicode="&#xe7;" horiz-adv-x="905" 
d="M877 155q0 -59 -86 -111t-213 -62l-27 -78q100 -4 152 -49q53 -45 53 -114t-54 -129t-174 -61q-66 -1 -122 17t-58 47q0 20 14 53t39 33q6 0 43 -14t76 -15q94 0 94 62t-88 71l-127 13l50 166q-197 18 -294 134t-98 296v139q0 195 116 315t345 119q146 0 246 -50
t100 -120q0 -51 -36 -103t-87 -52q-16 0 -74 24t-122 25q-170 0 -170 -158v-139q0 -158 172 -158q61 0 117 28t77 27q59 0 97 -49t39 -107z" />
    <glyph glyph-name="egrave" unicode="&#xe8;" 
d="M262 1352q0 46 29 85q29 38 67 38q14 0 29 -7l287 -133q41 -20 41 -67t-28 -85t-66 -38q-11 0 -31 8l-287 133q-41 20 -41 66zM373 586h254q43 0 43 53t-44 86t-104 33t-105 -33q-44 -33 -44 -90v-49zM55 563q0 174 138 299q139 125 327 125t318 -109q129 -110 129 -280
q0 -130 -60 -160t-139 -30h-395v-13q0 -76 57 -122q56 -46 140 -46t162 38t106 38q51 0 84 -48t32 -91q0 -63 -109 -124q-110 -60 -272 -60q-229 0 -373 120t-145 314v149z" />
    <glyph glyph-name="eacute" unicode="&#xe9;" 
d="M397 1145q-39 0 -67 38t-27 85q0 47 41 67l287 133q16 6 28 7q39 0 68 -38q29 -39 29 -85t-41 -66l-287 -133q-20 -8 -31 -8zM373 586h254q43 0 43 53t-44 86t-104 33t-105 -33q-44 -33 -44 -90v-49zM55 563q0 174 138 299q139 125 327 125t318 -109q129 -110 129 -280
q0 -130 -60 -160t-139 -30h-395v-13q0 -76 57 -122q56 -46 140 -46t162 38t106 38q51 0 84 -48t32 -91q0 -63 -109 -124q-110 -60 -272 -60q-229 0 -373 120t-145 314v149z" />
    <glyph glyph-name="ecircumflex" unicode="&#xea;" 
d="M278 1165q-18 0 -36 29t-18 78t50 78l213 114q36 18 70 0l213 -114q51 -29 51 -78t-18 -78q-19 -29 -37 -29t-31 6l-213 115l-213 -115q-13 -6 -31 -6zM373 586h254q43 0 43 53t-44 86t-104 33t-105 -33q-44 -33 -44 -90v-49zM55 563q0 174 138 299q139 125 327 125
t318 -109q129 -110 129 -280q0 -130 -60 -160t-139 -30h-395v-13q0 -76 57 -122q56 -46 140 -46t162 38t106 38q51 0 84 -48t32 -91q0 -63 -109 -124q-110 -60 -272 -60q-229 0 -373 120t-145 314v149z" />
    <glyph glyph-name="edieresis" unicode="&#xeb;" 
d="M684 1409q47 0 81 -36t34 -84t-34 -84t-81 -36t-82 37t-35 84t35 83t82 36zM356 1409q47 0 81 -36t34 -84t-34 -84t-81 -36t-82 37t-34 84q0 47 34 83q35 36 82 36zM373 586h254q43 0 43 53t-44 86t-104 33t-105 -33q-44 -33 -44 -90v-49zM55 563q0 174 138 299
q139 125 327 125t318 -109q129 -110 129 -280q0 -130 -60 -160t-139 -30h-395v-13q0 -76 57 -122q56 -46 140 -46t162 38t106 38q51 0 84 -48t32 -91q0 -63 -109 -124q-110 -60 -272 -60q-229 0 -373 120t-145 314v149z" />
    <glyph glyph-name="igrave" unicode="&#xec;" horiz-adv-x="499" 
d="M-14 1352q0 46 28 85q29 38 68 38q12 0 29 -7l286 -133q41 -20 41 -67t-28 -85t-66 -38q-11 0 -31 8l-286 133q-41 20 -41 66zM92 879q0 43 44 69t113 27q69 0 115 -27t46 -69v-781q0 -38 -48 -68t-114 -30t-111 30t-45 68v781z" />
    <glyph glyph-name="iacute" unicode="&#xed;" horiz-adv-x="499" 
d="M162 1145q-39 0 -67 38q-27 38 -27 85t41 67l286 133q16 6 29 7q39 0 68 -38q28 -39 28 -85t-41 -66l-286 -133q-20 -8 -31 -8zM92 879q0 43 44 69t113 27q69 0 115 -27t46 -69v-781q0 -38 -48 -68t-114 -30t-111 30t-45 68v781z" />
    <glyph glyph-name="icircumflex" unicode="&#xee;" horiz-adv-x="499" 
d="M8 1165q-19 0 -37 29t-18 78t51 78l213 114q36 18 70 0l213 -114q51 -29 51 -78q-1 -49 -19 -78t-36 -29t-31 6l-213 115l-213 -115q-12 -6 -31 -6zM92 879q0 43 44 69t113 27q69 0 115 -27t46 -69v-781q0 -38 -48 -68t-114 -30t-111 30t-45 68v781z" />
    <glyph glyph-name="idieresis" unicode="&#xef;" horiz-adv-x="499" 
d="M424 1409q47 0 81 -36t34 -84t-34 -84t-81 -36t-82 37t-35 84t35 83t82 36zM96 1409q47 0 81 -36t34 -84t-34 -84t-81 -36t-82 37t-34 84q0 47 34 83q35 36 82 36zM92 879q0 43 44 69t113 27q69 0 115 -27t46 -69v-781q0 -38 -48 -68t-114 -30t-111 30t-45 68v781z" />
    <glyph glyph-name="eth" unicode="&#xf0;" horiz-adv-x="1075" 
d="M373 557v-143q0 -62 46 -110t107 -48t107 48q45 48 45 110v143q0 68 -48 111t-108 43q-60 1 -105 -47q-44 -48 -44 -107zM995 702v-288q0 -172 -140 -303q-141 -131 -329 -131t-329 131t-142 303v143q1 176 107 303t256 127q88 0 156 -45t104 -111q0 127 -72 265l-84 -52
q-10 -8 -38 -8t-64 41q-35 41 -35 81t33 61l67 41q-2 4 -9 9t-18 16l-15 15q-5 4 -13 12t-11 16q-3 7 -8 17t-7 50q-1 39 37 89t116 50q109 0 201 -109l100 62q14 8 42 8t62 -40t34 -81t-33 -61l-97 -60q129 -268 129 -551z" />
    <glyph glyph-name="ntilde" unicode="&#xf1;" horiz-adv-x="1093" 
d="M410 557v-459q0 -38 -48 -68t-114 -30t-111 30t-45 68v781q0 43 44 69t108 27q64 0 104 -27q41 -27 41 -69v-48q33 66 106 111t169 45q141 0 244 -127t104 -303v-459q0 -46 -47 -72t-111 -26t-112 27t-48 71v459q0 59 -44 107t-100 47q-56 0 -98 -42t-42 -112zM434 1241
q-45 1 -100 -21t-85 -22t-48 36t-19 64q0 150 174 150q64 0 154 -28t141 -28t107 22t73 22q41 0 59 -36t19 -65q0 -150 -174 -149q-78 0 -167 28t-134 27z" />
    <glyph glyph-name="ograve" unicode="&#xf2;" horiz-adv-x="1042" 
d="M262 1352q0 46 29 85q29 38 67 38q14 0 29 -7l287 -133q41 -20 41 -67t-28 -85t-66 -38q-11 0 -31 8l-287 133q-41 20 -41 66zM670 414v143q0 59 -45 107t-105 47q-60 0 -103 -47q-44 -47 -44 -107v-143q0 -62 43 -110t104 -48t106 48q44 49 44 110zM55 557
q-1 174 137 302t327 128t329 -127t139 -303v-143q0 -172 -140 -303q-141 -131 -327 -131t-325 131t-140 303v143z" />
    <glyph glyph-name="oacute" unicode="&#xf3;" horiz-adv-x="1042" 
d="M397 1145q-39 0 -67 38t-27 85q0 47 41 67l287 133q16 6 28 7q39 0 68 -38q29 -39 29 -85t-41 -66l-287 -133q-20 -8 -31 -8zM670 414v143q0 59 -45 107t-105 47q-60 0 -103 -47q-44 -47 -44 -107v-143q0 -62 43 -110t104 -48t106 48q44 49 44 110zM55 557
q-1 174 137 302t327 128t329 -127t139 -303v-143q0 -172 -140 -303q-141 -131 -327 -131t-325 131t-140 303v143z" />
    <glyph glyph-name="ocircumflex" unicode="&#xf4;" horiz-adv-x="1042" 
d="M276 1165q-18 0 -36 29t-18 78t50 78l213 114q36 18 70 0l213 -114q51 -29 51 -78t-18 -78q-19 -29 -37 -29t-31 6l-213 115l-213 -115q-13 -6 -31 -6zM670 414v143q0 59 -45 107t-105 47q-60 0 -103 -47q-44 -47 -44 -107v-143q0 -62 43 -110t104 -48t106 48
q44 49 44 110zM55 557q-1 174 137 302t327 128t329 -127t139 -303v-143q0 -172 -140 -303q-141 -131 -327 -131t-325 131t-140 303v143z" />
    <glyph glyph-name="otilde" unicode="&#xf5;" horiz-adv-x="1042" 
d="M412 1241q-44 1 -100 -21t-74 -22q-41 0 -60 36q-18 36 -18 64q0 150 174 150q63 0 153 -28q89 -28 141 -28t107 22t85 22t48 -36t19 -65q0 -150 -174 -149q-78 0 -167 28t-134 27zM670 414v143q0 59 -45 107t-105 47q-60 0 -103 -47q-44 -47 -44 -107v-143
q0 -62 43 -110t104 -48t106 48q44 49 44 110zM55 557q-1 174 137 302t327 128t329 -127t139 -303v-143q0 -172 -140 -303q-141 -131 -327 -131t-325 131t-140 303v143z" />
    <glyph glyph-name="odieresis" unicode="&#xf6;" horiz-adv-x="1042" 
d="M688 1409q47 0 81 -36t34 -84t-34 -84t-81 -36t-82 37t-35 84t35 83t82 36zM360 1409q47 0 81 -36t34 -84t-34 -84t-81 -36q-48 0 -82 37t-34 84t34 83t82 36zM670 414v143q0 59 -45 107t-105 47q-60 0 -103 -47q-44 -47 -44 -107v-143q0 -62 43 -110t104 -48t106 48
q44 49 44 110zM55 557q-1 174 137 302t327 128t329 -127t139 -303v-143q0 -172 -140 -303q-141 -131 -327 -131t-325 131t-140 303v143z" />
    <glyph glyph-name="divide" unicode="&#xf7;" horiz-adv-x="931" 
d="M457 973q53 0 95 -39t42 -92t-42 -91t-95 -38t-95 38q-41 38 -40 91q0 53 40 92q42 39 95 39zM457 264q53 0 95 -37t42 -90t-42 -93t-94 -40t-94 40t-42 93t40 90q42 37 95 37zM141 367q-45 1 -73 33t-27 86q0 54 28 89t72 35h647q39 0 71 -36t32 -88t-31 -86t-72 -33
h-647z" />
    <glyph glyph-name="oslash" unicode="&#xf8;" horiz-adv-x="1042" 
d="M510 711q-49 0 -93 -47t-44 -107v-160l221 291q-35 23 -84 23zM670 414v143q0 4 -1 12t-1 13l-230 -299q37 -27 90 -27t98 48q44 49 44 110zM520 987q131 0 248 -67l74 98q18 26 45 26t47 -19t20 -43t-16 -46l-72 -94q121 -125 121 -285v-143q0 -172 -140 -303t-327 -131
q-135 0 -258 75l-80 -104q-12 -17 -36 -17t-43 18t-19 40t14 41l74 98q-117 127 -117 283v143q-1 174 137 302t328 128z" />
    <glyph glyph-name="ugrave" unicode="&#xf9;" horiz-adv-x="1095" 
d="M289 1352q0 46 28 85q29 38 68 38q14 0 29 -7l286 -133q41 -20 41 -67q1 -47 -27 -85t-67 -38q-11 0 -31 8l-286 133q-41 20 -41 66zM1014 410q0 -172 -138 -301t-328 -129q-189 0 -328 129q-138 129 -138 301v467q0 37 47 67t111 31q64 0 111 -31q48 -31 48 -67v-467
q0 -58 45 -106q44 -48 104 -48t104 47t44 107v469q0 39 48 67t114 29q66 0 111 -29t45 -67v-469z" />
    <glyph glyph-name="uacute" unicode="&#xfa;" horiz-adv-x="1095" 
d="M444 1145q-38 0 -66 38t-28 85t41 67l287 133q56 24 96 -31q29 -39 29 -85t-41 -66l-287 -133q-20 -8 -31 -8zM1014 410q0 -172 -138 -301t-328 -129q-189 0 -328 129q-138 129 -138 301v467q0 37 47 67t111 31q64 0 111 -31q48 -31 48 -67v-467q0 -58 45 -106
q44 -48 104 -48t104 47t44 107v469q0 39 48 67t114 29q66 0 111 -29t45 -67v-469z" />
    <glyph glyph-name="ucircumflex" unicode="&#xfb;" horiz-adv-x="1095" 
d="M307 1165q-19 0 -37 29t-18 78t51 78l213 114q36 18 70 0l213 -114q51 -29 51 -78t-18 -78t-38 -29q-18 0 -30 6l-213 115l-213 -115q-12 -6 -31 -6zM1014 410q0 -172 -138 -301t-328 -129q-189 0 -328 129q-138 129 -138 301v467q0 37 47 67t111 31q64 0 111 -31
q48 -31 48 -67v-467q0 -58 45 -106q44 -48 104 -48t104 47t44 107v469q0 39 48 67t114 29q66 0 111 -29t45 -67v-469z" />
    <glyph glyph-name="udieresis" unicode="&#xfc;" horiz-adv-x="1095" 
d="M715 1409q47 0 81 -36t34 -84t-34 -84t-81 -36t-82 37t-35 84t35 83t82 36zM387 1409q47 0 81 -36t34 -84t-34 -84t-81 -36t-82 37t-35 84t35 83t82 36zM1014 410q0 -172 -138 -301t-328 -129q-189 0 -328 129q-138 129 -138 301v467q0 37 47 67t111 31q64 0 111 -31
q48 -31 48 -67v-467q0 -58 45 -106q44 -48 104 -48t104 47t44 107v469q0 39 48 67t114 29q66 0 111 -29t45 -67v-469z" />
    <glyph glyph-name="yacute" unicode="&#xfd;" 
d="M477 1145q-39 0 -67 38t-27 85q0 47 41 67l287 133q55 23 90 -23q35 -47 35 -93t-41 -66l-287 -133q-20 -8 -31 -8zM2 838q0 57 74 104t142 47t87 -51l232 -555l170 555q20 51 82 51q63 0 141 -48t78 -110q0 -20 -9 -34l-290 -725q-10 -29 -36 -96q-26 -66 -37 -96
t-39 -84q-27 -54 -51 -81q-79 -90 -151 -116q-121 -43 -220 -43q-101 0 -137 26t-36 109q0 131 78 131q291 0 291 262l-359 713q-10 20 -10 41z" />
    <glyph glyph-name="thorn" unicode="&#xfe;" horiz-adv-x="1091" 
d="M717 414v143q0 59 -46 107q-45 48 -107 47q-62 0 -107 -42t-45 -112v-170q0 -33 46 -82t106 -49t107 48q46 49 46 110zM94 1436q0 44 44 70t112 26t115 -27t47 -69v-605q35 66 103 111q69 45 153 45q154 0 260 -126t106 -304v-143q0 -172 -108 -303t-248 -131
q-86 0 -161 48t-105 115v-489q0 -37 -48 -68q-48 -30 -114 -30t-111 30t-45 68v1782z" />
    <glyph glyph-name="ydieresis" unicode="&#xff;" 
d="M698 1409q47 0 81 -36t34 -84t-34 -84t-81 -36t-82 37t-34 84q0 47 34 83q35 36 82 36zM371 1409q47 0 81 -36t34 -84t-34 -84t-81 -36t-82 37t-35 84t35 83t82 36zM2 838q0 57 74 104t142 47t87 -51l232 -555l170 555q20 51 82 51q63 0 141 -48t78 -110q0 -20 -9 -34
l-290 -725q-10 -29 -36 -96q-26 -66 -37 -96t-39 -84q-27 -54 -51 -81q-79 -90 -151 -116q-121 -43 -220 -43q-101 0 -137 26t-36 109q0 131 78 131q291 0 291 262l-359 713q-10 20 -10 41z" />
    <glyph glyph-name="Amacron" unicode="&#x100;" horiz-adv-x="1206" 
d="M397 1718q-43 0 -69 28t-27 72q0 44 27 74t69 29h410q37 0 67 -31q30 -30 31 -72t-29 -71t-69 -29h-410zM453 561h299l-150 549zM221 0q-81 0 -147 39t-66 92q0 6 4 23l381 1249q17 51 75 79t134 28t134 -28t75 -79l383 -1249q4 -16 4 -23q0 -53 -66 -92t-147 -39
q-80 0 -96 59l-70 256h-432l-70 -256q-16 -59 -96 -59z" />
    <glyph glyph-name="amacron" unicode="&#x101;" horiz-adv-x="991" 
d="M590 399v9h-8q-68 0 -112 -6t-79 -32t-35 -73q0 -86 80 -86q51 0 103 57q51 57 51 131zM440 987q236 0 352 -115t115 -286v-488q0 -42 -44 -70t-107 -28t-105 29q-41 29 -41 69v45q-141 -164 -311 -163q-113 0 -187 70t-75 202q0 170 124 240t355 69h74v21q0 61 -37 106
t-126 45t-153 -34t-77 -33q-49 0 -78 48t-29 109q0 68 114 116t236 48zM283 1229q-43 -1 -70 27t-27 72t27 74t70 30h409q37 0 68 -30t31 -73t-30 -72t-69 -28h-409z" />
    <glyph glyph-name="Abreve" unicode="&#x102;" horiz-adv-x="1206" 
d="M725 1972h164q0 -112 -87 -198t-198 -86q-110 0 -198 86t-89 198h164q0 -63 38 -106t84 -43t84 43t38 106zM453 561h299l-150 549zM221 0q-81 0 -147 39t-66 92q0 6 4 23l381 1249q17 51 75 79t134 28t134 -28t75 -79l383 -1249q4 -16 4 -23q0 -53 -66 -92t-147 -39
q-80 0 -96 59l-70 256h-432l-70 -256q-16 -59 -96 -59z" />
    <glyph glyph-name="abreve" unicode="&#x103;" horiz-adv-x="991" 
d="M590 399v9h-8q-68 0 -112 -6t-79 -32t-35 -73q0 -86 80 -86q51 0 103 57q51 57 51 131zM440 987q236 0 352 -115t115 -286v-488q0 -42 -44 -70t-107 -28t-105 29q-41 29 -41 69v45q-141 -164 -311 -163q-113 0 -187 70t-75 202q0 170 124 240t355 69h74v21q0 61 -37 106
t-126 45t-153 -34t-77 -33q-49 0 -78 48t-29 109q0 68 114 116t236 48zM600 1483h164q0 -113 -87 -199t-198 -86t-199 86t-87 199h163q0 -63 38 -107t84 -43q46 -1 84 43t38 107z" />
    <glyph glyph-name="Aogonek" unicode="&#x104;" horiz-adv-x="1206" 
d="M453 561h299l-150 549zM1042 -317q52 -1 52 -65t-64 -64q-129 0 -192 55q-64 55 -64 133t38 150t106 126q-23 12 -29 41l-70 256h-432l-70 -256q-16 -59 -96 -59q-81 0 -147 39t-66 92q0 6 4 23l381 1249q17 51 75 79t134 28t134 -28t75 -79l383 -1249q4 -16 4 -23
q0 -74 -119 -117q-67 -40 -111 -106t-44 -127q-1 -98 118 -98z" />
    <glyph glyph-name="aogonek" unicode="&#x105;" horiz-adv-x="991" 
d="M590 399v9h-8q-68 0 -112 -6t-79 -32t-35 -73q0 -86 80 -86q51 0 103 57q51 57 51 131zM799 -317q51 -1 51 -65t-64 -64q-129 0 -192 55t-64 143q0 152 142 264q-61 27 -62 82v45q-141 -164 -311 -163q-113 0 -187 70t-75 202q0 170 124 240t355 69h74v21q0 61 -37 106
t-126 45t-153 -34t-77 -33q-49 0 -78 48t-29 109q0 68 114 116t236 48q236 0 352 -115t115 -286v-488q0 -59 -76 -86q-67 -36 -109 -104t-42 -127q0 -98 119 -98z" />
    <glyph glyph-name="Cacute" unicode="&#x106;" horiz-adv-x="1150" 
d="M514 1634q-39 0 -67 38q-27 38 -27 85t41 68l287 133q14 6 28 6q39 0 68 -38q28 -38 28 -84t-41 -66l-286 -134q-20 -8 -31 -8zM414 1014v-543q0 -205 186 -205q116 0 150 75q23 55 30 130q8 96 158 96q88 1 125 -31t37 -120q0 -199 -144 -314q-144 -114 -367 -114
q-222 0 -359 116q-136 117 -136 367v543q0 250 136 366t358 117q222 -1 367 -109q144 -108 145 -298q0 -88 -37 -120t-123 -32q-154 0 -160 96q-6 184 -186 184t-180 -204z" />
    <glyph glyph-name="cacute" unicode="&#x107;" horiz-adv-x="905" 
d="M383 1145q-39 0 -67 38t-28 85t42 67l286 133q55 24 91 -23q35 -47 35 -93t-42 -66l-286 -133q-20 -8 -31 -8zM522 -20q-233 0 -349 118t-116 316v139q0 195 116 315t345 119q146 0 246 -50t100 -120q0 -51 -36 -103t-87 -52q-16 0 -74 24t-122 25q-170 0 -170 -158v-139
q0 -158 172 -158q61 0 117 28t77 27q59 0 97 -49t39 -102q0 -72 -105 -126t-250 -54z" />
    <glyph glyph-name="Ccircumflex" unicode="&#x108;" horiz-adv-x="1150" 
d="M352 1655q-19 1 -37 29t-18 77t51 78l213 115q21 10 35 10t35 -10l213 -115q51 -29 51 -78t-22 -85t-64 -15l-213 115l-213 -115q-12 -6 -31 -6zM414 1014v-543q0 -205 186 -205q116 0 150 75q23 55 30 130q8 96 158 96q88 1 125 -31t37 -120q0 -199 -144 -314
q-144 -114 -367 -114q-222 0 -359 116q-136 117 -136 367v543q0 250 136 366t358 117q222 -1 367 -109q144 -108 145 -298q0 -88 -37 -120t-123 -32q-154 0 -160 96q-6 184 -186 184t-180 -204z" />
    <glyph glyph-name="ccircumflex" unicode="&#x109;" horiz-adv-x="905" 
d="M252 1165q-19 0 -37 29t-18 78t51 78l213 114q36 18 69 0l213 -114q51 -29 51 -78t-18 -78t-36 -29t-31 6l-213 115l-213 -115q-12 -6 -31 -6zM522 -20q-233 0 -349 118t-116 316v139q0 195 116 315t345 119q146 0 246 -50t100 -120q0 -51 -36 -103t-87 -52q-16 0 -74 24
t-122 25q-170 0 -170 -158v-139q0 -158 172 -158q61 0 117 28t77 27q59 0 97 -49t39 -102q0 -72 -105 -126t-250 -54z" />
    <glyph glyph-name="Cdotaccent" unicode="&#x10a;" horiz-adv-x="1150" 
d="M600 1898q47 0 81 -36t34 -83q0 -48 -34 -84t-81 -36t-82 37t-35 84q0 46 35 82t82 36zM414 1014v-543q0 -205 186 -205q116 0 150 75q23 55 30 130q8 96 158 96q88 1 125 -31t37 -120q0 -199 -144 -314q-144 -114 -367 -114q-222 0 -359 116q-136 117 -136 367v543
q0 250 136 366t358 117q222 -1 367 -109q144 -108 145 -298q0 -88 -37 -120t-123 -32q-154 0 -160 96q-6 184 -186 184t-180 -204z" />
    <glyph glyph-name="cdotaccent" unicode="&#x10b;" horiz-adv-x="905" 
d="M487 1409q47 0 81 -36t34 -84t-34 -84t-81 -36t-81 37t-35 84q1 47 35 83t81 36zM522 -20q-233 0 -349 118t-116 316v139q0 195 116 315t345 119q146 0 246 -50t100 -120q0 -51 -36 -103t-87 -52q-16 0 -74 24t-122 25q-170 0 -170 -158v-139q0 -158 172 -158
q61 0 117 28t77 27q59 0 97 -49t39 -102q0 -72 -105 -126t-250 -54z" />
    <glyph glyph-name="Ccaron" unicode="&#x10c;" horiz-adv-x="1150" 
d="M295 1882q0 49 22 85t64 15l213 -114l213 114q41 20 63 -15q22 -36 22 -85t-50 -78l-213 -114q-36 -18 -70 0l-213 114q-51 29 -51 78zM414 1014v-543q0 -205 186 -205q116 0 150 75q23 55 30 130q8 96 158 96q88 1 125 -31t37 -120q0 -199 -144 -314
q-144 -114 -367 -114q-222 0 -359 116q-136 117 -136 367v543q0 250 136 366t358 117q222 -1 367 -109q144 -108 145 -298q0 -88 -37 -120t-123 -32q-154 0 -160 96q-6 184 -186 184t-180 -204z" />
    <glyph glyph-name="ccaron" unicode="&#x10d;" horiz-adv-x="905" 
d="M725 1499q19 0 37 -29t18 -65q0 -61 -51 -90l-213 -115q-20 -10 -34 -10t-36 10l-213 115q-51 29 -51 78t18 77t38 29q18 0 30 -6l213 -115l213 115q12 6 31 6zM522 -20q-233 0 -349 118t-116 316v139q0 195 116 315t345 119q146 0 246 -50t100 -120q0 -51 -36 -103
t-87 -52q-16 0 -74 24t-122 25q-170 0 -170 -158v-139q0 -158 172 -158q61 0 117 28t77 27q59 0 97 -49t39 -102q0 -72 -105 -126t-250 -54z" />
    <glyph glyph-name="Dcaron" unicode="&#x10e;" horiz-adv-x="1208" 
d="M860 1882q0 -49 -51 -78l-213 -114q-36 -18 -70 0l-213 114q-51 29 -51 78t23 85t63 15l213 -114l213 114q41 21 64 -15q22 -36 22 -85zM612 1219h-182v-940h182q184 0 185 204v531q-1 205 -185 205zM250 1497h362q228 0 366 -117t138 -366v-531q0 -251 -137 -367
t-367 -116h-362q-61 0 -100 29t-39 67v1305q0 39 39 67t100 29z" />
    <glyph glyph-name="dcaron" unicode="&#x10f;" horiz-adv-x="1091" 
d="M1249 1518q63 0 111 -46t47 -110q0 -33 -127 -328q-16 -37 -57 -37t-74 23t-33 48t8 42l52 111q-82 47 -82 139q0 66 46 112t109 46zM375 557v-143q0 -62 44 -110t103 -48t109 49q49 49 49 82v170q0 68 -48 111t-108 43q-60 1 -105 -47q-44 -48 -44 -107zM680 1436
q0 44 46 70t115 26t113 -27t43 -69v-1338q0 -38 -45 -68t-106 -30t-104 31q-42 31 -42 67v45q-32 -67 -112 -115t-174 -48q-141 0 -249 131t-108 303v143q1 176 107 303t256 127q88 0 157 -45t103 -111v605z" />
    <glyph glyph-name="Dcroat" unicode="&#x110;" horiz-adv-x="1220" 
d="M625 1219h-183v-324h127q37 0 57 -34t21 -80q0 -46 -20 -79t-58 -32h-127v-391h183q184 0 184 204v531q0 205 -184 205zM262 1497h363q229 0 366 -117t137 -366v-531q0 -251 -137 -367t-366 -116h-363q-61 0 -100 29t-39 67v574h-66q-37 0 -57 32t-20 79q0 46 20 80
t57 34h66v506q0 39 39 67t100 29z" />
    <glyph glyph-name="dcroat" unicode="&#x111;" horiz-adv-x="1091" 
d="M375 557v-143q0 -62 44 -110t103 -48t109 49q49 49 49 82v170q0 68 -48 111t-108 43q-60 1 -105 -47q-44 -48 -44 -107zM680 1436q0 44 46 70t115 26t113 -27t43 -69v-95h45q37 0 58 -33q20 -34 20 -80t-20 -79t-58 -33h-45v-1018q0 -38 -45 -68t-106 -30t-104 31
q-42 31 -42 67v45q-32 -67 -112 -115t-174 -48q-141 0 -249 131t-108 303v143q1 176 107 303t256 127q88 0 157 -45t103 -111v285h-125q-37 0 -57 33t-20 79t20 80t57 33h125v95z" />
    <glyph glyph-name="Emacron" unicode="&#x112;" horiz-adv-x="1103" 
d="M397 1718q-43 0 -69 28t-27 72q0 44 27 74t69 29h410q37 0 67 -31q30 -30 31 -72t-29 -71t-69 -29h-410zM430 1219v-347h307q45 0 71 -36t26 -86q0 -49 -25 -86t-72 -37h-307v-348h549q45 0 71 -41q26 -40 26 -98t-26 -99q-24 -41 -71 -41h-729q-57 0 -98 26t-41 72v1301
q0 47 41 73t98 25h729q47 0 72 -41t25 -98t-26 -98t-71 -41h-549z" />
    <glyph glyph-name="emacron" unicode="&#x113;" 
d="M319 1229q-43 -1 -69 27t-27 72q0 44 27 74t69 30h410q37 0 68 -30t31 -73t-30 -72t-69 -28h-410zM373 586h254q43 0 43 53t-44 86t-104 33t-105 -33q-44 -33 -44 -90v-49zM55 563q0 174 138 299q139 125 327 125t318 -109q129 -110 129 -280q0 -130 -60 -160t-139 -30
h-395v-13q0 -76 57 -122q56 -46 140 -46t162 38t106 38q51 0 84 -48t32 -91q0 -63 -109 -124q-110 -60 -272 -60q-229 0 -373 120t-145 314v149z" />
    <glyph glyph-name="Ebreve" unicode="&#x114;" horiz-adv-x="1103" 
d="M713 1972h164q0 -112 -87 -198t-198 -86t-199 86t-88 198h164q0 -63 38 -106t84 -43t84 43t38 106zM430 1219v-347h307q45 0 71 -36t26 -86q0 -49 -25 -86t-72 -37h-307v-348h549q45 0 71 -41q26 -40 26 -98t-26 -99q-24 -41 -71 -41h-729q-57 0 -98 26t-41 72v1301
q0 47 41 73t98 25h729q47 0 72 -41t25 -98t-26 -98t-71 -41h-549z" />
    <glyph glyph-name="ebreve" unicode="&#x115;" 
d="M643 1483h164q0 -113 -87 -199t-198 -86q-110 0 -198 86t-88 199h163q0 -63 38 -107t84 -43q46 -1 84 43t38 107zM373 586h254q43 0 43 53t-44 86t-104 33t-105 -33q-44 -33 -44 -90v-49zM55 563q0 174 138 299q139 125 327 125t318 -109q129 -110 129 -280
q0 -130 -60 -160t-139 -30h-395v-13q0 -76 57 -122q56 -46 140 -46t162 38t106 38q51 0 84 -48t32 -91q0 -63 -109 -124q-110 -60 -272 -60q-229 0 -373 120t-145 314v149z" />
    <glyph glyph-name="Edotaccent" unicode="&#x116;" horiz-adv-x="1103" 
d="M621 1898q47 0 81 -36t33 -83q0 -48 -34 -84q-35 -36 -81 -36t-81 37t-35 84q0 46 35 82t82 36zM430 1219v-347h307q45 0 71 -36t26 -86q0 -49 -25 -86t-72 -37h-307v-348h549q45 0 71 -41q26 -40 26 -98t-26 -99q-24 -41 -71 -41h-729q-57 0 -98 26t-41 72v1301
q0 47 41 73t98 25h729q47 0 72 -41t25 -98t-26 -98t-71 -41h-549z" />
    <glyph glyph-name="edotaccent" unicode="&#x117;" 
d="M522 1409q47 0 81 -36t34 -84t-34 -84t-81 -36t-82 37t-34 84q0 47 34 83q35 36 82 36zM373 586h254q43 0 43 53t-44 86t-104 33t-105 -33q-44 -33 -44 -90v-49zM55 563q0 174 138 299q139 125 327 125t318 -109q129 -110 129 -280q0 -130 -60 -160t-139 -30h-395v-13
q0 -76 57 -122q56 -46 140 -46t162 38t106 38q51 0 84 -48t32 -91q0 -63 -109 -124q-110 -60 -272 -60q-229 0 -373 120t-145 314v149z" />
    <glyph glyph-name="Eogonek" unicode="&#x118;" horiz-adv-x="1103" 
d="M987 -317q51 -1 51 -65t-63 -64q-129 0 -193 55q-63 55 -63 143q0 137 123 248h-592q-57 0 -98 26t-41 72v1301q0 47 41 73t98 25h729q47 0 72 -41t25 -98t-26 -98t-71 -41h-549v-347h307q45 0 71 -36t26 -86q0 -49 -25 -86t-72 -37h-307v-348h549q45 0 71 -41t25 -101
q0 -111 -69 -133q-58 -41 -98 -104t-40 -119q0 -98 119 -98z" />
    <glyph glyph-name="eogonek" unicode="&#x119;" 
d="M373 586h254q43 0 43 53t-44 86t-104 33t-105 -33q-44 -33 -44 -90v-49zM756 -317q51 -1 51 -65t-64 -64q-129 0 -192 55t-64 143q0 121 101 228h-15q-229 0 -373 120t-145 314v149q1 174 139 299t326 125t318 -109q129 -110 129 -280q0 -130 -60 -160t-139 -30h-395v-13
q0 -76 57 -122q56 -46 140 -46t162 38t106 38q51 0 84 -48q32 -48 32 -89t-42 -81t-113 -67q-68 -40 -115 -108t-47 -129q0 -98 119 -98z" />
    <glyph glyph-name="Ecaron" unicode="&#x11a;" horiz-adv-x="1103" 
d="M291 1882q0 49 22 85t64 15l213 -114l213 114q41 20 63 -15q22 -36 22 -85t-50 -78l-213 -114q-36 -18 -70 0l-213 114q-51 29 -51 78zM430 1219v-347h307q45 0 71 -36t26 -86q0 -49 -25 -86t-72 -37h-307v-348h549q45 0 71 -41q26 -40 26 -98t-26 -99q-24 -41 -71 -41
h-729q-57 0 -98 26t-41 72v1301q0 47 41 73t98 25h729q47 0 72 -41t25 -98t-26 -98t-71 -41h-549z" />
    <glyph glyph-name="ecaron" unicode="&#x11b;" 
d="M770 1499q19 0 37 -29t18 -65q0 -61 -51 -90l-213 -115q-21 -10 -35 -10t-34 10l-213 115q-51 29 -51 78t18 77t36 29q18 0 31 -6l213 -115l213 115q12 6 31 6zM373 586h254q43 0 43 53t-44 86t-104 33t-105 -33q-44 -33 -44 -90v-49zM55 563q0 174 138 299
q139 125 327 125t318 -109q129 -110 129 -280q0 -130 -60 -160t-139 -30h-395v-13q0 -76 57 -122q56 -46 140 -46t162 38t106 38q51 0 84 -48t32 -91q0 -63 -109 -124q-110 -60 -272 -60q-229 0 -373 120t-145 314v149z" />
    <glyph glyph-name="Gcircumflex" unicode="&#x11c;" horiz-adv-x="1173" 
d="M322 1655q-18 1 -37 29t-19 77t51 78l213 115q20 10 34 10t36 -10l213 -115q51 -29 51 -78t-22 -84t-64 -16l-213 115l-213 -115q-12 -6 -30 -6zM414 1014v-543q0 -205 183 -205t183 205v70h-121q-45 0 -71 36t-25 85q0 49 27 87t69 37h345q44 0 70 -30t26 -70v-215
q0 -250 -137 -367q-137 -116 -365 -116t-367 116q-137 117 -137 367v543q0 250 136 366t358 117q222 -1 367 -109q144 -108 145 -298q0 -88 -37 -120t-123 -32q-158 0 -160 96q0 104 -45 143q-45 40 -137 42q-184 0 -184 -205z" />
    <glyph glyph-name="gcircumflex" unicode="&#x11d;" horiz-adv-x="978" 
d="M238 1165q-18 0 -37 29t-19 78t51 78l213 114q36 18 70 0l213 -114q51 -29 51 -78t-18 -78t-36 -29t-32 6l-213 115l-213 -115q-12 -6 -30 -6zM647 -129q0 45 -22 73q-35 45 -219 64q-82 -42 -82 -112t48 -105t114 -35t113 35q48 35 48 80zM598 618v31q0 66 -31 110
t-85 44t-85 -44t-30 -110v-28q1 -70 31 -115t84 -45q54 -1 85 43t31 114zM479 276q-68 0 -123 13q-8 -14 -8 -27q0 -29 62 -43t152 -26q89 -12 178 -36t152 -91q62 -68 62 -177q0 -169 -135 -251t-327 -82t-330 80q-137 80 -137 216t137 214q-74 43 -74 130t105 162
q-133 98 -134 260v31q0 150 116 244t304 94q129 0 232 -49q35 84 61 114q28 30 68 30t74 -32t34 -64t-22 -50t-52 -43q-31 -25 -47 -41q78 -84 78 -203v-31q0 -146 -120 -244t-306 -98z" />
    <glyph glyph-name="Gbreve" unicode="&#x11e;" horiz-adv-x="1173" 
d="M715 1972h164q0 -112 -87 -198t-198 -86t-199 86t-88 198h164q0 -63 38 -106t84 -43t84 43t38 106zM414 1014v-543q0 -205 183 -205t183 205v70h-121q-45 0 -71 36t-25 85q0 49 27 87t69 37h345q44 0 70 -30t26 -70v-215q0 -250 -137 -367q-137 -116 -365 -116t-367 116
q-137 117 -137 367v543q0 250 136 366t358 117q222 -1 367 -109q144 -108 145 -298q0 -88 -37 -120t-123 -32q-158 0 -160 96q0 104 -45 143q-45 40 -137 42q-184 0 -184 -205z" />
    <glyph glyph-name="gbreve" unicode="&#x11f;" horiz-adv-x="978" 
d="M602 1483h164q0 -113 -87 -199t-198 -86t-199 86t-87 199h163q0 -63 38 -107t84 -43q46 -1 84 43t38 107zM647 -129q0 45 -22 73q-35 45 -219 64q-82 -42 -82 -112t48 -105t114 -35t113 35q48 35 48 80zM598 618v31q0 66 -31 110t-85 44t-85 -44t-30 -110v-28
q1 -70 31 -115t84 -45q54 -1 85 43t31 114zM479 276q-68 0 -123 13q-8 -14 -8 -27q0 -29 62 -43t152 -26q89 -12 178 -36t152 -91q62 -68 62 -177q0 -169 -135 -251t-327 -82t-330 80q-137 80 -137 216t137 214q-74 43 -74 130t105 162q-133 98 -134 260v31q0 150 116 244
t304 94q129 0 232 -49q35 84 61 114q28 30 68 30t74 -32t34 -64t-22 -50t-52 -43q-31 -25 -47 -41q78 -84 78 -203v-31q0 -146 -120 -244t-306 -98z" />
    <glyph glyph-name="Gdotaccent" unicode="&#x120;" horiz-adv-x="1173" 
d="M588 1898q47 0 81 -36q33 -36 33 -83q0 -48 -34 -84t-80 -36q-47 0 -82 37t-35 84q0 46 35 82t82 36zM414 1014v-543q0 -205 183 -205t183 205v70h-121q-45 0 -71 36t-25 85q0 49 27 87t69 37h345q44 0 70 -30t26 -70v-215q0 -250 -137 -367q-137 -116 -365 -116
t-367 116q-137 117 -137 367v543q0 250 136 366t358 117q222 -1 367 -109q144 -108 145 -298q0 -88 -37 -120t-123 -32q-158 0 -160 96q0 104 -45 143q-45 40 -137 42q-184 0 -184 -205z" />
    <glyph glyph-name="gdotaccent" unicode="&#x121;" horiz-adv-x="978" 
d="M481 1409q47 0 81 -36t34 -84t-34 -84t-81 -36t-82 37t-34 84q0 47 34 83q35 36 82 36zM647 -129q0 45 -22 73q-35 45 -219 64q-82 -42 -82 -112t48 -105t114 -35t113 35q48 35 48 80zM598 618v31q0 66 -31 110t-85 44t-85 -44t-30 -110v-28q1 -70 31 -115t84 -45
q54 -1 85 43t31 114zM479 276q-68 0 -123 13q-8 -14 -8 -27q0 -29 62 -43t152 -26q89 -12 178 -36t152 -91q62 -68 62 -177q0 -169 -135 -251t-327 -82t-330 80q-137 80 -137 216t137 214q-74 43 -74 130t105 162q-133 98 -134 260v31q0 150 116 244t304 94q129 0 232 -49
q35 84 61 114q28 30 68 30t74 -32t34 -64t-22 -50t-52 -43q-31 -25 -47 -41q78 -84 78 -203v-31q0 -146 -120 -244t-306 -98z" />
    <glyph glyph-name="Gcommaaccent" unicode="&#x122;" horiz-adv-x="1173" 
d="M463 -428q-39 0 -67 38t-28 85t42 67l286 134q16 6 29 6q39 0 68 -38t29 -84t-42 -67l-286 -133q-20 -8 -31 -8zM414 1014v-543q0 -205 183 -205t183 205v70h-121q-45 0 -71 36t-25 85q0 49 27 87t69 37h345q44 0 70 -30t26 -70v-215q0 -250 -137 -367
q-137 -116 -365 -116t-367 116q-137 117 -137 367v543q0 250 136 366t358 117q222 -1 367 -109q144 -108 145 -298q0 -88 -37 -120t-123 -32q-158 0 -160 96q0 104 -45 143q-45 40 -137 42q-184 0 -184 -205z" />
    <glyph glyph-name="gcommaaccent" unicode="&#x123;" horiz-adv-x="978" 
d="M395 1145q-39 0 -67 38t-27 85q0 47 41 67l287 133q55 23 90 -23q35 -47 35 -93t-41 -66l-287 -133q-20 -8 -31 -8zM498 1528q-63 0 -111 46q-47 46 -47 109q0 33 127 328q16 37 57 37t74 -23t33 -48t-8 -42l-52 -110q82 -47 82 -139q0 -66 -46 -112t-109 -46zM647 -129
q0 45 -22 73q-35 45 -219 64q-82 -42 -82 -112t48 -105t114 -35t113 35q48 35 48 80zM598 618v31q0 66 -31 110t-85 44t-85 -44t-30 -110v-28q1 -70 31 -115t84 -45q54 -1 85 43t31 114zM479 276q-68 0 -123 13q-8 -14 -8 -27q0 -29 62 -43t152 -26q89 -12 178 -36t152 -91
q62 -68 62 -177q0 -169 -135 -251t-327 -82t-330 80q-137 80 -137 216t137 214q-74 43 -74 130t105 162q-133 98 -134 260v31q0 150 116 244t304 94q129 0 232 -49q35 84 61 114q28 30 68 30t74 -32t34 -64t-22 -50t-52 -43q-31 -25 -47 -41q78 -84 78 -203v-31
q0 -146 -120 -244t-306 -98z" />
    <glyph glyph-name="Hcircumflex" unicode="&#x124;" horiz-adv-x="1267" 
d="M391 1655q-19 1 -37 29t-18 77t51 78l213 115q20 10 34 10t36 -10l213 -115q51 -29 51 -78t-23 -85t-63 -15l-213 115l-213 -115q-12 -6 -31 -6zM838 98v555h-408v-555q0 -46 -47 -72t-113 -26t-112 26t-47 72v1303q0 47 47 72q46 25 112 25t113 -26q47 -24 47 -71v-502
h408v502q0 47 47 72t113 25t112 -26q47 -24 47 -71v-1303q0 -46 -47 -72t-113 -26q-67 0 -113 26t-46 72z" />
    <glyph glyph-name="hcircumflex" unicode="&#x125;" horiz-adv-x="1095" 
d="M2 1688q-19 0 -37 28t-18 78q0 49 51 78l213 115q21 10 35 10t35 -10l213 -115q51 -29 51 -78t-23 -85t-63 -15l-213 114l-213 -114q-12 -6 -31 -6zM412 557v-459q0 -38 -48 -68t-114 -30t-111 30t-45 68v1338q0 44 44 70t112 26t115 -27t47 -69v-605q31 66 97 111
q67 45 157 45q141 0 244 -127t104 -303v-459q0 -46 -47 -72t-111 -26t-112 27t-48 71v459q0 59 -44 107t-100 47q-56 0 -98 -42t-42 -112z" />
    <glyph glyph-name="Hbar" unicode="&#x126;" horiz-adv-x="1275" 
d="M434 899h408v191h-408v-191zM842 98v555h-408v-555q0 -46 -47 -72t-113 -26t-112 26t-47 72v992h-9q-37 0 -56 30t-19 70q0 41 19 71t56 29h9v111q0 47 47 72q46 25 112 25t113 -26q47 -24 47 -71v-111h408v111q0 47 47 72t113 25t112 -26q47 -24 47 -71v-111h8
q37 0 56 -29q18 -30 18 -72t-18 -71t-56 -28h-8v-992q0 -46 -47 -72t-113 -26q-67 0 -113 26t-46 72z" />
    <glyph glyph-name="hbar" unicode="&#x127;" horiz-adv-x="1095" 
d="M-49 1216q1 44 27 74t69 29h47v117q0 44 44 70t112 26t115 -27t47 -69v-117h45q39 0 69 -31q30 -30 29 -72q0 -42 -30 -71t-68 -29h-45v-285q31 66 97 111q67 45 157 45q141 0 244 -127t104 -303v-459q0 -46 -47 -72t-111 -26t-112 27t-48 71v459q0 59 -44 107t-100 47
q-56 0 -98 -42t-42 -112v-459q0 -38 -48 -68t-114 -30t-111 30t-45 68v1018h-47q-43 0 -70 28q-26 28 -26 72z" />
    <glyph glyph-name="Itilde" unicode="&#x128;" horiz-adv-x="540" 
d="M158 1731q-44 0 -100 -22t-74 -21q-41 0 -60 35q-18 36 -18 65q0 150 174 149q63 1 153 -27q89 -28 141 -28t107 22t74 21q41 0 59 -36t19 -64q0 -150 -174 -150q-78 0 -167 28t-134 28zM111 98v1303q0 47 47 72q46 25 112 25t113 -26q47 -24 47 -71v-1303q0 -46 -47 -72
t-113 -26t-112 26t-47 72z" />
    <glyph glyph-name="itilde" unicode="&#x129;" horiz-adv-x="499" 
d="M141 1241q-45 1 -100 -21t-85 -22t-48 36t-19 64q0 150 174 150q63 0 153 -28t142 -28q50 0 106 22t86 22t48 -36t18 -65q0 -150 -174 -149q-78 0 -167 28t-134 27zM92 879q0 43 44 69t113 27q69 0 115 -27t46 -69v-781q0 -38 -48 -68t-114 -30t-111 30t-45 68v781z" />
    <glyph glyph-name="Imacron" unicode="&#x12a;" horiz-adv-x="540" 
d="M63 1718q-43 0 -69 28t-27 72q0 44 27 74t69 29h410q39 0 69 -31q30 -30 30 -72t-30 -71t-69 -29h-410zM111 98v1303q0 47 47 72q46 25 112 25t113 -26q47 -24 47 -71v-1303q0 -46 -47 -72t-113 -26t-112 26t-47 72z" />
    <glyph glyph-name="imacron" unicode="&#x12b;" horiz-adv-x="499" 
d="M-49 1328q0 44 26 74q27 30 70 30h410q39 0 69 -30t29 -73q0 -43 -30 -72t-68 -28h-410q-43 0 -70 27q-26 28 -26 72zM92 879q0 43 44 69t113 27q69 0 115 -27t46 -69v-781q0 -38 -48 -68t-114 -30t-111 30t-45 68v781z" />
    <glyph glyph-name="Ibreve" unicode="&#x12c;" horiz-adv-x="540" 
d="M393 1972h164q0 -112 -87 -198t-198 -86q-110 0 -198 86t-88 198h164q0 -63 38 -106t83 -43q46 0 84 43t38 106zM111 98v1303q0 47 47 72q46 25 112 25t113 -26q47 -24 47 -71v-1303q0 -46 -47 -72t-113 -26t-112 26t-47 72z" />
    <glyph glyph-name="ibreve" unicode="&#x12d;" horiz-adv-x="499" 
d="M373 1483h164q0 -113 -87 -199t-198 -86t-199 86t-88 199h164q0 -63 38 -107t84 -43q46 -1 84 43t38 107zM92 879q0 43 44 69t113 27q69 0 115 -27t46 -69v-781q0 -38 -48 -68t-114 -30t-111 30t-45 68v781z" />
    <glyph glyph-name="Iogonek" unicode="&#x12e;" horiz-adv-x="540" 
d="M322 -317q51 -1 51 -65t-64 -64q-129 0 -192 55t-64 143q0 147 135 260q-78 25 -77 86v1303q0 47 47 72q46 25 112 25t113 -26q47 -24 47 -71v-1303q0 -59 -74 -84q-66 -38 -110 -106t-43 -127q0 -98 119 -98z" />
    <glyph glyph-name="iogonek" unicode="&#x12f;" horiz-adv-x="499" 
d="M249 1456q69 0 118 -43t49 -102t-49 -103t-118 -45q-69 0 -118 44q-49 43 -49 103t49 103t118 43zM295 -317q51 -1 51 -65t-63 -64q-129 0 -193 55q-63 55 -63 134q0 164 139 271q-74 31 -74 84v781q0 43 44 69t113 27q69 0 115 -27t46 -69v-781q0 -51 -74 -82
q-68 -38 -114 -106t-46 -129q0 -98 119 -98z" />
    <glyph glyph-name="Idotaccent" unicode="&#x130;" horiz-adv-x="540" 
d="M272 1898q47 0 81 -36t34 -83q0 -48 -34 -84t-81 -36t-82 37t-34 84q0 47 34 83q35 35 82 35zM111 98v1303q0 47 47 72q46 25 112 25t113 -26q47 -24 47 -71v-1303q0 -46 -47 -72t-113 -26t-112 26t-47 72z" />
    <glyph glyph-name="dotlessi" unicode="&#x131;" horiz-adv-x="499" 
d="M92 879q0 43 44 69t113 27q69 0 115 -27t46 -69v-781q0 -38 -48 -68t-114 -30t-111 30t-45 68v781z" />
    <glyph glyph-name="IJ" unicode="&#x132;" horiz-adv-x="1648" 
d="M1225 1219h-178q-45 0 -71 41t-26 98t25 98t72 41h358q57 0 98 -26t41 -72v-928q0 -250 -136 -367q-136 -116 -358 -116t-367 114q-144 115 -144 314q0 88 36 120q37 32 125 31q150 0 158 -96q7 -78 27 -123q35 -80 153 -82q186 0 187 205v748zM111 98v1303q0 47 47 72
q46 25 112 25t113 -26q47 -24 47 -71v-1303q0 -46 -47 -72t-113 -26t-112 26t-47 72z" />
    <glyph glyph-name="ij" unicode="&#x133;" horiz-adv-x="948" 
d="M539 879q-1 43 43 69t113 27q69 0 115 -27t46 -69v-936q0 -175 -86 -281t-246 -106t-159 129q0 61 33 99q34 38 77 38t53 30t11 91v936zM862 1311q0 -59 -49 -103t-118 -45q-69 0 -117 44q-48 43 -50 103q0 60 49 103t118 43t118 -43t49 -102zM249 1456q69 0 118 -43
t49 -102t-49 -103t-118 -45q-69 0 -118 44q-49 43 -49 103t49 103t118 43zM92 879q0 43 44 69t113 27q69 0 115 -27t46 -69v-781q0 -38 -48 -68t-114 -30t-111 30t-45 68v781z" />
    <glyph glyph-name="Jcircumflex" unicode="&#x134;" horiz-adv-x="1122" 
d="M318 1655q-18 1 -37 29t-19 77t51 78l213 115q20 10 34 10t36 -10l213 -115q51 -29 51 -78t-22 -84t-64 -16l-213 115l-213 -115q-12 -6 -30 -6zM698 1219h-178q-44 0 -70 41t-26 98t25 98t71 41h359q57 0 98 -26t41 -72v-928q0 -250 -136 -367q-136 -116 -358 -116
t-367 114q-144 114 -145 314q0 88 37 120t125 31q150 0 158 -96q14 -153 85 -186q38 -18 95 -19q186 0 186 205v748z" />
    <glyph glyph-name="jcircumflex" unicode="&#x135;" horiz-adv-x="501" 
d="M8 1165q-19 0 -37 29t-18 78t51 78l213 114q36 18 70 0l213 -114q51 -29 51 -78q-1 -49 -19 -78t-36 -29t-31 6l-213 115l-213 -115q-12 -6 -31 -6zM92 879q0 43 44 69t113 27q69 0 115 -27t46 -69v-936q0 -175 -86 -281t-246 -106t-160 129q0 61 34 99t77 38t53 30
t10 91v936z" />
    <glyph glyph-name="Kcommaaccent" unicode="&#x136;" horiz-adv-x="1159" 
d="M457 -428q-39 0 -67 38t-28 85t41 67l287 134q14 6 29 6q39 0 67 -38t29 -84q0 -46 -41 -67l-287 -133q-20 -8 -30 -8zM111 98v1303q0 47 47 72q46 25 112 25t113 -26q47 -24 47 -71v-492l383 543q31 45 89 45t120 -52t63 -112q0 -33 -20 -61l-336 -422l424 -649
q16 -27 16 -54q0 -59 -61 -109t-133 -50t-109 59l-350 533l-86 -111v-371q0 -46 -47 -72t-113 -26t-112 26t-47 72z" />
    <glyph glyph-name="kcommaaccent" unicode="&#x137;" horiz-adv-x="1042" 
d="M385 -428q-39 0 -67 38t-28 85t42 67l286 134q16 6 29 6q39 0 68 -38t29 -84t-42 -67l-286 -133q-20 -8 -31 -8zM1022 137q0 -53 -61 -105t-115 -52t-82 38l-248 367l-104 -96v-191q0 -38 -48 -68t-114 -30t-111 30t-45 68v1338q0 44 44 70t113 26t115 -27t46 -69v-803
l340 330q24 25 68 25t95 -51q51 -50 51 -91t-24 -66l-217 -200l281 -394q16 -27 16 -49z" />
    <glyph glyph-name="kgreenlandic" unicode="&#x138;" horiz-adv-x="1040" 
d="M1020 137q0 -53 -62 -105t-115 -52q-54 0 -81 38l-248 367l-104 -96v-191q0 -38 -48 -68t-114 -30t-111 30t-45 68v781q0 43 44 69t113 27q69 0 115 -27t46 -69v-246l340 330q24 25 68 25t95 -51q51 -50 51 -91t-24 -66l-217 -200l281 -394q16 -27 16 -49z" />
    <glyph glyph-name="Lacute" unicode="&#x139;" horiz-adv-x="1007" 
d="M393 1634q-39 0 -67 38t-27 85q0 47 41 68l287 133q14 6 28 6q39 0 68 -38t29 -84t-41 -66l-287 -134q-20 -8 -31 -8zM897 0h-647q-57 0 -98 26t-41 72v1303q0 47 47 72q46 25 112 25t113 -26q47 -24 47 -71v-1122h467q43 0 68 -41q25 -40 25 -98t-26 -99
q-24 -41 -67 -41z" />
    <glyph glyph-name="lacute" unicode="&#x13a;" horiz-adv-x="538" 
d="M199 1616q-39 0 -67 38t-28 85t41 67l287 133q56 24 96 -31q29 -38 29 -84t-41 -67l-287 -133q-20 -8 -30 -8zM111 1436q-1 44 43 70t113 26t115 -27t46 -69v-1338q0 -38 -47 -68t-114 -30t-111 30t-45 68v1338z" />
    <glyph glyph-name="Lcommaaccent" unicode="&#x13b;" horiz-adv-x="1007" 
d="M401 -428q-39 0 -67 38t-27 85q0 47 41 67l287 134q16 6 29 6q40 0 68 -38t28 -84t-41 -67l-287 -133q-20 -8 -31 -8zM897 0h-647q-57 0 -98 26t-41 72v1303q0 47 47 72q46 25 112 25t113 -26q47 -24 47 -71v-1122h467q43 0 68 -41q25 -40 25 -98t-26 -99
q-24 -41 -67 -41z" />
    <glyph glyph-name="lcommaaccent" unicode="&#x13c;" horiz-adv-x="538" 
d="M137 -428q-39 0 -67 38t-27 85q0 47 41 67l287 134q14 6 28 6q39 0 68 -38t29 -84t-41 -67l-287 -133q-20 -8 -31 -8zM111 1436q-1 44 43 70t113 26t115 -27t46 -69v-1338q0 -38 -47 -68t-114 -30t-111 30t-45 68v1338z" />
    <glyph glyph-name="Lcaron" unicode="&#x13d;" horiz-adv-x="1011" 
d="M797 1518q63 0 110 -46t47 -110q0 -33 -127 -328q-16 -37 -57 -37t-74 23q-50 35 -24 90l51 111q-82 47 -82 139q1 66 47 112t109 46zM897 0h-647q-57 0 -98 26t-41 72v1303q0 47 47 72q46 25 112 25t113 -26q47 -24 47 -71v-1122h467q43 0 68 -41q25 -40 25 -98t-26 -99
q-24 -41 -67 -41z" />
    <glyph glyph-name="lcaron" unicode="&#x13e;" horiz-adv-x="538" 
d="M684 1518q62 0 110 -46t48 -110q0 -33 -127 -328q-15 -37 -57 -37t-74 23t-33 48q0 25 8 42l51 111q-82 47 -82 139q0 66 46 112t110 46zM111 1436q-1 44 43 70t113 26t115 -27t46 -69v-1338q0 -38 -47 -68t-114 -30t-111 30t-45 68v1338z" />
    <glyph glyph-name="Ldot" unicode="&#x13f;" horiz-adv-x="1009" 
d="M781 1008q69 0 118 -43t49 -103t-49 -103q-49 -44 -118 -44t-117 44t-50 103q0 58 49 102t118 44zM897 0h-647q-57 0 -98 26t-41 72v1303q0 47 47 72q46 25 112 25t113 -26q47 -24 47 -71v-1122h467q43 0 68 -41q25 -40 25 -98t-26 -99q-24 -41 -67 -41z" />
    <glyph glyph-name="ldot" unicode="&#x140;" horiz-adv-x="802" 
d="M481 614q0 58 49 102t118 44t118 -43t49 -103t-49 -103q-49 -44 -118 -44t-118 44t-49 103zM111 1436q-1 44 43 70t113 26t115 -27t46 -69v-1338q0 -38 -47 -68t-114 -30t-111 30t-45 68v1338z" />
    <glyph glyph-name="Lslash" unicode="&#x141;" horiz-adv-x="1019" 
d="M86 508q-41 0 -74 45q-32 45 -32 97t36 69l107 49v633q0 47 47 72t113 25q67 0 113 -26q46 -24 46 -71v-483l93 43q12 6 24 6q43 0 77 -47q34 -46 34 -96t-39 -68l-189 -88v-389h467q43 0 68 -41q25 -40 25 -98t-26 -99q-24 -41 -67 -41h-647q-57 0 -98 26t-41 72v420
q-25 -10 -37 -10z" />
    <glyph glyph-name="lslash" unicode="&#x142;" horiz-adv-x="688" 
d="M184 1436q0 44 44 70t113 26t115 -27t46 -69v-512l26 12q12 6 25 6q43 0 77 -47t34 -96t-39 -68l-123 -57v-576q0 -38 -47 -68t-114 -30t-112 30t-45 68v426l-24 -10q-12 -6 -27 -6q-41 0 -74 45t-33 97t37 69l121 55v662z" />
    <glyph glyph-name="Nacute" unicode="&#x143;" horiz-adv-x="1267" 
d="M473 1634q-39 0 -67 38t-27 85q0 47 41 68l287 133q14 6 28 6q39 0 68 -38t29 -84t-41 -66l-287 -134q-20 -8 -31 -8zM997 0q-131 0 -178 86l-389 709v-697q0 -46 -47 -72t-113 -26t-112 26t-47 72v1301q0 47 47 73q48 26 126 25q78 0 122 -27t100 -133l332 -632v696
q0 47 47 72t113 25t112 -26q47 -24 47 -71v-1303q0 -46 -47 -72t-113 -26z" />
    <glyph glyph-name="nacute" unicode="&#x144;" horiz-adv-x="1093" 
d="M434 1145q-38 0 -66 38t-28 85t41 67l287 133q55 23 90 -23q35 -47 35 -93t-41 -66l-287 -133q-20 -8 -31 -8zM410 557v-459q0 -38 -48 -68t-114 -30t-111 30t-45 68v781q0 43 44 69t108 27q64 0 104 -27q41 -27 41 -69v-48q33 66 106 111t169 45q141 0 244 -127
t104 -303v-459q0 -46 -47 -72t-111 -26t-112 27t-48 71v459q0 59 -44 107t-100 47q-56 0 -98 -42t-42 -112z" />
    <glyph glyph-name="Ncommaaccent" unicode="&#x145;" horiz-adv-x="1267" 
d="M502 -428q-39 0 -67 38q-27 38 -27 85t41 67l286 134q14 6 29 6q40 0 68 -38t28 -84t-41 -67l-287 -133q-20 -8 -30 -8zM997 0q-131 0 -178 86l-389 709v-697q0 -46 -47 -72t-113 -26t-112 26t-47 72v1301q0 47 47 73q48 26 126 25q78 0 122 -27t100 -133l332 -632v696
q0 47 47 72t113 25t112 -26q47 -24 47 -71v-1303q0 -46 -47 -72t-113 -26z" />
    <glyph glyph-name="ncommaaccent" unicode="&#x146;" horiz-adv-x="1093" 
d="M418 -428q-39 0 -67 38q-27 38 -27 85t41 67l286 134q14 6 29 6q39 0 68 -38q28 -38 28 -84t-41 -67l-286 -133q-20 -8 -31 -8zM410 557v-459q0 -38 -48 -68t-114 -30t-111 30t-45 68v781q0 43 44 69t108 27q64 0 104 -27q41 -27 41 -69v-48q33 66 106 111t169 45
q141 0 244 -127t104 -303v-459q0 -46 -47 -72t-111 -26t-112 27t-48 71v459q0 59 -44 107t-100 47q-56 0 -98 -42t-42 -112z" />
    <glyph glyph-name="Ncaron" unicode="&#x147;" horiz-adv-x="1267" 
d="M336 1882q0 49 22 85t64 15l213 -114l213 114q41 20 63 -15q23 -36 23 -85t-51 -78l-213 -114q-36 -18 -70 0l-213 114q-51 29 -51 78zM997 0q-131 0 -178 86l-389 709v-697q0 -46 -47 -72t-113 -26t-112 26t-47 72v1301q0 47 47 73q48 26 126 25q78 0 122 -27t100 -133
l332 -632v696q0 47 47 72t113 25t112 -26q47 -24 47 -71v-1303q0 -46 -47 -72t-113 -26z" />
    <glyph glyph-name="ncaron" unicode="&#x148;" horiz-adv-x="1093" 
d="M410 557v-459q0 -38 -48 -68t-114 -30t-111 30t-45 68v781q0 43 44 69t108 27q64 0 104 -27q41 -27 41 -69v-48q33 66 106 111t169 45q141 0 244 -127t104 -303v-459q0 -46 -47 -72t-111 -26t-112 27t-48 71v459q0 59 -44 107t-100 47q-56 0 -98 -42t-42 -112zM784 1499
q18 0 37 -29q19 -30 19 -78t-52 -77l-213 -115q-20 -10 -34 -10t-35 10l-213 115q-51 29 -51 78t18 77t37 29q19 0 31 -6l213 -115l213 115q12 6 30 6z" />
    <glyph glyph-name="Eng" unicode="&#x14a;" horiz-adv-x="1269" 
d="M785 -178q52 0 53 121v73q0 35 -19 70l-389 709v-697q0 -46 -47 -72t-113 -26t-112 26t-47 72v1301q0 47 47 73q48 26 126 25q78 0 122 -27t100 -133l332 -632v696q0 47 47 72t113 25t112 -26q47 -24 47 -71v-1458q0 -175 -86 -281t-246 -106t-159 129q0 61 33 99
q34 38 86 38z" />
    <glyph glyph-name="eng" unicode="&#x14b;" horiz-adv-x="1095" 
d="M664 987q141 0 244 -127t104 -303v-614q0 -175 -86 -281t-246 -106t-160 129q0 61 34 99t77 38t53 30t10 91v614q0 59 -44 107t-100 47q-56 0 -98 -42t-42 -112v-459q0 -38 -48 -68t-114 -30t-111 30t-45 68v781q0 43 44 69t108 27q64 0 104 -27q41 -27 41 -69v-48
q33 66 106 111t169 45z" />
    <glyph glyph-name="Omacron" unicode="&#x14c;" horiz-adv-x="1193" 
d="M391 1718q-43 0 -69 28t-27 72q0 44 27 74t69 29h410q39 0 69 -31q30 -30 29 -72q0 -42 -30 -71t-68 -29h-410zM780 471v543q0 205 -183 205t-183 -205v-543q0 -205 183 -205t183 205zM597 -12q-228 0 -366 116q-137 117 -137 367v543q0 250 137 366t365 117
q228 0 366 -117t138 -366v-543q0 -250 -137 -367q-138 -116 -366 -116z" />
    <glyph glyph-name="omacron" unicode="&#x14d;" horiz-adv-x="1042" 
d="M315 1229q-43 -1 -69 27t-27 72q0 44 27 74t69 30h410q37 0 68 -30t31 -73t-30 -72t-69 -28h-410zM670 414v143q0 59 -45 107t-105 47q-60 0 -103 -47q-44 -47 -44 -107v-143q0 -62 43 -110t104 -48t106 48q44 49 44 110zM55 557q-1 174 137 302t327 128t329 -127
t139 -303v-143q0 -172 -140 -303q-141 -131 -327 -131t-325 131t-140 303v143z" />
    <glyph glyph-name="Obreve" unicode="&#x14e;" horiz-adv-x="1193" 
d="M717 1972h164q0 -112 -87 -198t-198 -86t-199 86t-88 198h164q0 -63 38 -106t84 -43t84 43t38 106zM780 471v543q0 205 -183 205t-183 -205v-543q0 -205 183 -205t183 205zM597 -12q-228 0 -366 116q-137 117 -137 367v543q0 250 137 366t365 117q228 0 366 -117
t138 -366v-543q0 -250 -137 -367q-138 -116 -366 -116z" />
    <glyph glyph-name="obreve" unicode="&#x14f;" horiz-adv-x="1042" 
d="M645 1483h164q0 -113 -87 -199t-198 -86q-110 0 -198 86t-88 199h163q0 -63 38 -107t84 -43q46 -1 84 43t38 107zM670 414v143q0 59 -45 107t-105 47q-60 0 -103 -47q-44 -47 -44 -107v-143q0 -62 43 -110t104 -48t106 48q44 49 44 110zM55 557q-1 174 137 302t327 128
t329 -127t139 -303v-143q0 -172 -140 -303q-141 -131 -327 -131t-325 131t-140 303v143z" />
    <glyph glyph-name="Ohungarumlaut" unicode="&#x150;" horiz-adv-x="1193" 
d="M750 1628q-31 0 -61 30t-30 54t15 41l162 195q16 20 47 20t59 -30q50 -53 16 -93l-161 -194q-16 -23 -47 -23zM422 1628q-31 0 -61 30q-51 51 -15 95l162 195q14 20 46 20t60 -30t29 -54q0 -24 -12 -39l-162 -194q-16 -23 -47 -23zM780 471v543q0 205 -183 205t-183 -205
v-543q0 -205 183 -205t183 205zM597 -12q-228 0 -366 116q-137 117 -137 367v543q0 250 137 366t365 117q228 0 366 -117t138 -366v-543q0 -250 -137 -367q-138 -116 -366 -116z" />
    <glyph glyph-name="ohungarumlaut" unicode="&#x151;" horiz-adv-x="1042" 
d="M592 1226q0 24 14 42l162 194q14 20 45 20t61 -28q30 -30 29 -54q0 -24 -12 -40l-162 -195q-16 -23 -47 -23q-30 0 -60 30t-30 54zM264 1226q0 24 15 42l161 194q14 20 45 20t61 -28q51 -49 17 -94l-162 -195q-16 -23 -47 -23q-30 0 -60 30t-30 54zM670 414v143
q0 59 -45 107t-105 47q-60 0 -103 -47q-44 -47 -44 -107v-143q0 -62 43 -110t104 -48t106 48q44 49 44 110zM55 557q-1 174 137 302t327 128t329 -127t139 -303v-143q0 -172 -140 -303q-141 -131 -327 -131t-325 131t-140 303v143z" />
    <glyph glyph-name="OE" unicode="&#x152;" horiz-adv-x="1691" 
d="M782 471v543q0 205 -183 205t-183 -205v-543q0 -205 183 -205t183 205zM537 -12q-440 0 -441 483v543q0 483 441 483q88 0 170 -40t118 -111v53q0 47 41 73t99 25h602q47 0 71 -41t25 -98q0 -57 -26 -98t-70 -41h-463v-347h221q45 0 71 -36t26 -86q0 -49 -26 -86
q-24 -37 -71 -37h-221v-348h463q45 0 71 -41q26 -40 25 -98q0 -58 -25 -99t-71 -41h-602q-57 0 -99 26q-41 26 -41 72v41q-37 -71 -119 -111t-169 -40z" />
    <glyph glyph-name="oe" unicode="&#x153;" horiz-adv-x="1630" 
d="M987 586h254q43 0 43 53t-44 86t-104 33t-104 -33t-45 -90v-49zM670 414v143q0 59 -45 107t-105 47q-60 0 -103 -47q-44 -47 -44 -107v-143q0 -62 43 -110t104 -48t106 48q44 49 44 110zM55 557q-1 174 137 302t330 128t322 -147q131 147 305 147q174 1 303 -109
t129 -280q0 -131 -59 -160q-59 -30 -140 -30h-395v-13q0 -76 57 -122q56 -46 140 -46t163 38t105 38q51 0 84 -48t33 -91q0 -64 -110 -124t-271 -60q-209 0 -344 147q-138 -147 -324 -147t-325 131t-140 303v143z" />
    <glyph glyph-name="Racute" unicode="&#x154;" horiz-adv-x="1196" 
d="M541 1634q-39 0 -67 38t-28 85t41 68l287 133q16 6 29 6q39 0 67 -38t29 -84q0 -46 -41 -66l-287 -134q-20 -8 -30 -8zM633 1219h-203v-381h203q90 0 137 44t47 146t-47 146t-137 45zM111 98v1303q-1 39 27 67t71 29h424q504 0 504 -438q0 -319 -248 -416l250 -453
q10 -14 10 -36q0 -58 -65 -112q-64 -54 -136 -54t-102 59l-281 545h-135v-494q0 -46 -47 -72t-113 -26t-112 26t-47 72z" />
    <glyph glyph-name="racute" unicode="&#x155;" horiz-adv-x="806" 
d="M332 1145q-39 0 -67 38q-27 38 -27 85t41 67l286 133q55 24 91 -23q34 -47 34 -93t-41 -66l-287 -133q-20 -8 -30 -8zM692 711h-59q-88 0 -156 -85t-67 -220v-308q0 -38 -48 -68t-114 -30t-111 30t-45 68v781q0 43 44 69t108 27q64 0 104 -27q41 -27 41 -69v-76
q33 74 101 129q69 55 143 55h59q45 0 79 -41t34 -97t-34 -97t-79 -41z" />
    <glyph glyph-name="Rcommaaccent" unicode="&#x156;" horiz-adv-x="1196" 
d="M469 -428q-39 0 -67 38t-28 85t42 67l286 134q14 6 29 6q39 0 68 -38t29 -84t-42 -67l-286 -133q-20 -8 -31 -8zM633 1219h-203v-381h203q90 0 137 44t47 146t-47 146t-137 45zM111 98v1303q-1 39 27 67t71 29h424q504 0 504 -438q0 -319 -248 -416l250 -453
q10 -14 10 -36q0 -58 -65 -112q-64 -54 -136 -54t-102 59l-281 545h-135v-494q0 -46 -47 -72t-113 -26t-112 26t-47 72z" />
    <glyph glyph-name="rcommaaccent" unicode="&#x157;" horiz-adv-x="806" 
d="M117 -428q-39 0 -67 38t-28 85t41 67l287 134q14 6 29 6q39 0 67 -38t29 -84q0 -46 -41 -67l-287 -133q-20 -8 -30 -8zM692 711h-59q-88 0 -156 -85t-67 -220v-308q0 -38 -48 -68t-114 -30t-111 30t-45 68v781q0 43 44 69t108 27q64 0 104 -27q41 -27 41 -69v-76
q33 74 101 129q69 55 143 55h59q45 0 79 -41t34 -97t-34 -97t-79 -41z" />
    <glyph glyph-name="Rcaron" unicode="&#x158;" horiz-adv-x="1196" 
d="M860 1882q0 -49 -51 -78l-213 -114q-36 -18 -70 0l-213 114q-51 29 -51 78t23 85t63 15l213 -114l213 114q41 21 64 -15q22 -36 22 -85zM633 1219h-203v-381h203q90 0 137 44t47 146t-47 146t-137 45zM111 98v1303q-1 39 27 67t71 29h424q504 0 504 -438
q0 -319 -248 -416l250 -453q10 -14 10 -36q0 -58 -65 -112q-64 -54 -136 -54t-102 59l-281 545h-135v-494q0 -46 -47 -72t-113 -26t-112 26t-47 72z" />
    <glyph glyph-name="rcaron" unicode="&#x159;" horiz-adv-x="806" 
d="M668 1499q18 0 36 -29t19 -65q0 -61 -51 -90l-213 -115q-21 -10 -35 -10t-35 10l-213 115q-51 29 -51 78t18 77t37 29q19 0 31 -6l213 -115l213 115q13 6 31 6zM692 711h-59q-88 0 -156 -85t-67 -220v-308q0 -38 -48 -68t-114 -30t-111 30t-45 68v781q0 43 44 69t108 27
q64 0 104 -27q41 -27 41 -69v-76q33 74 101 129q69 55 143 55h59q45 0 79 -41t34 -97t-34 -97t-79 -41z" />
    <glyph glyph-name="Sacute" unicode="&#x15a;" horiz-adv-x="1091" 
d="M459 1634q-39 0 -67 38t-28 85t42 68l286 133q16 6 29 6q39 0 67 -38t29 -84q0 -46 -41 -66l-287 -134q-20 -8 -30 -8zM534 266q72 0 132 34q59 34 59 102t-67 118q-68 51 -162 93q-94 43 -190 95t-164 148q-67 96 -66 229q0 213 153 319q154 105 371 105q118 0 217 -23
q191 -44 191 -157q0 -53 -34 -110t-93 -58q-25 0 -105 39t-179 39t-151 -36t-51 -85q0 -91 172 -157t310 -165q71 -52 119 -146t48 -216q0 -215 -141 -335q-141 -119 -355 -119t-362 82q-147 82 -147 184q0 57 42 114q42 58 96 58q53 0 139 -76q32 -28 90 -52
q56 -24 128 -24z" />
    <glyph glyph-name="sacute" unicode="&#x15b;" horiz-adv-x="878" 
d="M334 1145q-39 0 -67 38q-27 38 -27 85t41 67l286 133q55 24 91 -23q34 -47 34 -93t-41 -66l-286 -133q-20 -8 -31 -8zM551 283q0 62 -169 100q-72 16 -142 43t-119 88t-49 175t92 206t293 92q137 0 242 -42t106 -105q0 -42 -33 -96t-82 -54q-20 0 -94 31t-133 31t-89 -20
t-30 -48q0 -29 50 -47q50 -17 121 -35t141 -46t121 -94q50 -66 50 -167q0 -147 -103 -231q-104 -84 -278 -84t-288 56t-115 132q0 43 31 91q30 48 64 48q34 -1 70 -23q111 -70 227 -69q116 0 116 68z" />
    <glyph glyph-name="Scircumflex" unicode="&#x15c;" horiz-adv-x="1091" 
d="M297 1655q-19 1 -37 29t-18 77t51 78l213 115q20 10 34 10t35 -10l213 -115q52 -29 52 -78t-23 -85t-63 -15l-213 115l-213 -115q-12 -6 -31 -6zM534 266q72 0 132 34q59 34 59 102t-67 118q-68 51 -162 93q-94 43 -190 95t-164 148q-67 96 -66 229q0 213 153 319
q154 105 371 105q118 0 217 -23q191 -44 191 -157q0 -53 -34 -110t-93 -58q-25 0 -105 39t-179 39t-151 -36t-51 -85q0 -91 172 -157t310 -165q71 -52 119 -146t48 -216q0 -215 -141 -335q-141 -119 -355 -119t-362 82q-147 82 -147 184q0 57 42 114q42 58 96 58
q53 0 139 -76q32 -28 90 -52q56 -24 128 -24z" />
    <glyph glyph-name="scircumflex" unicode="&#x15d;" horiz-adv-x="878" 
d="M192 1165q-18 0 -36 29t-18 78t50 78l213 114q36 18 70 0l213 -114q51 -29 51 -78t-18 -78q-19 -29 -37 -29t-31 6l-213 115l-213 -115q-13 -6 -31 -6zM551 283q0 62 -169 100q-72 16 -142 43t-119 88t-49 175t92 206t293 92q137 0 242 -42t106 -105q0 -42 -33 -96
t-82 -54q-20 0 -94 31t-133 31t-89 -20t-30 -48q0 -29 50 -47q50 -17 121 -35t141 -46t121 -94q50 -66 50 -167q0 -147 -103 -231q-104 -84 -278 -84t-288 56t-115 132q0 43 31 91q30 48 64 48q34 -1 70 -23q111 -70 227 -69q116 0 116 68z" />
    <glyph glyph-name="Scedilla" unicode="&#x15e;" horiz-adv-x="1091" 
d="M534 266q72 0 132 34q59 34 59 102t-67 118q-68 51 -162 93q-94 43 -190 95t-164 148q-67 96 -66 229q0 213 153 319q154 105 371 105q118 0 217 -23q191 -44 191 -157q0 -53 -34 -110t-93 -58q-25 0 -105 39t-179 39t-151 -36t-51 -85q0 -91 172 -157t310 -165
q71 -52 119 -146t48 -216q0 -190 -110 -306t-299 -140l-27 -84q100 -4 152 -49t53 -114q0 -69 -53 -129t-174 -61q-66 -1 -123 17t-57 47q0 20 14 53t39 33q8 0 45 -14t74 -15q94 0 94 62t-88 71l-127 13l47 162q-190 6 -328 86q-137 80 -137 180q0 57 42 114q42 58 96 58
q53 0 139 -76q32 -28 90 -52q56 -24 128 -24z" />
    <glyph glyph-name="scedilla" unicode="&#x15f;" horiz-adv-x="878" 
d="M551 283q0 62 -169 100q-72 16 -142 43t-119 88t-49 175t92 206t293 92q137 0 242 -42t106 -105q0 -42 -33 -96t-82 -54q-20 0 -94 31t-133 31t-89 -20t-30 -48q0 -29 50 -47q50 -17 121 -35t141 -46t121 -94q50 -66 50 -182t-81 -197t-232 -97l-27 -82q101 -4 153 -49
t52 -114t-53 -129t-174 -61q-66 -1 -123 17t-57 47q0 20 14 53t39 33q8 0 45 -14t74 -15q94 0 94 62t-88 71l-127 13l47 164q-145 10 -243 63q-97 53 -97 123q0 43 31 91q30 48 64 48q34 -1 70 -23q111 -70 227 -69q116 0 116 68z" />
    <glyph glyph-name="Scaron" unicode="&#x160;" horiz-adv-x="1091" 
d="M244 1882q0 49 22 85t64 15l213 -114l213 114q41 20 63 -15q23 -36 23 -85t-51 -78l-213 -114q-36 -18 -70 0l-213 114q-51 29 -51 78zM534 266q72 0 132 34q59 34 59 102t-67 118q-68 51 -162 93q-94 43 -190 95t-164 148q-67 96 -66 229q0 213 153 319q154 105 371 105
q118 0 217 -23q191 -44 191 -157q0 -53 -34 -110t-93 -58q-25 0 -105 39t-179 39t-151 -36t-51 -85q0 -91 172 -157t310 -165q71 -52 119 -146t48 -216q0 -215 -141 -335q-141 -119 -355 -119t-362 82q-147 82 -147 184q0 57 42 114q42 58 96 58q53 0 139 -76q32 -28 90 -52
q56 -24 128 -24z" />
    <glyph glyph-name="scaron" unicode="&#x161;" horiz-adv-x="878" 
d="M688 1499q19 0 37 -29t18 -65q0 -61 -51 -90l-213 -115q-21 -10 -35 -10t-34 10l-213 115q-51 29 -51 78t18 77t36 29q18 0 31 -6l213 -115l213 115q12 6 31 6zM551 283q0 62 -169 100q-72 16 -142 43t-119 88t-49 175t92 206t293 92q137 0 242 -42t106 -105
q0 -42 -33 -96t-82 -54q-20 0 -94 31t-133 31t-89 -20t-30 -48q0 -29 50 -47q50 -17 121 -35t141 -46t121 -94q50 -66 50 -167q0 -147 -103 -231q-104 -84 -278 -84t-288 56t-115 132q0 43 31 91q30 48 64 48q34 -1 70 -23q111 -70 227 -69q116 0 116 68z" />
    <glyph glyph-name="Tcommaaccent" unicode="&#x162;" horiz-adv-x="1110" 
d="M416 -428q-39 0 -67 38q-27 38 -27 85t40 67l287 134q14 6 29 6q40 0 68 -38t28 -84t-41 -67l-287 -133q-20 -8 -30 -8zM113 1497h884q47 0 72 -42t25 -101q0 -60 -26 -102t-71 -42h-282v-1112q0 -46 -47 -72t-113 -26t-113 26t-47 72v1112h-282q-45 0 -71 42t-26 102
t25 101q25 42 72 42z" />
    <glyph glyph-name="tcommaaccent" unicode="&#x163;" horiz-adv-x="745" 
d="M231 -428q-39 0 -67 38t-27 85q0 47 41 67l287 134q16 6 29 6q40 0 68 -38t28 -84t-41 -67l-287 -133q-20 -8 -31 -8zM406 750v-404q0 -45 18 -62t65 -18h89q66 0 100 -40t35 -94q0 -54 -35 -93t-100 -39h-89q-401 0 -401 346v957q0 41 49 69t111 27q62 0 109 -28
q48 -28 49 -68v-328h231q37 0 57 -34t20 -80t-20 -79t-57 -32h-231z" />
    <glyph glyph-name="Tcaron" unicode="&#x164;" horiz-adv-x="1110" 
d="M852 1882q0 -49 -51 -78l-213 -114q-36 -18 -70 0l-213 114q-51 29 -51 78t22 85t64 15l213 -114l213 114q41 20 63 -15q23 -36 23 -85zM113 1497h884q47 0 72 -42t25 -101q0 -60 -26 -102t-71 -42h-282v-1112q0 -46 -47 -72t-113 -26t-113 26t-47 72v1112h-282
q-45 0 -71 42t-26 102t25 101q25 42 72 42z" />
    <glyph glyph-name="tcaron" unicode="&#x165;" horiz-adv-x="745" 
d="M629 1573q63 0 110 -46t47 -110q0 -33 -127 -327q-16 -37 -57 -37q-41 1 -74 23q-51 35 -24 89l51 111q-82 47 -82 139q0 66 46 112q47 46 110 46zM406 750v-404q0 -45 18 -62t65 -18h89q66 0 100 -40t35 -94q0 -54 -35 -93t-100 -39h-89q-401 0 -401 346v957q0 41 49 69
t111 27q62 0 109 -28q48 -28 49 -68v-328h231q37 0 57 -34t20 -80t-20 -79t-57 -32h-231z" />
    <glyph glyph-name="Tbar" unicode="&#x166;" horiz-adv-x="1110" 
d="M113 1497h884q47 0 72 -42t25 -101q0 -60 -26 -102t-71 -42h-282v-350h137q37 0 57 -34q21 -34 21 -80t-20 -78q-20 -33 -58 -33h-137v-537q0 -46 -47 -72t-113 -26t-113 26t-47 72v537h-139q-37 0 -57 33q-21 33 -21 79q0 45 20 79t58 34h139v350h-282q-45 0 -71 42
t-26 102t25 101q25 42 72 42z" />
    <glyph glyph-name="tbar" unicode="&#x167;" horiz-adv-x="749" 
d="M406 750v-127h231q37 0 57 -34t20 -80t-20 -79t-57 -33h-231v-51q0 -45 18 -62t65 -18h89q66 0 100 -40t35 -94q0 -54 -35 -93t-100 -39h-89q-401 0 -401 346v957q0 41 49 69t111 27q62 0 109 -28q48 -28 49 -68v-328h231q37 0 57 -34t20 -80t-20 -79t-57 -32h-231z" />
    <glyph glyph-name="Utilde" unicode="&#x168;" horiz-adv-x="1241" 
d="M496 1731q-44 0 -100 -22t-74 -21q-41 0 -60 35q-18 36 -18 65q0 150 174 149q63 1 153 -27q89 -28 141 -28t107 22t74 21q41 0 59 -36t19 -64q0 -150 -174 -150q-78 0 -167 28t-134 28zM817 471v930q0 47 46 72t113 25t114 -26q47 -24 47 -71v-930q1 -250 -141 -367
q-142 -116 -376 -116t-375 116q-140 116 -141 367v930q0 47 46 72t114 25q66 0 113 -26q47 -24 47 -71v-930q0 -205 196 -205t197 205z" />
    <glyph glyph-name="utilde" unicode="&#x169;" horiz-adv-x="1095" 
d="M438 1241q-45 1 -100 -21t-85 -22t-48 36t-19 64q0 150 174 150q64 0 154 -28t141 -28t107 22t85 22q30 0 48 -36t18 -65q0 -150 -174 -149q-78 0 -167 28t-134 27zM1014 410q0 -172 -138 -301t-328 -129q-189 0 -328 129q-138 129 -138 301v467q0 37 47 67t111 31
q64 0 111 -31q48 -31 48 -67v-467q0 -58 45 -106q44 -48 104 -48t104 47t44 107v469q0 39 48 67t114 29q66 0 111 -29t45 -67v-469z" />
    <glyph glyph-name="Umacron" unicode="&#x16a;" horiz-adv-x="1241" 
d="M313 1818q0 44 27 74t70 29h409q37 0 68 -31q31 -30 31 -72t-30 -71t-69 -29h-409q-43 0 -70 28t-27 72zM817 471v930q0 47 46 72t113 25t114 -26q47 -24 47 -71v-930q1 -250 -141 -367q-142 -116 -376 -116t-375 116q-140 116 -141 367v930q0 47 46 72t114 25
q66 0 113 -26q47 -24 47 -71v-930q0 -205 196 -205t197 205z" />
    <glyph glyph-name="umacron" unicode="&#x16b;" horiz-adv-x="1095" 
d="M348 1229q-44 -1 -70 27t-26 72t27 74t69 30h410q38 0 68 -30t30 -73t-30 -72t-68 -28h-410zM1014 410q0 -172 -138 -301t-328 -129q-189 0 -328 129q-138 129 -138 301v467q0 37 47 67t111 31q64 0 111 -31q48 -31 48 -67v-467q0 -58 45 -106q44 -48 104 -48t104 47
t44 107v469q0 39 48 67t114 29q66 0 111 -29t45 -67v-469z" />
    <glyph glyph-name="Ubreve" unicode="&#x16c;" horiz-adv-x="1241" 
d="M733 1972h164q0 -112 -87 -198t-198 -86q-110 0 -198 86t-88 198h163q0 -63 38 -106t84 -43t84 43t38 106zM817 471v930q0 47 46 72t113 25t114 -26q47 -24 47 -71v-930q1 -250 -141 -367q-142 -116 -376 -116t-375 116q-140 116 -141 367v930q0 47 46 72t114 25
q66 0 113 -26q47 -24 47 -71v-930q0 -205 196 -205t197 205z" />
    <glyph glyph-name="ubreve" unicode="&#x16d;" horiz-adv-x="1095" 
d="M674 1483h164q0 -113 -87 -199t-198 -86t-199 86t-88 199h164q0 -63 38 -107t84 -43q46 -1 84 43t38 107zM1014 410q0 -172 -138 -301t-328 -129q-189 0 -328 129q-138 129 -138 301v467q0 37 47 67t111 31q64 0 111 -31q48 -31 48 -67v-467q0 -58 45 -106
q44 -48 104 -48t104 47t44 107v469q0 39 48 67t114 29q66 0 111 -29t45 -67v-469z" />
    <glyph glyph-name="Uring" unicode="&#x16e;" horiz-adv-x="1241" 
d="M618 1769q34 1 56 27q24 26 24 58t-23 57q-24 25 -58 25q-35 0 -59 -26q-24 -24 -24 -56t26 -58q24 -26 58 -27zM615 2064q83 0 145 -62t63 -145q0 -83 -62 -147q-63 -64 -145 -63q-82 0 -142 63q-60 62 -60 146t59 146t142 62zM817 471v930q0 47 46 72t113 25t114 -26
q47 -24 47 -71v-930q1 -250 -141 -367q-142 -116 -376 -116t-375 116q-140 116 -141 367v930q0 47 46 72t114 25q66 0 113 -26q47 -24 47 -71v-930q0 -205 196 -205t197 205z" />
    <glyph glyph-name="uring" unicode="&#x16f;" horiz-adv-x="1095" 
d="M546 1280q34 0 58 26t23 59q0 33 -24 57q-23 24 -57 24t-59 -25t-25 -57t26 -58q24 -26 58 -26zM544 1575q83 -1 145 -63q63 -62 63 -145t-62 -146t-145 -63t-143 62q-60 64 -60 147t60 145t142 63zM1014 410q0 -172 -138 -301t-328 -129q-189 0 -328 129
q-138 129 -138 301v467q0 37 47 67t111 31q64 0 111 -31q48 -31 48 -67v-467q0 -58 45 -106q44 -48 104 -48t104 47t44 107v469q0 39 48 67t114 29q66 0 111 -29t45 -67v-469z" />
    <glyph glyph-name="Uhungarumlaut" unicode="&#x170;" horiz-adv-x="1241" 
d="M762 1628q-31 0 -61 30q-51 51 -15 95l162 195q16 20 47 20t59 -30t29 -54q0 -24 -12 -39l-162 -194q-16 -23 -47 -23zM434 1628q-30 0 -60 30t-30 54t14 41l162 195q16 20 47 20t60 -30q51 -52 16 -93l-162 -194q-16 -23 -47 -23zM817 471v930q0 47 46 72t113 25
t114 -26q47 -24 47 -71v-930q1 -250 -141 -367q-142 -116 -376 -116t-375 116q-140 116 -141 367v930q0 47 46 72t114 25q66 0 113 -26q47 -24 47 -71v-930q0 -205 196 -205t197 205z" />
    <glyph glyph-name="uhungarumlaut" unicode="&#x171;" horiz-adv-x="1095" 
d="M608 1222q0 24 15 42l161 194q14 20 45 20t61 -28q51 -49 17 -94l-162 -195q-16 -23 -47 -23q-30 0 -60 30t-30 54zM592 1396q0 -24 -12 -40l-162 -195q-16 -23 -47 -23t-61 30q-52 51 -15 96l162 194q14 20 45 20q30 0 60 -28q30 -30 30 -54zM1014 410q0 -172 -138 -301
t-328 -129q-189 0 -328 129q-138 129 -138 301v467q0 37 47 67t111 31q64 0 111 -31q48 -31 48 -67v-467q0 -58 45 -106q44 -48 104 -48t104 47t44 107v469q0 39 48 67t114 29q66 0 111 -29t45 -67v-469z" />
    <glyph glyph-name="Uogonek" unicode="&#x172;" horiz-adv-x="1241" 
d="M795 -317q51 -1 51 -65t-64 -64q-129 0 -192 55t-64 143q0 131 109 236h-14q-236 0 -376 116t-141 367v930q0 47 46 72t114 25q66 0 113 -26q47 -24 47 -71v-930q0 -205 197 -205t196 205v930q0 47 46 72t113 25t114 -26q47 -24 47 -71v-930q0 -360 -299 -453
q-68 -40 -115 -108t-47 -129q0 -98 119 -98z" />
    <glyph glyph-name="uogonek" unicode="&#x173;" horiz-adv-x="1095" 
d="M692 -317q51 -1 51 -65t-63 -64q-129 0 -193 55q-63 55 -63 143q0 121 100 228q-184 8 -313 136t-129 294v467q0 37 47 67t111 31q64 0 111 -31q48 -31 48 -67v-467q0 -58 45 -106q44 -48 104 -48t104 47t44 107v469q0 39 48 67t114 29q66 0 111 -29t45 -67v-469
q0 -129 -80 -238t-207 -160q-66 -40 -110 -106t-44 -125q0 -98 119 -98z" />
    <glyph glyph-name="Wcircumflex" unicode="&#x174;" horiz-adv-x="1884" 
d="M698 1655q-18 1 -36 29t-18 77t50 78l213 115q21 10 35 10t35 -10l213 -115q51 -29 51 -78t-22 -84t-64 -16l-213 115l-213 -115q-13 -6 -31 -6zM6 1370q0 49 67 88t147 39t95 -59l312 -1051l161 692q8 39 54 62t100 23q55 0 100 -24q45 -22 54 -61l161 -692l312 1051
q16 59 96 59q81 0 147 -39t66 -88q0 -15 -4 -27l-408 -1249q-18 -51 -76 -79q-58 -27 -134 -27t-136 28q-59 28 -71 78l-107 486l-106 -486q-12 -51 -72 -79q-60 -27 -135 -27q-76 0 -135 28t-76 78l-408 1249q-4 12 -4 27z" />
    <glyph glyph-name="wcircumflex" unicode="&#x175;" horiz-adv-x="1437" 
d="M475 1165q-19 0 -37 29t-18 78t51 78l213 114q36 18 70 0l213 -114q51 -29 51 -78t-18 -78t-38 -29q-18 0 -30 6l-213 115l-213 -115q-12 -6 -31 -6zM4 860q0 51 71 89t141 38t85 -49l182 -520l131 440q18 62 104 62t105 -62l131 -440l183 520q16 49 85 49q70 0 140 -39
t70 -92q-1 -23 -9 -39l-315 -788q-22 -55 -128 -55t-126 55l-135 356l-135 -356q-20 -55 -126 -55t-128 55l-316 788q-10 27 -10 43z" />
    <glyph glyph-name="Ycircumflex" unicode="&#x176;" horiz-adv-x="1208" 
d="M360 1655q-18 1 -36 29t-18 77t50 78l213 115q21 10 35 10t35 -10l213 -115q51 -29 51 -78t-22 -84t-64 -16l-213 115l-213 -115q-13 -6 -31 -6zM444 98v514q0 16 -8 29l-424 702q-4 8 -4 23q0 53 73 92t127 39t72 -13t37 -46l287 -527l285 527q31 59 97 59t140 -39
q72 -39 72 -92q0 -14 -4 -23l-422 -702q-8 -12 -8 -29v-514q0 -46 -47 -72t-113 -26t-113 26t-47 72z" />
    <glyph glyph-name="ycircumflex" unicode="&#x177;" 
d="M293 1165q-19 0 -37 29t-18 78t51 78l213 114q36 18 69 0l213 -114q52 -29 52 -78t-18 -78t-38 -29q-18 0 -30 6l-213 115l-213 -115q-12 -6 -31 -6zM2 838q0 57 74 104t142 47t87 -51l232 -555l170 555q20 51 82 51q63 0 141 -48t78 -110q0 -20 -9 -34l-290 -725
q-10 -29 -36 -96q-26 -66 -37 -96t-39 -84q-27 -54 -51 -81q-79 -90 -151 -116q-121 -43 -220 -43q-101 0 -137 26t-36 109q0 131 78 131q291 0 291 262l-359 713q-10 20 -10 41z" />
    <glyph glyph-name="Ydieresis" unicode="&#x178;" horiz-adv-x="1208" 
d="M770 1898q47 0 81 -36t34 -83q0 -48 -34 -84t-81 -36t-82 37t-35 84q0 46 35 82t82 36zM442 1898q47 0 81 -36t34 -83q0 -48 -34 -84t-81 -36t-82 37t-34 84q0 47 34 83q35 35 82 35zM444 98v514q0 16 -8 29l-424 702q-4 8 -4 23q0 53 73 92t127 39t72 -13t37 -46
l287 -527l285 527q31 59 97 59t140 -39q72 -39 72 -92q0 -14 -4 -23l-422 -702q-8 -12 -8 -29v-514q0 -46 -47 -72t-113 -26t-113 26t-47 72z" />
    <glyph glyph-name="Zacute" unicode="&#x179;" horiz-adv-x="1097" 
d="M485 1634q-39 0 -67 38t-27 85q0 47 41 68l287 133q14 6 29 6q40 0 68 -38t28 -84t-41 -66l-287 -134q-20 -8 -31 -8zM983 279q43 0 70 -43q27 -42 27 -96t-28 -97q-26 -43 -69 -43h-872q-92 0 -93 84q0 53 35 113l578 1022h-475q-45 0 -71 41t-26 98t25 98t72 41h790
q92 0 92 -84q1 -50 -34 -113l-578 -1021h557z" />
    <glyph glyph-name="zacute" unicode="&#x17a;" horiz-adv-x="917" 
d="M424 1145q-39 0 -67 38q-27 38 -27 85t41 67l286 133q55 24 91 -23q34 -47 34 -93t-41 -66l-286 -133q-20 -8 -31 -8zM799 256q37 0 63 -38t27 -91q0 -53 -25 -90t-65 -37h-658q-53 0 -79 33q-66 84 30 209l363 477h-314q-37 0 -63 38t-27 91q0 53 25 90t65 37h613
q42 0 70 -27q28 -28 28 -88t-51 -127l-365 -477h363z" />
    <glyph glyph-name="Zdotaccent" unicode="&#x17b;" horiz-adv-x="1097" 
d="M580 1898q46 0 80 -36t34 -83q0 -48 -34 -84t-80 -36t-82 37q-35 37 -35 84q0 46 35 82t82 36zM983 279q43 0 70 -43q27 -42 27 -96t-28 -97q-26 -43 -69 -43h-872q-92 0 -93 84q0 53 35 113l578 1022h-475q-45 0 -71 41t-26 98t25 98t72 41h790q92 0 92 -84
q1 -50 -34 -113l-578 -1021h557z" />
    <glyph glyph-name="zdotaccent" unicode="&#x17c;" horiz-adv-x="917" 
d="M467 1409q47 0 81 -36t34 -84t-34 -84t-81 -36t-82 37t-35 84t35 83t82 36zM799 256q37 0 63 -38t27 -91q0 -53 -25 -90t-65 -37h-658q-53 0 -79 33q-66 84 30 209l363 477h-314q-37 0 -63 38t-27 91q0 53 25 90t65 37h613q42 0 70 -27q28 -28 28 -88t-51 -127l-365 -477
h363z" />
    <glyph glyph-name="Zcaron" unicode="&#x17d;" horiz-adv-x="1097" 
d="M860 1882q0 -49 -51 -78l-213 -114q-36 -18 -70 0l-213 114q-51 29 -51 78t23 85t63 15l213 -114l213 114q41 21 64 -15q22 -36 22 -85zM983 279q43 0 70 -43q27 -42 27 -96t-28 -97q-26 -43 -69 -43h-872q-92 0 -93 84q0 53 35 113l578 1022h-475q-45 0 -71 41t-26 98
t25 98t72 41h790q92 0 92 -84q1 -50 -34 -113l-578 -1021h557z" />
    <glyph glyph-name="zcaron" unicode="&#x17e;" horiz-adv-x="917" 
d="M713 1499q19 0 37 -29t18 -65q0 -61 -51 -90l-213 -115q-20 -10 -34 -10t-36 10l-213 115q-51 29 -51 78t18 77t37 29q19 0 31 -6l213 -115l213 115q12 6 31 6zM799 256q37 0 63 -38t27 -91q0 -53 -25 -90t-65 -37h-658q-53 0 -79 33q-66 84 30 209l363 477h-314
q-37 0 -63 38t-27 91q0 53 25 90t65 37h613q42 0 70 -27q28 -28 28 -88t-51 -127l-365 -477h363z" />
    <glyph glyph-name="florin" unicode="&#x192;" horiz-adv-x="890" 
d="M809 936q37 0 57 -34t20 -80t-20 -79t-57 -32h-270l-76 -543q-27 -197 -124 -323t-269 -126h-54q-42 0 -68 41t-26 103q0 63 30 107t75 44h47q57 0 80 154l131 979q23 178 156 302q134 124 304 124h134q41 0 67 -38t25 -97q0 -58 -30 -100t-73 -42h-125q-118 1 -141 -149
l-31 -211h238z" />
    <glyph glyph-name="AEacute" unicode="&#x1fc;" horiz-adv-x="1673" 
d="M889 1626q-39 0 -67 38t-28 85t42 68l286 133q16 6 29 6q39 0 68 -38t29 -84t-42 -67l-286 -133q-20 -8 -31 -8zM403 1014v-142h363v347h-178q-185 0 -185 -205zM1085 1219v-347h222q45 0 71 -36t25 -86q0 -49 -25 -86t-71 -37h-222v-348h463q45 0 71 -41q26 -40 26 -98
t-25 -99t-72 -41h-643q-57 0 -98 26t-41 72v529h-363v-518q1 -53 -31 -81t-128 -28q-139 0 -140 109v905q0 250 132 366t352 117h960q47 0 72 -41t25 -98t-26 -98t-71 -41h-463z" />
    <glyph glyph-name="aeacute" unicode="&#x1fd;" horiz-adv-x="1548" 
d="M666 1145q-39 0 -67 38t-28 85t41 67l287 133q16 6 29 7q40 0 68 -38q28 -39 28 -85t-41 -66l-287 -133q-20 -8 -30 -8zM588 399v9h-8q-68 0 -112 -6t-79 -32t-35 -73q0 -86 80 -86q51 0 103 57q51 57 51 131zM905 586h254q43 0 43 53t-44 86t-104 33t-104 -33t-45 -90
v-49zM1067 987q174 1 303 -109t129 -280q0 -131 -59 -160q-59 -30 -140 -30h-395v-13q-1 -76 57 -122t141 -46t162 38t105 38q51 0 84 -48t33 -91q0 -64 -110 -124t-271 -60q-244 0 -387 192q-168 -193 -361 -192q-139 0 -231 70t-92 202q0 170 124 240t355 69h74v21
q0 61 -37 106t-126 45t-153 -34t-77 -33q-49 0 -78 48t-29 109q0 68 114 116t236 48q207 0 324 -147q131 147 305 147z" />
    <glyph glyph-name="Oslashacute" unicode="&#x1fe;" horiz-adv-x="1193" 
d="M780 471v383l-278 -569q39 -18 94 -19q184 0 184 205zM414 1014v-410l286 590q-43 25 -104 25q-182 0 -182 -205zM514 1634q-39 0 -67 38q-27 38 -27 85t41 68l287 133q14 6 28 6q39 0 68 -38q28 -38 28 -84t-41 -66l-286 -134q-20 -8 -31 -8zM942 1581q53 0 91 -31
q38 -32 38 -66t-8 -50l-53 -107q90 -119 90 -313v-543q0 -250 -137 -367t-367 -116q-125 0 -223 32l-31 -63q-25 -51 -83 -51t-91 34t-33 63t10 50l45 92q-96 119 -96 326v543q0 250 137 366t365 117q131 0 233 -39l35 72q25 51 78 51z" />
    <glyph glyph-name="oslashacute" unicode="&#x1ff;" horiz-adv-x="1042" 
d="M510 711q-49 0 -93 -47t-44 -107v-160l221 291q-35 23 -84 23zM670 414v143q0 4 -1 12t-1 13l-230 -299q37 -27 90 -27t98 48q44 49 44 110zM485 1145q-39 0 -67 38t-27 85q0 47 41 67l287 133q56 24 96 -31q29 -39 29 -85t-41 -66l-287 -133q-20 -8 -31 -8zM520 987
q131 0 248 -67l74 98q18 26 45 26t47 -19t20 -43t-16 -46l-72 -94q121 -125 121 -285v-143q0 -172 -140 -303t-327 -131q-135 0 -258 75l-80 -104q-12 -17 -36 -17t-43 18t-19 40t14 41l74 98q-117 127 -117 283v143q-1 174 137 302t328 128z" />
    <glyph glyph-name="Scommaaccent" unicode="&#x218;" horiz-adv-x="1091" 
d="M432 -428q-38 0 -66 38t-28 85t41 67l287 134q14 6 28 6q39 0 68 -38t29 -84t-41 -67l-287 -133q-20 -8 -31 -8zM534 266q72 0 132 34q59 34 59 102t-67 118q-68 51 -162 93q-94 43 -190 95t-164 148q-67 96 -66 229q0 213 153 319q154 105 371 105q118 0 217 -23
q191 -44 191 -157q0 -53 -34 -110t-93 -58q-25 0 -105 39t-179 39t-151 -36t-51 -85q0 -91 172 -157t310 -165q71 -52 119 -146t48 -216q0 -215 -141 -335q-141 -119 -355 -119t-362 82q-147 82 -147 184q0 57 42 114q42 58 96 58q53 0 139 -76q32 -28 90 -52
q56 -24 128 -24z" />
    <glyph glyph-name="scommaaccent" unicode="&#x219;" horiz-adv-x="878" 
d="M313 -428q-39 0 -67 38t-27 85q0 47 41 67l287 134q14 6 28 6q39 0 68 -38t29 -84t-41 -67l-287 -133q-20 -8 -31 -8zM551 283q0 62 -169 100q-72 16 -142 43t-119 88t-49 175t92 206t293 92q137 0 242 -42t106 -105q0 -42 -33 -96t-82 -54q-20 0 -94 31t-133 31t-89 -20
t-30 -48q0 -29 50 -47q50 -17 121 -35t141 -46t121 -94q50 -66 50 -167q0 -147 -103 -231q-104 -84 -278 -84t-288 56t-115 132q0 43 31 91q30 48 64 48q34 -1 70 -23q111 -70 227 -69q116 0 116 68z" />
    <glyph glyph-name="dotlessj" unicode="&#x237;" horiz-adv-x="501" 
d="M92 879q0 43 44 69t113 27q69 0 115 -27t46 -69v-936q0 -175 -86 -281t-246 -106t-160 129q0 61 34 99t77 38t53 30t10 91v936z" />
    <glyph glyph-name="schwa" unicode="&#x259;" 
d="M643 381h-254q-43 0 -43 -53t44 -86t104 -33t105 33q44 33 44 90v49zM961 403q-1 -175 -139 -299t-326 -124t-318 110q-129 110 -129 279q0 131 61 161t138 29h395v12q0 76 -57 122q-56 46 -140 46t-162 -38t-106 -37q-51 0 -84 48t-33 91q0 63 110 123t271 61
q230 0 374 -120t145 -314v-150z" />
    <glyph glyph-name="circumflex" unicode="&#x2c6;" horiz-adv-x="598" 
d="M55 1165q-19 0 -37 29t-18 78t51 78l213 114q36 18 70 0l213 -114q51 -29 51 -78t-18 -78t-36 -29t-32 6l-213 115l-213 -115q-12 -6 -31 -6z" />
    <glyph glyph-name="caron" unicode="&#x2c7;" horiz-adv-x="598" 
d="M543 1499q19 0 37 -29t18 -65q0 -61 -51 -90l-213 -115q-20 -10 -34 -10t-36 10l-213 115q-51 29 -51 78t18 77t37 29q19 0 31 -6l213 -115l213 115q12 6 31 6z" />
    <glyph glyph-name="breve" unicode="&#x2d8;" horiz-adv-x="571" 
d="M408 1483h163q0 -113 -87 -199q-88 -86 -198 -86t-198 86t-88 199h164q0 -63 38 -107t84 -43q46 -1 84 43t38 107z" />
    <glyph glyph-name="dotaccent" unicode="&#x2d9;" horiz-adv-x="382" 
d="M199 1409q47 0 81 -36t34 -84t-34 -84t-81 -36t-82 37t-35 84t35 83t82 36z" />
    <glyph glyph-name="ring" unicode="&#x2da;" horiz-adv-x="409" 
d="M204 1280q34 0 58 26t23 59q0 33 -24 57q-23 24 -57 24t-59 -25t-25 -57t26 -58q24 -26 58 -26zM202 1575q83 -1 145 -63q63 -62 63 -145t-62 -146t-145 -63t-143 62q-60 64 -60 147t60 145t142 63z" />
    <glyph glyph-name="ogonek" unicode="&#x2db;" horiz-adv-x="319" 
d="M268 -317q51 -1 51 -65t-63 -64q-129 0 -193 55q-63 55 -63 141t55 171t148 136l108 -39q-69 -40 -115 -108t-46 -129q-1 -98 118 -98z" />
    <glyph glyph-name="tilde" unicode="&#x2dc;" horiz-adv-x="727" 
d="M252 1241q-45 1 -100 -21t-85 -22t-49 36q-18 36 -18 64q0 150 174 150q64 0 154 -28t141 -28t106 22t85 22t48 -36t19 -65q0 -150 -174 -149q-78 0 -167 28t-134 27z" />
    <glyph glyph-name="hungarumlaut" unicode="&#x2dd;" horiz-adv-x="638" 
d="M639 1396q0 -24 -12 -40l-162 -195q-16 -23 -47 -23t-61 30q-52 51 -15 96l162 194q16 20 47 20t59 -28q28 -30 29 -54zM0 1222q0 24 14 42l162 194q14 20 46 20t61 -28q49 -49 16 -94l-162 -195q-16 -23 -47 -23q-30 0 -60 30t-30 54z" />
    <glyph glyph-name="pi" unicode="&#x3c0;" horiz-adv-x="1148" 
d="M231 975h687q57 0 98 -26t41 -72v-781q0 -48 -47 -72t-113 -24t-113 25t-47 71v600h-325v-600q0 -48 -47 -72t-113 -24t-113 25t-47 71v781q0 47 41 73t98 25z" />
    <glyph glyph-name="Wgrave" unicode="&#x1e80;" horiz-adv-x="1884" 
d="M676 1842q0 46 29 84t67 38q14 0 29 -6l286 -133q41 -19 41 -67t-28 -86t-66 -38q-10 0 -30 8l-287 134q-41 20 -41 66zM6 1370q0 49 67 88t147 39t95 -59l312 -1051l161 692q8 39 54 62t100 23q55 0 100 -24q45 -22 54 -61l161 -692l312 1051q16 59 96 59q81 0 147 -39
t66 -88q0 -15 -4 -27l-408 -1249q-18 -51 -76 -79q-58 -27 -134 -27t-136 28q-59 28 -71 78l-107 486l-106 -486q-12 -51 -72 -79q-60 -27 -135 -27q-76 0 -135 28t-76 78l-408 1249q-4 12 -4 27z" />
    <glyph glyph-name="wgrave" unicode="&#x1e81;" horiz-adv-x="1437" 
d="M430 1352q0 46 29 85q29 38 67 38q14 0 29 -7l287 -133q41 -20 41 -67t-28 -85t-67 -38q-10 0 -30 8l-287 133q-41 20 -41 66zM4 860q0 51 71 89t141 38t85 -49l182 -520l131 440q18 62 104 62t105 -62l131 -440l183 520q16 49 85 49q70 0 140 -39t70 -92q-1 -23 -9 -39
l-315 -788q-22 -55 -128 -55t-126 55l-135 356l-135 -356q-20 -55 -126 -55t-128 55l-316 788q-10 27 -10 43z" />
    <glyph glyph-name="Wacute" unicode="&#x1e82;" horiz-adv-x="1884" 
d="M852 1634q-39 0 -67 38q-27 38 -27 85t41 68l286 133q16 6 29 6q39 0 68 -38q28 -38 28 -84t-41 -66l-286 -134q-20 -8 -31 -8zM6 1370q0 49 67 88t147 39t95 -59l312 -1051l161 692q8 39 54 62t100 23q55 0 100 -24q45 -22 54 -61l161 -692l312 1051q16 59 96 59
q81 0 147 -39t66 -88q0 -15 -4 -27l-408 -1249q-18 -51 -76 -79q-58 -27 -134 -27t-136 28q-59 28 -71 78l-107 486l-106 -486q-12 -51 -72 -79q-60 -27 -135 -27q-76 0 -135 28t-76 78l-408 1249q-4 12 -4 27z" />
    <glyph glyph-name="wacute" unicode="&#x1e83;" horiz-adv-x="1437" 
d="M647 1145q-39 0 -67 38t-27 85q0 47 41 67l287 133q16 6 28 7q39 0 68 -38q29 -39 29 -85t-41 -66l-287 -133q-20 -8 -31 -8zM4 860q0 51 71 89t141 38t85 -49l182 -520l131 440q18 62 104 62t105 -62l131 -440l183 520q16 49 85 49q70 0 140 -39t70 -92q-1 -23 -9 -39
l-315 -788q-22 -55 -128 -55t-126 55l-135 356l-135 -356q-20 -55 -126 -55t-128 55l-316 788q-10 27 -10 43z" />
    <glyph glyph-name="Wdieresis" unicode="&#x1e84;" horiz-adv-x="1884" 
d="M1108 1898q47 0 81 -36t34 -83q0 -48 -34 -84t-81 -36t-82 37t-35 84q0 46 35 82t82 36zM780 1898q47 0 81 -36t34 -83q0 -48 -34 -84t-81 -36t-82 37t-34 84q0 47 34 83q35 35 82 35zM6 1370q0 49 67 88t147 39t95 -59l312 -1051l161 692q8 39 54 62t100 23
q55 0 100 -24q45 -22 54 -61l161 -692l312 1051q16 59 96 59q81 0 147 -39t66 -88q0 -15 -4 -27l-408 -1249q-18 -51 -76 -79q-58 -27 -134 -27t-136 28q-59 28 -71 78l-107 486l-106 -486q-12 -51 -72 -79q-60 -27 -135 -27q-76 0 -135 28t-76 78l-408 1249q-4 12 -4 27z
" />
    <glyph glyph-name="wdieresis" unicode="&#x1e85;" horiz-adv-x="1437" 
d="M885 1409q47 0 81 -36t34 -84t-34 -84t-81 -36t-82 37t-35 84t35 83t82 36zM557 1409q47 0 81 -36t34 -84t-34 -84t-81 -36t-82 37t-35 84t35 83t82 36zM4 860q0 51 71 89t141 38t85 -49l182 -520l131 440q18 62 104 62t105 -62l131 -440l183 520q16 49 85 49
q70 0 140 -39t70 -92q-1 -23 -9 -39l-315 -788q-22 -55 -128 -55t-126 55l-135 356l-135 -356q-20 -55 -126 -55t-128 55l-316 788q-10 27 -10 43z" />
    <glyph glyph-name="Ygrave" unicode="&#x1ef2;" horiz-adv-x="1208" 
d="M336 1842q0 46 29 84t67 38q14 0 29 -6l287 -133q40 -19 40 -67t-28 -86t-66 -38q-10 0 -30 8l-287 134q-41 20 -41 66zM444 98v514q0 16 -8 29l-424 702q-4 8 -4 23q0 53 73 92t127 39t72 -13t37 -46l287 -527l285 527q31 59 97 59t140 -39q72 -39 72 -92q0 -14 -4 -23
l-422 -702q-8 -12 -8 -29v-514q0 -46 -47 -72t-113 -26t-113 26t-47 72z" />
    <glyph glyph-name="ygrave" unicode="&#x1ef3;" 
d="M219 1352q0 46 29 85q29 38 67 38q12 0 29 -7l287 -133q41 -20 41 -67t-28 -85t-66 -38q-11 0 -31 8l-287 133q-41 20 -41 66zM2 838q0 57 74 104t142 47t87 -51l232 -555l170 555q20 51 82 51q63 0 141 -48t78 -110q0 -20 -9 -34l-290 -725q-10 -29 -36 -96
q-26 -66 -37 -96t-39 -84q-27 -54 -51 -81q-79 -90 -151 -116q-121 -43 -220 -43q-101 0 -137 26t-36 109q0 131 78 131q291 0 291 262l-359 713q-10 20 -10 41z" />
    <glyph glyph-name="endash" unicode="&#x2013;" horiz-adv-x="974" 
d="M160 362q-43 0 -70 36t-27 93q0 56 27 94t70 38h655q39 0 69 -39t30 -93t-30 -92q-30 -37 -69 -37h-655z" />
    <glyph glyph-name="emdash" unicode="&#x2014;" horiz-adv-x="1550" 
d="M160 362q-43 0 -70 36t-27 93q0 56 27 94t70 38h1231q39 0 69 -39t29 -93q0 -53 -30 -91t-68 -38h-1231z" />
    <glyph glyph-name="quoteleft" unicode="&#x2018;" horiz-adv-x="391" 
d="M190 997q-63 0 -110 46t-47 110q0 33 127 328q16 37 57 37t74 -23t33 -48t-9 -42l-51 -111q82 -47 82 -139q0 -66 -46 -112t-110 -46z" />
    <glyph glyph-name="quoteright" unicode="&#x2019;" horiz-adv-x="389" 
d="M203 1518q63 0 110 -46t47 -110q0 -33 -127 -328q-16 -37 -57 -37t-74 23q-50 35 -24 90l51 111q-82 47 -82 139q1 66 47 112t109 46z" />
    <glyph glyph-name="quotesinglbase" unicode="&#x201a;" horiz-adv-x="407" 
d="M203 303q63 0 110 -46t47 -110q0 -33 -127 -327q-16 -37 -57 -37q-41 1 -74 23q-50 34 -24 90l51 110q-82 47 -82 139q0 66 46 112q47 46 110 46z" />
    <glyph glyph-name="quotedblleft" unicode="&#x201c;" horiz-adv-x="800" 
d="M600 997q-63 0 -111 46q-47 46 -47 110q0 33 127 328q15 37 57 37t74 -23t33 -48q0 -25 -8 -42l-51 -111q82 -47 82 -139q0 -66 -46 -112t-110 -46zM190 997q-63 0 -110 46t-47 110q0 33 127 328q16 37 57 37t74 -23t33 -48t-9 -42l-51 -111q82 -47 82 -139
q0 -66 -46 -112t-110 -46z" />
    <glyph glyph-name="quotedblright" unicode="&#x201d;" horiz-adv-x="798" 
d="M203 1518q63 0 110 -46t47 -110q0 -33 -127 -328q-16 -37 -57 -37t-74 23q-50 35 -24 90l51 111q-82 47 -82 139q1 66 47 112t109 46zM612 1518q62 0 110 -46t48 -110q0 -33 -127 -328q-16 -37 -57 -37t-74 23t-33 48t8 42l52 111q-82 47 -82 139q0 66 46 112t109 46z
" />
    <glyph glyph-name="quotedblbase" unicode="&#x201e;" horiz-adv-x="817" 
d="M203 303q63 0 110 -46t47 -110q0 -33 -127 -327q-16 -37 -57 -37q-41 1 -74 23q-50 34 -24 90l51 110q-82 47 -82 139q0 66 46 112q47 46 110 46zM612 303q62 0 110 -46t48 -110q0 -33 -127 -327q-16 -37 -57 -37q-41 1 -74 23t-33 48t8 42l52 110q-82 47 -82 139
q0 66 46 112t109 46z" />
    <glyph glyph-name="dagger" unicode="&#x2020;" horiz-adv-x="927" 
d="M39 929q0 52 27 88t69 36l168 -13v361q0 39 47 67q46 28 110 29q64 0 113 -30t50 -66v-361l168 13q37 0 67 -37t31 -87q0 -50 -30 -85t-68 -35l-168 12v-747q1 -45 -49 -81t-114 -36t-110 35q-47 35 -47 82v747l-168 -12q-43 0 -69 34t-27 86z" />
    <glyph glyph-name="daggerdbl" unicode="&#x2021;" horiz-adv-x="948" 
d="M49 493q0 52 27 88t69 35l168 -12v217l-168 -12q-43 0 -69 34t-27 86q0 52 27 88t69 36l168 -13v361q0 39 47 67q46 28 110 29q64 0 114 -30t49 -66v-361l168 13q37 0 67 -37t31 -87q0 -50 -30 -85t-68 -35l-168 12v-217l168 12q37 0 67 -36t31 -87q0 -50 -30 -85
t-68 -35l-168 12v-311q0 -45 -49 -81t-113 -36t-111 35t-47 82v311l-168 -12q-43 0 -69 34t-27 86z" />
    <glyph glyph-name="bullet" unicode="&#x2022;" horiz-adv-x="686" 
d="M343 891q116 0 203 -83t87 -195q0 -113 -87 -195t-203 -82t-203 83t-87 195t87 194q87 83 203 83z" />
    <glyph glyph-name="ellipsis" unicode="&#x2026;" horiz-adv-x="1212" 
d="M1008 303q66 0 111 -47q46 -46 46 -110t-46 -111q-47 -47 -111 -47t-110 47t-46 111t45 111q45 46 111 46zM607 -12q-65 0 -111 47t-45 111t45 111q44 46 110 46t112 -47q46 -46 46 -110t-46 -111t-111 -47zM202 303q66 0 112 -47q46 -46 46 -110t-46 -111t-110 -47
t-111 47q-46 47 -46 111t45 111q44 46 110 46z" />
    <glyph glyph-name="perthousand" unicode="&#x2030;" horiz-adv-x="2367" 
d="M2114 270v291q0 98 -102 98t-101 -98v-291q-1 -98 101 -98t102 98zM2318 270q0 -144 -84 -210t-224 -66t-223 66t-83 210v291q0 143 83 210t223 67t224 -67t84 -210v-291zM1170 1581q53 0 91 -31q37 -32 37 -66t-8 -50l-721 -1477q-25 -51 -83 -51t-91 34t-33 63t11 50
l719 1477q25 51 78 51zM1399 270v291q1 98 -101 98t-102 -98v-291q0 -98 102 -98t101 98zM1295 -6q-140 0 -223 66t-83 210v291q0 143 83 210t223 67q141 0 225 -67t84 -210v-291q0 -143 -84 -210q-85 -66 -225 -66zM459 930v291q1 98 -101 98t-102 -98v-291q0 -98 102 -98
t101 98zM664 930q0 -143 -84 -210t-225 -67q-140 0 -223 67t-83 210v291q0 143 83 210t223 67t225 -67q84 -67 84 -210v-291z" />
    <glyph glyph-name="guilsinglleft" unicode="&#x2039;" horiz-adv-x="587" 
d="M524 311q0 -51 -62 -105t-133 -54t-91 38l-138 256q-10 20 -34 58t-23 62q-1 24 23 64t34 58l138 256q20 39 91 39t133 -54t62 -106q0 -16 -6 -28l-121 -228l121 -227q6 -12 6 -29z" />
    <glyph glyph-name="guilsinglright" unicode="&#x203a;" horiz-adv-x="587" 
d="M260 983q72 0 90 -39l137 -256q28 -50 43 -75t15 -50q1 -24 -23 -60t-35 -57l-137 -256q-18 -38 -90 -38t-134 54t-63 105q1 17 7 29l120 227l-120 228q-6 12 -7 28q1 51 63 105t134 55z" />
    <glyph glyph-name="fraction" unicode="&#x2044;" horiz-adv-x="405" 
d="M541 1581q53 0 91 -31q38 -32 38 -66t-8 -50l-721 -1477q-25 -51 -83 -51t-92 34q-32 34 -32 63t10 50l719 1477q25 51 78 51z" />
    <glyph glyph-name="zerosuperior" unicode="&#x2070;" horiz-adv-x="724" 
d="M465 930v291q1 98 -101 98t-102 -98v-291q0 -98 102 -98t101 98zM670 930q0 -143 -84 -210t-225 -67q-140 0 -223 67t-83 210v291q0 143 83 210t223 67t225 -67q84 -67 84 -210v-291z" />
    <glyph glyph-name="foursuperior" unicode="&#x2074;" horiz-adv-x="671" 
d="M350 721v110h-284q-28 1 -48 19t-20 44t10 44l281 508q29 51 86 51q31 1 67 -21t35 -55q0 -12 -6 -24l-209 -377h88v43q0 31 30 46t73 15q104 0 104 -61v-43h51q29 0 45 -28q17 -28 17 -64t-20 -67q-20 -30 -42 -30h-51v-110q0 -29 -31 -45q-30 -16 -72 -16t-73 16
t-31 45z" />
    <glyph glyph-name="fivesuperior" unicode="&#x2075;" horiz-adv-x="671" 
d="M334 1198q139 0 223 -60t84 -194v-22q0 -137 -84 -203t-224 -66t-223 65t-83 152q0 51 25 71q26 19 83 19t77 -18q20 -20 21 -57q1 -53 101 -53t100 90v22q0 96 -100 96h-189q-78 0 -77 82q0 20 2 37l32 277q6 61 37 61h398q59 0 59 -88q0 -37 -15 -63t-44 -27h-265
l-12 -121h74z" />
    <glyph glyph-name="sixsuperior" unicode="&#x2076;" horiz-adv-x="718" 
d="M264 932v-17q0 -98 102 -98t101 96v9q1 102 -101 102t-102 -92zM414 1180q258 0 258 -244v-8q0 -143 -83 -209t-221 -66q-138 -1 -224 63t-87 199v306q0 143 87 210q88 67 234 67t220 -70q74 -69 74 -150q0 -46 -23 -64t-74 -18q-106 0 -106 74q0 49 -102 49t-103 -98
v-84q46 43 150 43z" />
    <glyph glyph-name="sevensuperior" unicode="&#x2077;" horiz-adv-x="653" 
d="M635 1436v-156q0 -55 -41 -127l-279 -475q-14 -27 -61 -27t-87 31t-40 74q0 18 8 32l295 447v84h-203v-62q1 -25 -31 -43t-73 -18t-72 17t-31 44v179q0 23 29 42t62 19h436q31 0 59 -19t29 -42z" />
    <glyph glyph-name="eightsuperior" unicode="&#x2078;" horiz-adv-x="698" 
d="M349 1335q-79 -1 -79 -69t79 -68t79 68t-79 69zM451 915v27q1 92 -101 92t-102 -92v-27q0 -100 102 -100t101 100zM349 1497q128 0 203 -51t75 -154q0 -135 -125 -174q154 -47 153 -215v-14q0 -121 -83 -178t-222 -57t-224 56q-85 58 -85 179v14q0 168 156 215
q-125 39 -125 174q0 102 74 154q75 51 203 51z" />
    <glyph glyph-name="ninesuperior" unicode="&#x2079;" horiz-adv-x="714" 
d="M455 1219v16q1 98 -101 98t-102 -98v-8q0 -100 102 -100t101 92zM305 971q-260 0 -260 243v9q0 143 83 209t223 66t224 -68q84 -66 84 -209v-291q0 -143 -87 -210t-232 -67t-220 69t-75 150q0 46 23 64t73 18q106 0 107 -73q0 -49 104 -49t103 98v84q-46 -43 -150 -43z
" />
    <glyph glyph-name="zeroinferior" unicode="&#x2080;" horiz-adv-x="724" 
d="M465 270v291q1 98 -101 98t-102 -98v-291q0 -98 102 -98t101 98zM361 -6q-140 0 -223 66t-83 210v291q0 143 83 210t223 67q141 0 225 -67t84 -210v-291q0 -143 -84 -210q-85 -66 -225 -66z" />
    <glyph glyph-name="oneinferior" unicode="&#x2081;" horiz-adv-x="411" 
d="M131 61v560l-33 -9q-18 -6 -38 -6t-40 25q-18 25 -18 63t37 60l172 82q14 6 42 6q29 0 57 -18t28 -46v-717q0 -29 -31 -45t-73 -16t-72 16q-31 16 -31 45z" />
    <glyph glyph-name="twoinferior" unicode="&#x2082;" horiz-adv-x="667" 
d="M53 610q0 104 84 166t200 62t204 -64t88 -178q-1 -82 -59 -153t-129 -111q-187 -104 -187 -146v-8h311q25 0 43 -26t18 -62q0 -34 -18 -62t-43 -28h-436q-31 0 -61 17t-29 44v113q0 58 59 120t132 105t132 95q97 87 39 140q-20 19 -63 19q-84 0 -84 -73q0 -29 -30 -52
t-79 -22q-92 0 -92 104z" />
    <glyph glyph-name="threeinferior" unicode="&#x2083;" horiz-adv-x="688" 
d="M350 172q45 0 68 18t22 66v23q0 47 -27 61q-28 14 -85 14t-58 78q0 78 60 80q38 3 56 11q32 14 32 73q0 68 -84 68q-54 0 -68 -12t-14 -31q0 -72 -96 -72q-70 0 -88 15t-19 63q0 86 69 148t216 63q281 0 280 -209q0 -61 -24 -115t-70 -72q125 -41 125 -163v-23
q0 -134 -87 -198t-232 -64t-221 68q-75 69 -74 155q0 43 21 57q22 14 80 14t80 -14t21 -51q1 -43 55 -49q18 -2 62 -2z" />
    <glyph glyph-name="fourinferior" unicode="&#x2084;" horiz-adv-x="669" 
d="M350 403q0 62 104 62t103 -62v-43h51q29 0 45 -28q17 -28 17 -64t-20 -66t-42 -30h-51v-111q0 -29 -31 -45q-30 -16 -72 -16t-73 16t-31 45v111h-284q-29 0 -49 18q-19 18 -19 44t10 45l281 507q29 51 86 52q31 0 67 -22t35 -54q0 -12 -6 -25l-209 -377h88v43z" />
    <glyph glyph-name="fiveinferior" unicode="&#x2085;" horiz-adv-x="671" 
d="M334 539q139 -1 223 -61t84 -193v-23q0 -137 -84 -203q-84 -65 -224 -65t-223 64t-83 153q0 51 25 71q26 19 83 19t77 -19t21 -57q1 -53 101 -53t100 90v23q0 96 -100 96h-189q-78 0 -77 82q0 20 2 37l32 276q6 61 37 62h398q59 0 59 -88q0 -37 -15 -64t-44 -27h-265
l-12 -120h74z" />
    <glyph glyph-name="sixinferior" unicode="&#x2086;" horiz-adv-x="716" 
d="M262 272v-16q0 -98 102 -98t101 96v8q0 102 -103 103q-100 -1 -100 -93zM412 520q258 0 258 -244v-8q0 -143 -83 -209q-83 -65 -221 -65t-225 63q-86 63 -86 199v305q0 143 87 210q88 67 234 67t220 -69t74 -151q0 -47 -23 -64t-74 -17q-106 0 -106 73q0 49 -102 49
t-103 -98v-84q46 43 150 43z" />
    <glyph glyph-name="seveninferior" unicode="&#x2087;" horiz-adv-x="653" 
d="M635 776v-155q0 -55 -41 -127l-279 -476q-14 -26 -61 -26t-87 31t-40 73q0 18 8 33l295 446v84h-203v-61q1 -25 -31 -43t-73 -18t-72 17t-31 44v178q0 23 29 42t62 20h436q31 0 59 -20t29 -42z" />
    <glyph glyph-name="eightinferior" unicode="&#x2088;" horiz-adv-x="698" 
d="M349 676q-79 0 -79 -69t79 -69t79 70q0 68 -79 68zM451 256v27q1 92 -101 92t-102 -92v-27q0 -100 102 -100t101 100zM72 633q0 101 74 153t203 52q128 0 203 -52t75 -153q0 -135 -125 -174q154 -47 153 -215v-15q0 -121 -83 -178t-222 -57t-224 57t-85 178v15
q0 168 156 215q-125 39 -125 174z" />
    <glyph glyph-name="nineinferior" unicode="&#x2089;" horiz-adv-x="716" 
d="M457 559v16q1 99 -101 99t-102 -99v-8q0 -100 102 -100t101 92zM307 311q-260 0 -260 244v8q0 143 83 209t223 66q141 0 225 -67t84 -210v-291q0 -143 -88 -210q-88 -66 -232 -66q-145 0 -220 68t-75 151q0 47 23 65t73 17q106 0 107 -74q0 -49 104 -49t103 98v84
q-46 -43 -150 -43z" />
    <glyph glyph-name="Euro" unicode="&#x20ac;" horiz-adv-x="1302" 
d="M545 442v-8q0 -36 22 -80q43 -88 162 -88q118 0 150 68t33 127t36 79t124 19q89 0 124 -29t35 -116q-1 -197 -145 -312q-144 -114 -372 -114t-359 125q-130 125 -130 321v8h-82q-43 0 -69 30t-27 78q0 48 27 80t69 32h82v122h-82q-43 0 -69 30t-27 78q0 48 27 80t69 32
h82v10q0 250 136 366q137 116 359 117q222 -1 366 -109t145 -298q0 -86 -36 -115t-124 -29t-124 20t-36 68q0 184 -180 185q-186 0 -186 -205v-10h131q38 0 68 -33t30 -78t-30 -77t-68 -32h-131v-122h131q38 0 68 -33t30 -79t-30 -77t-68 -31h-131z" />
    <glyph glyph-name="trademark" unicode="&#x2122;" horiz-adv-x="1419" 
d="M992 1001q-38 0 -52 33l-100 211v-217q0 -25 -26 -39t-58 -14t-58 14q-25 14 -24 39v461q0 81 89 83q43 0 67 -13q24 -14 53 -72l112 -219l111 219q29 57 53 72q25 14 74 14q82 0 82 -84v-461q0 -25 -25 -39q-26 -14 -58 -14t-56 14t-25 39v209l-104 -203
q-17 -33 -55 -33zM129 1573h461q49 0 49 -76q0 -33 -13 -55t-36 -23h-148v-391q0 -25 -24 -39t-59 -14t-59 14t-24 39v391h-147q-23 0 -36 23t-13 55q0 76 49 76z" />
    <glyph glyph-name="Omega" unicode="&#x2126;" horiz-adv-x="1196" 
d="M416 758q0 -195 125 -195v-563h-373q-43 0 -70 40t-26 99q0 59 28 99q29 39 68 38h199v25q-270 96 -271 457v256q0 250 137 366t365 117q228 0 364 -117q138 -117 138 -366v-256q0 -184 -73 -299t-198 -158v-25h199q39 0 68 -38q28 -38 28 -98t-26 -100t-70 -40h-373v563
q125 27 125 195v256q0 205 -182 205t-182 -205v-256z" />
    <glyph glyph-name="estimated" unicode="&#x212e;" horiz-adv-x="1153" 
d="M440 565h254q43 0 43 49q0 113 -36 152q-35 39 -113 39t-113 -38t-35 -153v-49zM61 522q0 188 156 326t370 139t361 -109t148 -280q0 -116 -66 -146q-53 -24 -133 -24h-457v-12q0 -121 35 -175q35 -55 145 -55t183 18t103 41q80 58 95 58q31 0 57 -49t25 -90
q0 -64 -127 -124t-315 -60q-256 0 -418 131t-162 344v67z" />
    <glyph glyph-name="onethird" unicode="&#x2153;" horiz-adv-x="1417" 
d="M1065 172q53 0 76 18t22 66v23q0 47 -27 61q-28 14 -85 14t-58 78q0 78 60 80q38 3 56 11q32 14 32 73q0 68 -84 68q-54 0 -68 -12t-14 -31q0 -72 -96 -72q-70 0 -88 15t-19 63q0 86 69 148t216 63q281 0 280 -209q-1 -61 -25 -115t-69 -72q125 -41 125 -163v-23
q0 -134 -87 -198t-232 -64t-221 68q-75 69 -74 155q0 43 20 57t80 14t81 -14t21 -50t28 -44t81 -8zM936 1581q53 0 91 -31q38 -32 38 -66t-8 -50l-721 -1477q-25 -51 -83 -51t-91 34t-33 63t10 50l719 1477q25 51 78 51zM172 721v559l-33 -8q-18 -6 -39 -6t-39 24t-18 64
q0 39 37 59l172 82q16 6 43 6t55 -17t29 -46v-717q0 -29 -31 -45t-73 -16q-43 0 -73 16t-30 45z" />
    <glyph glyph-name="twothirds" unicode="&#x2154;" horiz-adv-x="1648" 
d="M1190 1581q53 0 91 -31q38 -32 38 -66t-8 -50l-721 -1477q-25 -51 -83 -51t-91 34t-33 63t10 50l719 1477q25 51 78 51zM1192 223q0 -43 54 -49q18 -2 62 -2q45 0 68 18t23 66v23q0 47 -28 61t-85 14t-57 78t59 80q40 3 57 11q31 13 31 73q0 68 -84 68q-55 0 -68 -12
t-14 -31q0 -72 -96 -72q-70 0 -88 15t-18 63q0 86 68 148q69 62 216 63q281 0 281 -209q0 -61 -25 -115t-69 -72q125 -41 125 -163v-23q0 -134 -87 -198t-233 -64t-220 68q-75 68 -75 155q0 43 22 57q21 14 79 14t80 -14t22 -51zM66 1270q0 104 84 166t200 61q116 0 203 -63
q88 -63 88 -179q0 -83 -58 -153t-129 -110q-186 -105 -188 -146v-8h312q25 0 43 -27t18 -61t-18 -63q-18 -28 -43 -28h-437q-31 -1 -61 17t-29 45v113q-1 59 59 120q60 60 133 104q191 114 191 191q0 25 -20 44t-64 20q-84 0 -84 -74q0 -29 -30 -51t-78 -23q-92 1 -92 105z
" />
    <glyph glyph-name="oneeighth" unicode="&#x215b;" horiz-adv-x="1413" 
d="M936 1581q53 0 91 -31q38 -32 38 -66t-8 -50l-721 -1477q-25 -51 -83 -51t-91 34t-33 63t10 50l719 1477q25 51 78 51zM1058 676q-79 0 -79 -69t79 -69t79 70q0 68 -79 68zM1159 256v27q0 92 -101 92t-102 -92v-27q0 -100 102 -100t101 100zM780 633q0 101 75 153t203 52
t203 -52t74 -153q0 -135 -125 -174q154 -47 154 -215v-15q0 -121 -83 -178t-222 -57t-224 57t-85 178v15q0 168 155 215q-125 39 -125 174zM172 721v559l-33 -8q-18 -6 -39 -6t-39 24t-18 64q0 39 37 59l172 82q16 6 43 6t55 -17t29 -46v-717q0 -29 -31 -45t-73 -16
q-43 0 -73 16t-30 45z" />
    <glyph glyph-name="threeeighths" unicode="&#x215c;" horiz-adv-x="1660" 
d="M248 884q0 -36 28 -44t80 -9q53 1 76 19t23 65v23q0 47 -28 61t-83 15q-59 0 -59 78t59 79q67 6 78 30q10 25 10 54q0 68 -84 68q-54 0 -68 -11q-13 -11 -14 -32q0 -72 -96 -72q-70 0 -88 16t-19 62q0 86 69 148t216 63q281 0 281 -209q0 -61 -25 -114t-69 -72
q125 -41 124 -164v-23q0 -135 -87 -198t-232 -63t-220 68q-75 69 -75 155q1 43 21 57t79 14t81 -14t22 -50zM1186 1581q53 0 91 -31q38 -32 38 -66t-8 -50l-721 -1477q-25 -51 -83 -51t-91 34t-33 63t10 50l719 1477q25 51 78 51zM1308 676q-79 0 -79 -69t79 -69t78 68
q1 70 -78 70zM1409 256v27q0 92 -101 92t-102 -92v-27q0 -100 102 -100t101 100zM1030 633q0 101 75 153t203 52t202 -52t75 -153q0 -135 -125 -174q154 -47 154 -215v-15q0 -121 -83 -178t-222 -57t-225 57q-85 57 -85 178v15q0 168 156 215q-125 39 -125 174z" />
    <glyph glyph-name="fiveeighths" unicode="&#x215d;" horiz-adv-x="1660" 
d="M350 1198q139 0 223 -60t84 -194v-22q0 -137 -84 -203t-224 -66t-223 65t-83 152q0 50 26 70q27 20 83 20t76 -18q20 -20 22 -57q0 -53 100 -53t101 90v22q0 96 -101 96h-188q-78 0 -78 82q0 20 2 37l33 277q6 61 37 61h397q59 0 59 -88q0 -37 -15 -63t-44 -27h-264
l-13 -121h74zM1184 1581q53 0 91 -31q38 -32 38 -66t-8 -50l-721 -1477q-25 -51 -83 -51t-91 34t-33 63t10 50l719 1477q25 51 78 51zM1306 676q-79 0 -79 -69t79 -69t78 68q1 70 -78 70zM1407 256v27q0 92 -101 92t-102 -92v-27q0 -100 102 -100t101 100zM1028 633
q0 101 75 153t203 52t202 -52t75 -153q0 -135 -125 -174q154 -47 154 -215v-15q0 -121 -83 -178t-222 -57t-225 57q-85 57 -85 178v15q0 168 156 215q-125 39 -125 174z" />
    <glyph glyph-name="seveneighths" unicode="&#x215e;" horiz-adv-x="1660" 
d="M1082 1581q52 0 90 -31q38 -32 38 -66t-8 -50l-721 -1477q-25 -51 -83 -51t-91 34t-33 63t11 50l719 1477q25 51 78 51zM1306 676q-79 0 -79 -69t79 -69t78 68q1 70 -78 70zM1407 256v27q0 92 -101 92t-102 -92v-27q0 -100 102 -100t101 100zM1028 633q0 101 75 153
t203 52t202 -52t75 -153q0 -135 -125 -174q154 -47 154 -215v-15q0 -121 -83 -178t-222 -57t-225 57q-85 57 -85 178v15q0 168 156 215q-125 39 -125 174zM657 1436v-156q0 -55 -41 -127l-278 -475q-14 -27 -61 -27t-88 31q-40 31 -39 74q0 18 8 32l295 447v84h-203v-62
q0 -25 -32 -43t-73 -18t-71 17t-31 44v179q0 23 28 42t62 19h436q31 0 59 -19t29 -42z" />
    <glyph glyph-name="arrowleft" unicode="&#x2190;" horiz-adv-x="1579" 
d="M642 977q44 0 91 -47q47 -48 47 -94t-22 -68l-146 -145h727q43 0 70 -38t27 -94q0 -57 -27 -93t-70 -36h-727l146 -145q22 -23 22 -69t-47 -92q-47 -48 -91 -48t-69 25l-391 391q-39 39 -39 69t39 68l391 391q25 25 69 25z" />
    <glyph glyph-name="arrowup" unicode="&#x2191;" horiz-adv-x="1579" 
d="M305 640q0 44 25 69l391 391q37 35 68 37t69 -37l391 -391q25 -25 25 -69t-47 -91t-93 -47t-69 22l-145 146v-727q0 -43 -36 -70t-92 -27t-95 27q-38 27 -38 70v727l-145 -146q-22 -22 -68 -22t-94 47q-47 47 -47 91z" />
    <glyph glyph-name="arrowright" unicode="&#x2192;" horiz-adv-x="1579" 
d="M937 977q44 0 69 -25l391 -391q39 -43 39 -71t-39 -66l-391 -391q-25 -25 -69 -25t-91 47t-47 93t22 69l146 145h-727q-43 0 -70 36t-27 92t27 95q27 38 70 38h727l-146 145q-23 22 -23 68t48 94q47 48 91 47z" />
    <glyph glyph-name="arrowdown" unicode="&#x2193;" horiz-adv-x="1579" 
d="M305 345q0 44 47 91q48 47 94 47t68 -22l145 -146v727q0 43 38 70q39 27 95 27t92 -27t36 -70v-727l145 146q23 23 69 23t92 -48q48 -47 48 -91t-25 -69l-391 -391q-40 -39 -70 -38t-67 38l-391 391q-25 25 -25 69z" />
    <glyph glyph-name="partialdiff" unicode="&#x2202;" horiz-adv-x="1073" 
d="M375 557v-143q0 -62 46 -110t107 -48t107 48q45 48 45 110v143q0 68 -48 111t-108 43q-60 1 -105 -47q-44 -48 -44 -107zM207 1214q-49 0 -82 64t-33 104q0 50 106 100t212 50t182 -22t152 -78q153 -115 219 -380q35 -144 34 -329v-293q0 -174 -141 -312
q-140 -138 -328 -138t-329 132t-142 302v143q1 176 107 303t256 127q88 0 156 -45t104 -111q-14 238 -76 334t-194 97q-56 0 -120 -24t-83 -24z" />
    <glyph glyph-name="Delta" unicode="&#x2206;" horiz-adv-x="1273" 
d="M408 279h458l-229 851zM1233 109q0 -109 -135 -109h-922q-135 0 -135 109q0 35 12 71l373 1211q37 119 211 119t211 -119l373 -1211q12 -37 12 -71z" />
    <glyph glyph-name="product" unicode="&#x220f;" horiz-adv-x="1226" 
d="M250 1497h727q57 0 98 -26t41 -72v-1303q0 -48 -47 -72t-113 -24t-112 25t-47 71v1123h-367v-1123q0 -48 -47 -72t-113 -24t-112 25t-47 71v1303q0 47 41 73t98 25z" />
    <glyph glyph-name="summation" unicode="&#x2211;" horiz-adv-x="1105" 
d="M47 1378q0 119 133 119h785q43 0 69 -43t27 -96q0 -53 -27 -96t-69 -43h-527l271 -471q92 -162 92 -232t-92 -231l-271 -471h527q43 0 69 -43t27 -97q0 -54 -27 -96q-27 -43 -69 -43h-785q-133 0 -133 119q0 63 37 133l401 729l-401 729q-37 70 -37 133z" />
    <glyph glyph-name="minus" unicode="&#x2212;" horiz-adv-x="1003" 
d="M78 581q0 56 26 94q27 38 70 38h655q39 0 69 -39t30 -93q0 -53 -30 -91t-69 -37h-655q-43 0 -70 35q-26 37 -26 93z" />
    <glyph glyph-name="radical" unicode="&#x221a;" horiz-adv-x="1458" 
d="M-8 777q0 56 26 94q27 38 70 38h246q66 0 96 -112l131 -510l322 1214q8 31 32 51q25 20 56 21h409q39 0 69 -39t30 -93t-30 -91t-69 -37h-221l-389 -1278q-16 -51 -74 -79t-135 -28q-76 0 -133 28t-76 79l-207 614h-57q-43 0 -70 36q-26 36 -26 92z" />
    <glyph glyph-name="infinity" unicode="&#x221e;" horiz-adv-x="1878" 
d="M538 670q-82 0 -138 -48t-56 -138t55 -139q55 -48 139 -48t167 49q84 49 131 137q-47 87 -131 137t-167 50zM1340 297q82 0 139 48q55 48 55 138q0 91 -55 139t-139 48t-167 -50q-84 -50 -131 -137q48 -88 132 -137t166 -49zM535 928q113 0 223 -66t180 -178
q72 112 182 178t223 66q195 0 332 -117t137 -328t-137 -327t-334 -117q-113 1 -223 65t-180 177q-70 -113 -180 -178t-223 -64q-195 0 -332 117q-137 118 -137 328t137 327t332 117z" />
    <glyph glyph-name="integral" unicode="&#x222b;" horiz-adv-x="745" 
d="M662 1532q32 0 64 -34t32 -81t-24 -86t-87 -39t-89 -28t-26 -117v-1153q0 -288 -204 -369q-88 -35 -217 -35q-51 0 -86 36t-35 85t28 88q30 39 88 39t82 36t25 118v1167q0 178 97 276q98 97 352 97z" />
    <glyph glyph-name="approxequal" unicode="&#x2248;" horiz-adv-x="909" 
d="M645 215q-78 -1 -167 27t-134 28t-100 -22t-74 -21q-41 0 -59 39t-19 70q0 158 174 158q64 0 154 -28t141 -28t107 22t73 21q41 0 59 -39t19 -69q0 -158 -174 -158zM645 643q-78 -1 -167 27t-134 28t-100 -22t-74 -21q-41 0 -59 39t-19 70q0 158 174 158q64 0 154 -28
t141 -28t107 22t73 21q41 0 59 -39t19 -69q0 -158 -174 -158z" />
    <glyph glyph-name="notequal" unicode="&#x2260;" horiz-adv-x="1052" 
d="M895 823q39 0 69 -39t30 -93t-30 -91t-69 -37h-254l-96 -155h350q39 0 69 -39t30 -93t-30 -92q-30 -37 -69 -37h-510l-106 -172q-12 -20 -40 -20q-28 -1 -55 21q-44 35 -16 81l55 90h-65q-43 0 -70 36t-27 92q0 57 27 95t70 38h221l94 155h-315q-43 0 -70 36t-27 92
t27 94t70 38h473l133 219q14 25 46 25t60 -24t27 -45q0 -21 -10 -37l-86 -138h94z" />
    <glyph glyph-name="lessequal" unicode="&#x2264;" horiz-adv-x="905" 
d="M59 171q0 56 27 94t70 38h567q39 0 69 -39t30 -93t-30 -91t-69 -37h-567q-43 0 -70 36t-27 92zM819 522q0 -55 -42 -105t-95 -50q-18 0 -39 10l-520 256q-63 31 -64 115q0 84 64 114l520 256q20 10 39 10q53 0 95 -50t42 -105t-51 -78l-344 -147l344 -148q51 -23 51 -78z
" />
    <glyph glyph-name="greaterequal" unicode="&#x2265;" horiz-adv-x="905" 
d="M750 303q44 0 70 -38t26 -94t-27 -92t-69 -36h-568q-38 0 -68 37t-30 91t30 93t68 39h568zM86 973q0 55 42 105t95 50q18 0 39 -10l520 -256q64 -30 64 -114t-64 -115l-520 -256q-20 -10 -39 -10q-53 0 -95 50t-42 105t51 78l344 148l-344 147q-51 23 -51 78z" />
    <glyph glyph-name="lozenge" unicode="&#x25ca;" horiz-adv-x="1093" 
d="M547 1169l-219 -419l219 -400l219 400zM1053 750q0 -70 -92 -232l-273 -475q-35 -61 -141 -61t-141 61l-273 475q-92 162 -92 232t92 231l273 475q35 61 140 61t142 -61l273 -475q92 -161 92 -231z" />
    <glyph glyph-name="commaaccent" unicode="&#xf6c3;" horiz-adv-x="526" 
d="M123 -428q-39 0 -67 38t-28 85t42 67l286 134q16 6 29 6q39 0 68 -38t29 -84t-42 -67l-286 -133q-20 -8 -31 -8z" />
    <glyph glyph-name="a.ss01" horiz-adv-x="1044" 
d="M590 399v9h-8q-109 0 -167 -23t-59 -90q0 -41 22 -63t52 -21q57 0 109 56q51 56 51 132zM457 987q219 0 335 -117t115 -284v-201q-1 -51 11 -79t24 -34t41 -11q59 -10 59 -118q0 -164 -149 -163q-98 0 -171 46t-85 117q-141 -164 -328 -163q-117 0 -195 70t-77 204
q0 170 125 239t354 68h74v21q0 152 -172 151q-76 0 -142 -34t-83 -33q-45 0 -74 49t-29 96q0 82 113 129t254 47z" />
    <glyph glyph-name="b.ss02" horiz-adv-x="1079" 
d="M707 414v143q0 59 -44 107q-45 48 -105 47q-60 0 -108 -43t-49 -111v-143q0 -62 45 -110q44 -48 106 -48t108 48t47 110zM1024 557v-143q0 -172 -141 -303t-329 -131t-330 131q-140 131 -140 303v1022q0 44 44 70t113 26t115 -27t45 -69v-605q35 66 104 111t157 45
q150 0 256 -127t106 -303z" />
    <glyph glyph-name="caron.alt" horiz-adv-x="313" 
d="M156 1518q63 0 110 -46t47 -110q0 -33 -127 -328q-16 -37 -57 -37t-74 23q-50 35 -24 90l51 111q-82 47 -82 139q0 66 46 112t110 46z" />
    <glyph glyph-name="g.ss03" horiz-adv-x="1091" 
d="M375 557v-123q0 -61 46 -109q46 -49 106 -49q61 0 107 50t46 82v149q0 70 -45 112t-107 42q-62 1 -107 -47q-46 -48 -46 -107zM418 -485q-361 0 -361 190q0 57 35 100t78 43q18 0 105 -30t163 -31q148 0 202 87q40 67 40 151v139q-31 -68 -106 -116t-160 -48
q-141 0 -249 131t-108 303v123q1 178 107 304t260 126q90 0 164 -45t112 -111v48q0 43 42 69t104 27q63 0 107 -27t44 -69v-883q0 -209 -145 -345t-434 -136z" />
    <glyph glyph-name="m.ss04" horiz-adv-x="1660" 
d="M1152 987q182 0 305 -128q122 -128 122 -302v-461q0 -40 -45 -68q-44 -28 -110 -28t-114 29t-48 67v461q0 59 -40 107t-96 47q-56 0 -96 -47q-41 -47 -41 -107v-461q0 -40 -45 -68q-44 -28 -110 -28t-114 29t-48 67v461q0 59 -40 107t-95 47q-55 0 -97 -47t-41 -107v-459
q0 -38 -48 -68q-47 -30 -111 -30t-111 31t-47 67v459q0 172 122 301t304 129t321 -125q141 125 323 125z" />
    <glyph glyph-name="n.ss04" horiz-adv-x="1083" 
d="M542 987q187 0 323 -129t136 -301v-461q0 -40 -45 -68t-110 -28t-114 29q-48 29 -48 67v461q0 59 -42 107t-99 47q-57 0 -101 -47t-43 -107v-459q0 -38 -48 -68q-47 -30 -111 -30t-111 31t-47 67v459q0 172 136 301q137 129 324 129z" />
    <glyph glyph-name="one.lnum" horiz-adv-x="854" 
d="M25 139q0 59 28 100q29 40 70 40h160v862l-60 -37q-25 -16 -59 -16t-64 38q-29 39 -28 88q0 74 59 109l270 164q23 14 68 14q45 -1 89 -29t44 -71v-1122h154q38 0 68 -41q30 -40 30 -98t-31 -99t-67 -41h-633q-41 0 -70 40q-28 40 -28 99z" />
    <glyph glyph-name="q.ss02" horiz-adv-x="1079" 
d="M373 414q0 -62 46 -110t106 -48t107 49q46 49 46 82v170q0 59 -46 107t-108 47q-62 0 -106 -47q-45 -47 -45 -107v-143zM412 -20q-141 0 -249 131t-108 303v143q1 174 139 302t329 128t331 -127t141 -303v-903q0 -39 -45 -69q-44 -29 -110 -29t-114 30t-48 68v489
q-32 -67 -106 -115t-160 -48z" />
    <glyph glyph-name="r.ss04" horiz-adv-x="786" 
d="M672 711h-60q-88 0 -156 -85t-67 -220v-308q0 -38 -48 -68t-114 -30q-67 0 -111 30t-44 68v312q0 322 212 489q112 88 265 88h115q57 0 89 -39q31 -39 31 -97t-34 -99t-78 -41z" />
    <glyph glyph-name="u.ss04" horiz-adv-x="1105" 
d="M438 -20q-141 0 -249 131t-107 303v465q0 43 46 69t115 27q69 0 113 -27t43 -69v-465q0 -62 44 -110q45 -48 103 -48t104 49t46 82v492q0 43 46 69t115 27q69 0 113 -27t44 -69v-781q0 -38 -45 -68t-107 -30t-103 31q-42 31 -42 67v45q-31 -67 -109 -115t-170 -48z" />
    </font>
</defs>
</svg>
